STARTFONT 2.1
COMMENT
COMMENT Converted from OpenType font "neuropolitical rg.otf" by "otf2bdf 3.0".
COMMENT
FONT -FreeType-Neuropolitical Rg-Medium-R-Normal--50-360-100-100-P-325-ISO10646-1
SIZE 36 100 100
FONTBOUNDINGBOX 77 60 -7 -11
STARTPROPERTIES 19
FOUNDRY "FreeType"
FAMILY_NAME "Neuropolitical Rg"
WEIGHT_NAME "Medium"
SLANT "R"
SETWIDTH_NAME "Normal"
ADD_STYLE_NAME ""
PIXEL_SIZE 50
POINT_SIZE 360
RESOLUTION_X 100
RESOLUTION_Y 100
SPACING "P"
AVERAGE_WIDTH 325
CHARSET_REGISTRY "ISO10646"
CHARSET_ENCODING "1"
FONT_ASCENT 49
FONT_DESCENT 11
COPYRIGHT "(c) 1999-2011 Typodermic Fonts. www.typodermic.com/license.html - Design: Ray Larabie Languages & kerning: Chikako Larabie"
_OTF_FONTFILE "neuropolitical rg.otf"
_OTF_PSNAME "NeuropoliticalRg-Regular"
ENDPROPERTIES
CHARS 385
STARTCHAR 0017
ENCODING 23
SWIDTH 400 0
DWIDTH 20 0
BBX 0 0 0 0
BITMAP
ENDCHAR
STARTCHAR 0020
ENCODING 32
SWIDTH 400 0
DWIDTH 20 0
BBX 0 0 0 0
BITMAP
ENDCHAR
STARTCHAR 0021
ENCODING 33
SWIDTH 280 0
DWIDTH 14 0
BBX 8 34 3 0
BITMAP
FF
FF
FF
FF
FF
FF
FF
FF
FF
FF
FF
FF
FF
FF
FF
FF
FF
FF
FF
FF
FF
FF
FF
FF
00
00
00
7F
FF
FF
FF
FF
FF
7E
ENDCHAR
STARTCHAR 0022
ENCODING 34
SWIDTH 420 0
DWIDTH 21 0
BBX 17 13 2 23
BITMAP
FE3F80
FE3F80
FE3F80
FE3F80
FE3F00
FC3F00
FC3F00
7C3F00
7C1F00
7C1F00
7C1F00
7C1F00
7C1F00
ENDCHAR
STARTCHAR 0023
ENCODING 35
SWIDTH 660 0
DWIDTH 33 0
BBX 31 34 1 0
BITMAP
007C03C0
007C07C0
007C07C0
007C07C0
00F807C0
00F807C0
00F807C0
00F80780
1FFFFFFE
3FFFFFFC
3FFFFFFC
3FFFFFFC
3FFFFFFC
01F00F80
01F00F00
01F01F00
01F01F00
01F01F00
01E01F00
03E01F00
03E01F00
7FFFFFF8
7FFFFFF8
7FFFFFF8
FFFFFFF0
FFFFFFF0
07C03E00
07C03E00
07C03C00
07C03C00
07C07C00
07C07C00
07807C00
0F807C00
ENDCHAR
STARTCHAR 0024
ENCODING 36
SWIDTH 840 0
DWIDTH 42 0
BBX 36 41 3 -4
BITMAP
0001F80000
0001F80000
0001F80000
07FFF80000
1FFFF80000
3FFFF80000
7FFFF80000
FFFFF80000
FFFFF80000
FF81F80000
FE01F80000
FE01F80000
FE01F80000
FE01F80000
FE01F80000
FE01F80000
FF01F80000
FFFFFFFE00
FFFFFFFF80
7FFFFFFFE0
7FFFFFFFE0
1FFFFFFFF0
02FFFFFFF0
0001F807F0
0001F807F0
0001F803F0
0001F803F0
0001F803F0
0001F807F0
0001F807F0
0001F81FF0
FFFFFFFFF0
FFFFFFFFF0
FFFFFFFFE0
FFFFFFFFE0
FFFFFFFF80
FFFFFFFE00
0001F80000
0001F80000
0001F80000
0001F80000
ENDCHAR
STARTCHAR 0025
ENCODING 37
SWIDTH 1040 0
DWIDTH 52 0
BBX 47 36 3 -1
BITMAP
3FFF80000000
7FFFC000FC00
FFFFE001F800
FFFFE003F000
F803F003E000
F001F007E000
F001F00FC000
F001F00F8000
F001F01F8000
F001F03F0000
F001F07E0000
F001F07E0000
F803F0FC0000
FFFFE1F80000
FFFFE1F00000
7FFFC3F00000
3FFF87E00000
000007C00000
00000FC00000
00001F83FFF0
00003F0FFFFC
00003F1FFFFC
00007E1FFFFE
0000FC1F003E
0000F81F003E
0001F81F003E
0003F01F003E
0007E01F003E
0007E01F003E
000FC01F003E
001F801F003E
001F001F003E
003F001FFFFE
007E001FFFFC
007C000FFFFC
00000003FFF0
ENDCHAR
STARTCHAR 0026
ENCODING 38
SWIDTH 940 0
DWIDTH 47 0
BBX 44 34 2 0
BITMAP
00FFFFF00000
03FFFFFC0000
07FFFFFE0000
0FFFFFFF0000
0FFFFFFF0000
0FFFFFFF0000
0FC0007F8000
0FC0003F8000
0FC0003F8000
0FC0003F0000
0FC0007F0000
0FE000FF0000
0FF00FFF0000
07F8FFFE0000
03FFFFFC0000
00FFFFF00000
0FFFFF000000
1FFFF0007F00
7FFFF8007F00
7FF3FE007F00
FF81FF007F00
FF007FC07F00
FF003FE07E00
FF000FF8FE00
FF0007FEFE00
FF0001FFFE00
FF0000FFFC00
FF00003FFC00
FFFFFFFFF800
7FFFFFFFFC00
7FFFFFFFFF00
3FFFFFFFFF80
0FFFFFFF7FE0
03FFFFF81FF0
ENDCHAR
STARTCHAR 0027
ENCODING 39
SWIDTH 220 0
DWIDTH 11 0
BBX 7 13 2 23
BITMAP
FE
FE
FE
FE
FE
FC
FC
7C
7C
7C
7C
7C
7C
ENDCHAR
STARTCHAR 0028
ENCODING 40
SWIDTH 360 0
DWIDTH 18 0
BBX 12 54 5 -11
BITMAP
01F0
0FF0
1FF0
3FF0
3F00
7E00
7C00
F800
F800
F800
F800
F800
F800
F800
F800
F800
F800
F800
F800
F800
F800
F800
F800
F800
F800
F800
F800
F800
F800
F800
F800
F800
F800
F800
F800
F800
F800
F800
F800
F800
F800
F800
F800
F800
F800
F800
F800
7C00
7C00
3F00
3FF0
1FF0
0FF0
01F0
ENDCHAR
STARTCHAR 0029
ENCODING 41
SWIDTH 360 0
DWIDTH 18 0
BBX 12 54 0 -11
BITMAP
FC00
FF00
FFC0
FFC0
07E0
03F0
01F0
01F0
01F0
01F0
01F0
01F0
01F0
01F0
01F0
01F0
01F0
01F0
01F0
01F0
01F0
01F0
01F0
01F0
01F0
01F0
01F0
01F0
01F0
01F0
01F0
01F0
01F0
01F0
01F0
01F0
01F0
01F0
01F0
01F0
01F0
01F0
01F0
01F0
01F0
01F0
01F0
01F0
03F0
07E0
FFE0
FFC0
FF00
FC00
ENDCHAR
STARTCHAR 002A
ENCODING 42
SWIDTH 560 0
DWIDTH 28 0
BBX 24 24 2 14
BITMAP
003C00
003C00
003C00
003C00
003C00
003C00
003C00
703C06
FC3C3F
FFBDFF
FFFFFF
3FFFFC
07FFE0
007F00
00FF00
00FF80
01F780
03E7C0
07C3E0
07C1F0
0F81F0
1F00F8
070070
020040
ENDCHAR
STARTCHAR 002B
ENCODING 43
SWIDTH 600 0
DWIDTH 30 0
BBX 24 23 3 6
BITMAP
007C00
007C00
007C00
007C00
007C00
007C00
007C00
007C00
007C00
FFFFFF
FFFFFF
FFFFFF
FFFFFF
FFFFFF
007C00
007C00
007C00
007C00
007C00
007C00
007C00
007C00
007C00
ENDCHAR
STARTCHAR 002C
ENCODING 44
SWIDTH 240 0
DWIDTH 12 0
BBX 8 12 2 -4
BITMAP
7F
7F
7F
7F
7E
7E
7E
FE
FC
FC
FC
FC
ENDCHAR
STARTCHAR 002D
ENCODING 45
SWIDTH 400 0
DWIDTH 20 0
BBX 16 6 2 13
BITMAP
FFFF
FFFF
FFFF
FFFF
FFFF
FFFF
ENDCHAR
STARTCHAR 002E
ENCODING 46
SWIDTH 280 0
DWIDTH 14 0
BBX 8 9 3 0
BITMAP
3C
FE
FF
FF
FF
FF
FF
FE
7E
ENDCHAR
STARTCHAR 002F
ENCODING 47
SWIDTH 520 0
DWIDTH 26 0
BBX 25 41 0 -5
BITMAP
00001F80
00001F80
00003F00
00003F00
00007E00
00007E00
0000FC00
0000FC00
0001F800
0001F800
0003F000
0003F000
0007E000
0007E000
0007E000
000FC000
000FC000
001F8000
001F8000
003F0000
003F0000
007E0000
007E0000
00FC0000
00FC0000
01F80000
01F80000
03F00000
03F00000
03F00000
07E00000
07E00000
0FC00000
0FC00000
1F800000
1F800000
3F000000
3F000000
7E000000
7E000000
FC000000
ENDCHAR
STARTCHAR 0030
ENCODING 48
SWIDTH 900 0
DWIDTH 45 0
BBX 39 34 3 0
BITMAP
01FFFFFF00
0FFFFFFFE0
1FFFFFFFF0
3FFFFFFFF8
7FFFFFFFFC
7FFFFFFFFC
FFFFFFFFFC
FF800003FE
FF000001FE
FE000001FE
FE000001FE
FE000001FE
FE000001FE
FE000001FE
FE000001FE
FE000001FE
FE000001FE
FE000001FE
FE000001FE
FE000001FE
FE000001FE
FE000001FE
FE000001FE
FE000001FE
FE000001FE
FF000001FE
FF000003FE
FFFFFFFFFC
7FFFFFFFFC
7FFFFFFFFC
3FFFFFFFF8
1FFFFFFFF0
0FFFFFFFE0
01FFFFFF00
ENDCHAR
STARTCHAR 0031
ENCODING 49
SWIDTH 280 0
DWIDTH 14 0
BBX 8 34 3 0
BITMAP
FF
FF
FF
FF
FF
FF
FF
FF
FF
FF
FF
FF
FF
FF
FF
FF
FF
FF
FF
FF
FF
FF
FF
FF
FF
FF
FF
FF
FF
FF
FF
FF
FF
FF
ENDCHAR
STARTCHAR 0032
ENCODING 50
SWIDTH 920 0
DWIDTH 46 0
BBX 41 34 2 0
BITMAP
00003FFFF000
00003FFFFC00
00003FFFFE00
00003FFFFF00
00003FFFFF00
00003FFFFF80
00000001FF80
000000003F80
000000003F80
000000003F80
000000003F80
000000003F80
000000003F80
000000007F80
03FFFFFFFF80
1FFFFFFFFF80
3FFFFFFFFF00
3FFFFFFFFF00
7FFFFFFFFC00
7FFFFFFFC000
7F0000000000
FF0000000000
FE0000000000
FE0000000000
FE0000000000
FE0000000000
FE0000000000
FE0000000000
FFFFFFFFFF80
FFFFFFFFFF80
FFFFFFFFFF80
FFFFFFFFFF80
FFFFFFFFFF80
FFFFFFFFFF80
ENDCHAR
STARTCHAR 0033
ENCODING 51
SWIDTH 900 0
DWIDTH 45 0
BBX 41 34 2 0
BITMAP
00003FFFE000
00003FFFF800
00003FFFFE00
00003FFFFE00
00003FFFFF00
00003FFFFF00
00000001FF00
000000007F00
000000007F00
000000007F00
000000007F00
000000007F00
000000007F00
00000000FF00
FFFFFFFFFF00
FFFFFFFFFE00
FFFFFFFFF800
FFFFFFFFFE00
FFFFFFFFFF00
FFFFFFFFFF00
000000007F80
000000003F80
000000003F80
000000003F80
000000003F80
000000003F80
000000007F80
00000000FF80
FFFFFFFFFF80
FFFFFFFFFF00
FFFFFFFFFF00
FFFFFFFFFE00
FFFFFFFFFC00
FFFFFFFFF000
ENDCHAR
STARTCHAR 0034
ENCODING 52
SWIDTH 960 0
DWIDTH 48 0
BBX 41 34 3 0
BITMAP
FE0000003F80
FE0000003F80
FE0000003F80
FE0000003F80
FE0000003F80
FE0000003F80
FE0000003F80
FE0000003F80
FE0000003F80
FE0000003F80
FE0000003F80
FE0000003F80
FE0000003F80
FE0000003F80
FE0000003F80
FE0000003F80
FE0000003F80
FE0000003F80
FFFFFFFFFF80
FFFFFFFFFF80
FFFFFFFFFF80
FFFFFFFFFF80
FFFFFFFFFF80
FFFFFFFFFF80
FFFFFFFFFF80
000000003F80
000000003F80
000000003F80
000000003F80
000000003F80
000000003F80
000000003F80
000000003F80
000000003F80
ENDCHAR
STARTCHAR 0035
ENCODING 53
SWIDTH 940 0
DWIDTH 47 0
BBX 42 34 3 0
BITMAP
FFFFFF800000
FFFFFF800000
FFFFFF800000
FFFFFF800000
FFFFFF800000
FFFFFF800000
FE0000000000
FE0000000000
FE0000000000
FE0000000000
FE0000000000
FE0000000000
FE0000000000
FFFFFFFFE000
FFFFFFFFFC00
FFFFFFFFFE00
FFFFFFFFFF00
FFFFFFFFFF80
FFFFFFFFFF80
000000007F80
000000003F80
000000001FC0
000000001FC0
000000001FC0
000000001FC0
000000003FC0
000000003F80
00000001FF80
FFFFFFFFFF80
FFFFFFFFFF80
FFFFFFFFFF00
FFFFFFFFFF00
FFFFFFFFFC00
FFFFFFFFF000
ENDCHAR
STARTCHAR 0036
ENCODING 54
SWIDTH 940 0
DWIDTH 47 0
BBX 42 34 3 0
BITMAP
01FFFF000000
0FFFFF000000
1FFFFF000000
3FFFFF000000
7FFFFF000000
7FFFFF000000
FFF000000000
FF0000000000
FF0000000000
FE0000000000
FE0000000000
FE0000000000
FE0000000000
FFFFFFFFE000
FFFFFFFFFC00
FFFFFFFFFE00
FFFFFFFFFF00
FFFFFFFFFF80
FFFFFFFFFF80
FE0000007F80
FE0000003FC0
FE0000003FC0
FE0000003FC0
FE0000003FC0
FE0000003FC0
FF0000003FC0
FF0000003FC0
FFE00000FFC0
7FFFFFFFFF80
7FFFFFFFFF80
3FFFFFFFFF80
1FFFFFFFFF00
0FFFFFFFFE00
01FFFFFFF000
ENDCHAR
STARTCHAR 0037
ENCODING 55
SWIDTH 900 0
DWIDTH 45 0
BBX 41 34 2 0
BITMAP
FFFFFFFFFF00
FFFFFFFFFF80
FFFFFFFFFF80
FFFFFFFFFF80
FFFFFFFFFF80
FFFFFFFFFF80
FFFFFFFFFF00
00000003FF00
00000003FE00
00000007FC00
0000000FF800
0000001FF000
0000003FE000
0000007FE000
000000FFC000
000000FF8000
000001FF0000
000003FE0000
000007FC0000
00000FFC0000
00001FF80000
00001FF00000
00003FE00000
00007FC00000
0000FFC00000
0001FF800000
0003FF000000
0007FE000000
0007FC000000
000FF8000000
001FF8000000
003FF0000000
007FE0000000
00FFC0000000
ENDCHAR
STARTCHAR 0038
ENCODING 56
SWIDTH 900 0
DWIDTH 45 0
BBX 41 34 2 0
BITMAP
01FFFFFFC000
0FFFFFFFF800
1FFFFFFFFC00
3FFFFFFFFE00
7FFFFFFFFF00
7FFFFFFFFF00
7FF00007FF00
7F0000007F00
7F0000007F00
7F0000007F00
7F0000007F00
7F0000007F00
7F0000007F00
7F800000FF00
3FFFFFFFFE00
1FFFFFFFFC00
0FFFFFFFF800
3FFFFFFFFE00
3FFFFFFFFF00
7FC00001FF00
7F0000007F00
FF0000007F80
FF0000003F80
FF0000003F80
FF0000003F80
FF0000003F80
FF0000007F80
FFE00003FF80
7FFFFFFFFF00
7FFFFFFFFF00
7FFFFFFFFF00
3FFFFFFFFE00
1FFFFFFFFC00
03FFFFFFE000
ENDCHAR
STARTCHAR 0039
ENCODING 57
SWIDTH 940 0
DWIDTH 47 0
BBX 42 34 2 0
BITMAP
03FFFFFFE000
1FFFFFFFFC00
3FFFFFFFFE00
7FFFFFFFFF00
7FFFFFFFFF80
7FFFFFFFFF80
FFE00003FFC0
FF0000003FC0
FF0000003FC0
FF0000001FC0
FF0000001FC0
FF0000001FC0
FF0000001FC0
FF0000001FC0
FF8000001FC0
7FFFFFFFFFC0
7FFFFFFFFFC0
3FFFFFFFFFC0
3FFFFFFFFFC0
1FFFFFFFFFC0
03FFFFFFFFC0
000000001FC0
000000001FC0
000000001FC0
000000003FC0
000000003FC0
000000007FC0
00000001FFC0
00003FFFFF80
00003FFFFF80
00003FFFFF00
00003FFFFE00
00003FFFFC00
00003FFFE000
ENDCHAR
STARTCHAR 003A
ENCODING 58
SWIDTH 280 0
DWIDTH 14 0
BBX 8 27 3 0
BITMAP
7C
FE
FF
FF
FF
FF
FF
FE
7E
00
00
00
00
00
00
00
00
00
3C
FE
FF
FF
FF
FF
FF
FE
7E
ENDCHAR
STARTCHAR 003B
ENCODING 59
SWIDTH 280 0
DWIDTH 14 0
BBX 9 31 2 -4
BITMAP
3E00
7F00
7F80
7F80
7F80
7F80
7F80
7F00
3F00
0000
0000
0000
0000
0000
0000
0000
0000
0000
0000
7F00
7F00
7F00
7F00
7E00
7E00
7E00
7E00
FC00
FC00
FC00
FC00
ENDCHAR
STARTCHAR 003C
ENCODING 60
SWIDTH 600 0
DWIDTH 30 0
BBX 24 30 3 1
BITMAP
000001
000007
00001F
00007F
0001FF
0003FF
000FFC
003FF0
00FFC0
03FF00
0FFE00
1FF800
7FE000
FF8000
FE0000
FE0000
FF8000
7FE000
1FF800
0FFE00
03FF00
00FFC0
003FF0
000FFC
0003FF
0001FF
00007F
00001F
000007
000001
ENDCHAR
STARTCHAR 003D
ENCODING 61
SWIDTH 600 0
DWIDTH 30 0
BBX 24 17 3 9
BITMAP
FFFFFF
FFFFFF
FFFFFF
FFFFFF
FFFFFF
000000
000000
000000
000000
000000
000000
000000
FFFFFF
FFFFFF
FFFFFF
FFFFFF
FFFFFF
ENDCHAR
STARTCHAR 003E
ENCODING 62
SWIDTH 600 0
DWIDTH 30 0
BBX 24 30 3 1
BITMAP
800000
E00000
F80000
FC0000
FF0000
FFC000
3FF000
1FFC00
07FE00
01FF80
007FE0
001FF8
0007FC
0001FE
0000FF
0000FF
0003FE
0007FC
001FF8
007FE0
01FF80
07FE00
1FFC00
3FF000
FFC000
FF0000
FC0000
F80000
E00000
800000
ENDCHAR
STARTCHAR 003F
ENCODING 63
SWIDTH 600 0
DWIDTH 30 0
BBX 26 34 2 0
BITMAP
00FFF800
00FFFE00
00FFFF00
00FFFF80
00FFFF80
00FFFFC0
00007FC0
00001FC0
00001FC0
00001FC0
00001FC0
00001FC0
00001FC0
00001FC0
007FFFC0
1FFFFFC0
3FFFFF80
7FFFFF80
7FFFFF00
7FFFFC00
7F000000
FF000000
FF000000
FF000000
00000000
00000000
00000000
7F000000
7F000000
FF000000
FF000000
FF000000
7F000000
7E000000
ENDCHAR
STARTCHAR 0040
ENCODING 64
SWIDTH 740 0
DWIDTH 37 0
BBX 32 40 3 -8
BITMAP
0FFFFFE0
3FFFFFF8
7FFFFFFC
7FFFFFFE
FFFFFFFE
FE00007E
FC00003F
FC00003F
FC00003F
FC00003F
FC00FFFF
FC07FFFF
FC0FFFFF
FC0FFFFF
FC0FFFFF
FC1FC03F
FC1F803F
FC1F803F
FC1F803F
FC1F803F
FC1F803F
FC1F803F
FC1F803F
FC1F807E
FC1FFFFE
FC0FFFFE
FC0FFFFC
FC07FFF8
FC01FFE0
FC000000
FC000000
FC000000
FC000000
FC000000
FE000000
FFFF8000
7FFF8000
7FFF8000
3FFF8000
0FFF8000
ENDCHAR
STARTCHAR 0041
ENCODING 65
SWIDTH 1040 0
DWIDTH 52 0
BBX 50 35 1 0
BITMAP
000003F0000000
000007F8000000
00000FFC000000
00001FFE000000
00003FFE000000
00003FFF000000
00007FFF800000
00007FFF800000
0000FF7FC00000
0001FF3FC00000
0001FE3FE00000
0003FC1FF00000
0007FC0FF00000
0007F80FF80000
000FF807FC0000
000FF003FC0000
001FE003FE0000
003FE001FE0000
003FC001FF0000
007FC000FF8000
00FF80007F8000
00FFFFFFFFC000
01FFFFFFFFE000
01FFFFFFFFE000
03FFFFFFFFF000
07FFFFFFFFF000
07FFFFFFFFF800
0FF8000007FC00
1FF0000003FC00
1FE0000003FE00
3FE0000001FF00
3FC0000001FF00
7FC0000000FF80
FF800000007F80
FF000000007FC0
ENDCHAR
STARTCHAR 0042
ENCODING 66
SWIDTH 900 0
DWIDTH 45 0
BBX 40 34 3 0
BITMAP
FFFFFFFFC0
FFFFFFFFF8
FFFFFFFFFC
FFFFFFFFFE
FFFFFFFFFE
FFFFFFFFFE
FF000001FE
FF000000FE
FF000000FE
FF000000FE
FF000000FE
FF000000FE
FF000000FE
FF000001FE
FFFFFFFFFE
FFFFFFFFFC
FFFFFFFFF0
FFFFFFFFFC
FFFFFFFFFE
FFFFFFFFFE
FF000000FF
FF0000007F
FF0000007F
FF0000007F
FF0000007F
FF0000007F
FF000000FF
FF000001FF
FFFFFFFFFF
FFFFFFFFFE
FFFFFFFFFE
FFFFFFFFFC
FFFFFFFFF8
FFFFFFFFE0
ENDCHAR
STARTCHAR 0043
ENCODING 67
SWIDTH 820 0
DWIDTH 41 0
BBX 36 34 3 0
BITMAP
01FFFFFFF0
0FFFFFFFF0
1FFFFFFFF0
3FFFFFFFF0
7FFFFFFFF0
7FFFFFFFF0
FFFFFFFFF0
FF80000000
FF00000000
FE00000000
FE00000000
FE00000000
FE00000000
FE00000000
FE00000000
FE00000000
FE00000000
FE00000000
FE00000000
FE00000000
FE00000000
FE00000000
FE00000000
FE00000000
FE00000000
FF00000000
FF80000000
FFFFFFFFF0
7FFFFFFFF0
7FFFFFFFF0
3FFFFFFFF0
1FFFFFFFF0
0FFFFFFFF0
01FFFFFFF0
ENDCHAR
STARTCHAR 0044
ENCODING 68
SWIDTH 920 0
DWIDTH 46 0
BBX 40 34 3 0
BITMAP
FFFFFFFF80
FFFFFFFFF0
FFFFFFFFF8
FFFFFFFFFC
FFFFFFFFFE
FFFFFFFFFE
FFFFFFFFFE
FF000001FF
FF000000FF
FF000000FF
FF000000FF
FF000000FF
FF000000FF
FF000000FF
FF000000FF
FF000000FF
FF000000FF
FF000000FF
FF000000FF
FF000000FF
FF000000FF
FF000000FF
FF000000FF
FF000000FF
FF000000FF
FF000000FF
FF000001FF
FFFFFFFFFE
FFFFFFFFFE
FFFFFFFFFE
FFFFFFFFFC
FFFFFFFFF8
FFFFFFFFF0
FFFFFFFF80
ENDCHAR
STARTCHAR 0045
ENCODING 69
SWIDTH 820 0
DWIDTH 41 0
BBX 37 34 3 0
BITMAP
01FFF80000
0FFFF80000
1FFFF80000
3FFFF80000
7FFFF80000
7FFFF80000
FFF0000000
FF00000000
FF00000000
FE00000000
FE00000000
FE00000000
FE00000000
FE00000000
FFFFFFFFF0
FFFFFFFFF0
FFFFFFFFF0
FFFFFFFFF0
FFFFFFFFF0
FFFFFFFFF0
FE00000000
FE00000000
FE00000000
FE00000000
FE00000000
FF00000000
FF00000000
FFF0000000
7FFFFFFFF8
7FFFFFFFF8
3FFFFFFFF8
1FFFFFFFF8
0FFFFFFFF8
01FFFFFFF8
ENDCHAR
STARTCHAR 0046
ENCODING 70
SWIDTH 800 0
DWIDTH 40 0
BBX 36 34 3 0
BITMAP
01FFF80000
0FFFF80000
1FFFF80000
3FFFF80000
7FFFF80000
7FFFF80000
FFFFF80000
FF80000000
FF00000000
FF00000000
FE00000000
FE00000000
FE00000000
FE00000000
FE00000000
FFFFFFFFF0
FFFFFFFFF0
FFFFFFFFF0
FFFFFFFFF0
FFFFFFFFF0
FFFFFFFFF0
FE00000000
FE00000000
FE00000000
FE00000000
FE00000000
FE00000000
FE00000000
FE00000000
FE00000000
FE00000000
FE00000000
FE00000000
FE00000000
ENDCHAR
STARTCHAR 0047
ENCODING 71
SWIDTH 900 0
DWIDTH 45 0
BBX 39 34 3 0
BITMAP
01FFFC0000
0FFFFC0000
1FFFFC0000
3FFFFC0000
7FFFFC0000
7FFFFC0000
FFFFFC0000
FF80000000
FF00000000
FF00000000
FE00000000
FE00000000
FE00000000
FE00000000
FE000000FE
FE000000FE
FE000000FE
FE000000FE
FE000000FE
FE000000FE
FE000000FE
FE000000FE
FE000000FE
FE000000FE
FE000001FE
FF000001FE
FF800003FE
FFFFFFFFFE
7FFFFFFFFC
7FFFFFFFFC
3FFFFFFFF8
1FFFFFFFF0
0FFFFFFFE0
01FFFFFF00
ENDCHAR
STARTCHAR 0048
ENCODING 72
SWIDTH 920 0
DWIDTH 46 0
BBX 40 34 3 0
BITMAP
FF0000007F
FF0000007F
FF0000007F
FF0000007F
FF0000007F
FF0000007F
FF0000007F
FF0000007F
FF0000007F
FF0000007F
FF0000007F
FF0000007F
FF0000007F
FF0000007F
FFFFFFFFFF
FFFFFFFFFF
FFFFFFFFFF
FFFFFFFFFF
FFFFFFFFFF
FFFFFFFFFF
FFFFFFFFFF
FF0000007F
FF0000007F
FF0000007F
FF0000007F
FF0000007F
FF0000007F
FF0000007F
FF0000007F
FF0000007F
FF0000007F
FF0000007F
FF0000007F
FF0000007F
ENDCHAR
STARTCHAR 0049
ENCODING 73
SWIDTH 280 0
DWIDTH 14 0
BBX 8 34 3 0
BITMAP
FF
FF
FF
FF
FF
FF
FF
FF
FF
FF
FF
FF
FF
FF
FF
FF
FF
FF
FF
FF
FF
FF
FF
FF
FF
FF
FF
FF
FF
FF
FF
FF
FF
FF
ENDCHAR
STARTCHAR 004A
ENCODING 74
SWIDTH 520 0
DWIDTH 26 0
BBX 22 34 1 0
BITMAP
0003FC
0003FC
0003FC
0003FC
0003FC
0003FC
0003FC
0003FC
0003FC
0003FC
0003FC
0003FC
0003FC
0003FC
0003FC
0003FC
0003FC
0003FC
0003FC
0003FC
0003FC
0003FC
0003FC
0003FC
0003FC
0003FC
0007F8
FFFFF8
FFFFF8
FFFFF0
FFFFF0
FFFFE0
FFFF80
FFFC00
ENDCHAR
STARTCHAR 004B
ENCODING 75
SWIDTH 800 0
DWIDTH 40 0
BBX 36 34 3 0
BITMAP
FF00003FF0
FF0000FFE0
FF0001FF80
FF0003FF00
FF0007FE00
FF000FFC00
FF001FF800
FF007FE000
FF00FFC000
FF01FF8000
FF03FF0000
FF07FE0000
FF0FFC0000
FF1FF00000
FF7FE00000
FFFFC00000
FFFF800000
FFFFC00000
FF7FE00000
FF3FF00000
FF1FF80000
FF0FFE0000
FF07FF0000
FF03FF8000
FF00FFC000
FF007FE000
FF003FF000
FF001FF800
FF000FFE00
FF0007FF00
FF0003FF80
FF0000FFC0
FF00007FE0
FF00003FF0
ENDCHAR
STARTCHAR 004C
ENCODING 76
SWIDTH 760 0
DWIDTH 38 0
BBX 34 34 3 0
BITMAP
FE00000000
FE00000000
FE00000000
FE00000000
FE00000000
FE00000000
FE00000000
FE00000000
FE00000000
FE00000000
FE00000000
FE00000000
FE00000000
FE00000000
FE00000000
FE00000000
FE00000000
FE00000000
FE00000000
FE00000000
FE00000000
FE00000000
FE00000000
FE00000000
FF00000000
FF00000000
FF80000000
FFFFFFFFC0
7FFFFFFFC0
7FFFFFFFC0
3FFFFFFFC0
1FFFFFFFC0
0FFFFFFFC0
01FFFFFFC0
ENDCHAR
STARTCHAR 004D
ENCODING 77
SWIDTH 1200 0
DWIDTH 60 0
BBX 54 36 3 -1
BITMAP
7C0000000001F0
FF0000000003F8
FF0000000003FC
FF8000000007FC
FFC00000000FFC
FFE00000001FFC
FFE00000001FFC
FFF00000003FFC
FFF80000007FFC
FFFC000000FFFC
FFFC000000FFFC
FFFE000001FFFC
FFFF000003FFFC
FEFF800007FDFC
FEFF800007F9FC
FE7FC0000FF9FC
FE3FE0001FF1FC
FE1FF0003FE1FC
FE1FF0007FC1FC
FE0FF8007FC1FC
FE07FC00FF81FC
FE03FE01FF01FC
FE03FE03FE01FC
FE01FF03FC01FC
FE00FF87FC01FC
FE007FCFF801FC
FE007FDFF001FC
FE003FFFE001FC
FE001FFFE001FC
FE000FFFC001FC
FE000FFF8001FC
FE0007FF0001FC
FE0003FF0001FC
FE0001FE0001FC
FE0000FC0001FC
00000078000000
ENDCHAR
STARTCHAR 004E
ENCODING 78
SWIDTH 920 0
DWIDTH 46 0
BBX 40 36 3 -1
BITMAP
7C00000000
FF0000007F
FF8000007F
FFC000007F
FFE000007F
FFF000007F
FFF800007F
FFFC00007F
FFFE00007F
FFFF00007F
FFFF80007F
FEFFC0007F
FE7FE0007F
FE3FF0007F
FE1FF8007F
FE0FFC007F
FE07FE007F
FE03FF007F
FE01FF807F
FE00FFC07F
FE007FE07F
FE003FF07F
FE001FF87F
FE0007FC7F
FE0003FE7F
FE0001FF7F
FE0000FFFF
FE00007FFF
FE00003FFF
FE00001FFF
FE00000FFF
FE000007FF
FE000003FF
FE000001FF
FE000000FE
000000003C
ENDCHAR
STARTCHAR 004F
ENCODING 79
SWIDTH 880 0
DWIDTH 44 0
BBX 39 34 3 0
BITMAP
01FFFFFE00
0FFFFFFFC0
1FFFFFFFF0
3FFFFFFFF8
7FFFFFFFF8
7FFFFFFFFC
FFFFFFFFFC
FF800003FC
FF000003FE
FE000001FE
FE000001FE
FE000001FE
FE000001FE
FE000001FE
FE000001FE
FE000001FE
FE000001FE
FE000001FE
FE000001FE
FE000001FE
FE000001FE
FE000001FE
FE000001FE
FE000001FE
FE000001FE
FF000001FE
FF000003FC
FFFFFFFFFC
7FFFFFFFFC
7FFFFFFFF8
3FFFFFFFF8
1FFFFFFFF0
0FFFFFFFC0
01FFFFFE00
ENDCHAR
STARTCHAR 0050
ENCODING 80
SWIDTH 900 0
DWIDTH 45 0
BBX 40 34 3 0
BITMAP
FFFFFFFF80
FFFFFFFFF0
FFFFFFFFF8
FFFFFFFFFC
FFFFFFFFFE
FFFFFFFFFE
FFFFFFFFFF
FF000001FF
FF000000FF
FF000000FF
FF000000FF
FF000000FF
FF000000FF
FF000000FF
FF000000FF
FF000000FF
FF000000FF
FF000001FF
FFFFFFFFFF
FFFFFFFFFE
FFFFFFFFFE
FFFFFFFFFC
FFFFFFFFF8
FFFFFFFFC0
FF00000000
FF00000000
FF00000000
FF00000000
FF00000000
FF00000000
FF00000000
FF00000000
FF00000000
FF00000000
ENDCHAR
STARTCHAR 0051
ENCODING 81
SWIDTH 880 0
DWIDTH 44 0
BBX 41 39 3 -5
BITMAP
01FFFFFE0000
0FFFFFFFC000
1FFFFFFFF000
3FFFFFFFF800
7FFFFFFFF800
FFFFFFFFFC00
FFFFFFFFFC00
FF800003FC00
FF000003FE00
FE000001FE00
FE000001FE00
FE000001FE00
FE000001FE00
FE000001FE00
FE000001FE00
FE000001FE00
FE000001FE00
FE000001FE00
FE000001FE00
FE000001FE00
FE000001FE00
FE000001FE00
FE000001FE00
FE000001FE00
FE000001FE00
FF000001FE00
FF000003FC00
FFE0000FFC00
FFFFFFFFFC00
7FFFFFFFF800
7FFFFFFFF800
3FFFFFFFF000
0FFFFFFFE000
01FFFFFFF000
0000001FF800
0000000FFC00
00000007FE00
00000003FF00
00000001FF80
ENDCHAR
STARTCHAR 0052
ENCODING 82
SWIDTH 900 0
DWIDTH 45 0
BBX 40 34 3 0
BITMAP
FFFFFFFF80
FFFFFFFFF0
FFFFFFFFF8
FFFFFFFFFC
FFFFFFFFFE
FFFFFFFFFE
FE00000FFF
FE000001FF
FE000000FF
FE000000FF
FE000000FF
FE000000FF
FE000000FF
FE000000FF
FE000000FF
FE000000FF
FE000003FF
FFFFFFFFFE
FFFFFFFFFE
FFFFFFFFFC
FFFFFFFFF8
FFFFFFFFE0
FEFFFFFC00
FE3FFC0000
FE0FFF0000
FE07FF8000
FE01FFE000
FE007FF800
FE003FFE00
FE000FFF80
FE0003FFC0
FE0001FFF0
FE00007FFC
FE00001FFF
ENDCHAR
STARTCHAR 0053
ENCODING 83
SWIDTH 800 0
DWIDTH 40 0
BBX 37 34 2 0
BITMAP
07FFF00000
1FFFF00000
3FFFF00000
7FFFF00000
7FFFF00000
FFFFF00000
FFC0000000
FF00000000
FE00000000
FE00000000
FE00000000
FE00000000
FE00000000
FF00000000
FFFFFFFE00
7FFFFFFFC0
7FFFFFFFE0
3FFFFFFFF0
1FFFFFFFF0
07FFFFFFF0
00000007F8
00000007F8
00000003F8
00000003F8
00000003F8
00000003F8
00000007F8
0000001FF0
FFFFFFFFF0
FFFFFFFFF0
FFFFFFFFF0
FFFFFFFFE0
FFFFFFFFC0
FFFFFFFE00
ENDCHAR
STARTCHAR 0054
ENCODING 84
SWIDTH 760 0
DWIDTH 38 0
BBX 36 34 1 0
BITMAP
FFFFFFFFF0
FFFFFFFFF0
FFFFFFFFF0
FFFFFFFFF0
FFFFFFFFF0
FFFFFFFFF0
FFFFFFFFF0
0003FC0000
0003FC0000
0003FC0000
0003FC0000
0003FC0000
0003FC0000
0003FC0000
0003FC0000
0003FC0000
0003FC0000
0003FC0000
0003FC0000
0003FC0000
0003FC0000
0003FC0000
0003FC0000
0003FC0000
0003FC0000
0003FC0000
0003FC0000
0003FC0000
0003FC0000
0003FC0000
0003FC0000
0003FC0000
0003FC0000
0003FC0000
ENDCHAR
STARTCHAR 0055
ENCODING 85
SWIDTH 880 0
DWIDTH 44 0
BBX 39 34 3 0
BITMAP
FE000001FE
FE000001FE
FE000001FE
FE000001FE
FE000001FE
FE000001FE
FE000001FE
FE000001FE
FE000001FE
FE000001FE
FE000001FE
FE000001FE
FE000001FE
FE000001FE
FE000001FE
FE000001FE
FE000001FE
FE000001FE
FE000001FE
FE000001FE
FE000001FE
FE000001FE
FE000001FE
FF000001FE
FF000001FE
FF000003FC
FF800003FC
FFFFFFFFFC
7FFFFFFFFC
7FFFFFFFF8
3FFFFFFFF8
1FFFFFFFF0
0FFFFFFFC0
01FFFFFF00
ENDCHAR
STARTCHAR 0056
ENCODING 86
SWIDTH 1020 0
DWIDTH 51 0
BBX 50 35 1 -1
BITMAP
FF80000000FFC0
FF80000000FF80
7FC0000001FF00
7FE0000001FF00
3FE0000003FE00
1FF0000007FC00
1FF8000007FC00
0FF800000FF800
07FC00000FF800
07FC00001FF000
03FE00003FE000
03FF00003FE000
01FF00007FC000
00FF80007F8000
00FF8000FF8000
007FC001FF0000
003FE001FF0000
003FE003FE0000
001FF003FC0000
001FF007FC0000
000FF80FF80000
0007FC0FF80000
0007FC1FF00000
0003FE1FE00000
0003FE3FE00000
0001FF7FC00000
0000FFFF800000
0000FFFF800000
00007FFF000000
00003FFF000000
00003FFE000000
00001FFC000000
00001FFC000000
00000FF8000000
000003E0000000
ENDCHAR
STARTCHAR 0057
ENCODING 87
SWIDTH 1340 0
DWIDTH 67 0
BBX 65 36 1 -1
BITMAP
00000003E000000000
FF000007F000007F80
FF80000FF800007F80
FF80000FF80000FF80
7F80001FFC0000FF00
7FC0001FFC0000FF00
3FC0001FFE0001FE00
3FE0003FFE0001FE00
1FE0003FFF0003FC00
1FE0007FFF0003FC00
1FF0007FFF0007F800
0FF000FF7F8007F800
0FF800FF7F8007F800
07F801FE3FC00FF000
07F801FE3FC00FF000
07FC03FC1FE01FE000
03FC03FC1FE01FE000
03FE03F80FE01FC000
01FE07F80FF03FC000
01FE07F007F03FC000
00FF0FF007F87F8000
00FF0FE007F87F8000
00FF9FE003FCFF0000
007F9FC003FCFF0000
007FBFC001FEFE0000
003FFFC001FFFE0000
003FFF8000FFFC0000
003FFF8000FFFC0000
001FFF00007FFC0000
001FFF00007FF80000
000FFE00007FF80000
000FFE00003FF00000
0007FC00003FF00000
0007FC00001FE00000
0003F800000FE00000
0001F0000007800000
ENDCHAR
STARTCHAR 0058
ENCODING 88
SWIDTH 1000 0
DWIDTH 50 0
BBX 49 34 1 0
BITMAP
7FF0000003FF00
3FF800000FFE00
1FFC00001FFC00
0FFE00003FF800
03FF00007FE000
01FF8000FFC000
00FFC001FF8000
007FF003FF0000
003FF807FE0000
001FFC1FFC0000
000FFE3FF80000
0007FF7FE00000
0001FFFFC00000
0000FFFF800000
00007FFF000000
00003FFE000000
00001FFC000000
00003FFE000000
00007FFF000000
0000FFFF800000
0003FFFFC00000
0007FE7FF00000
000FFC3FF80000
001FF81FFC0000
003FF00FFE0000
007FE007FF0000
00FFC003FF8000
01FF8001FFC000
03FF0000FFE000
0FFE00007FF000
1FFC00003FF800
3FF800001FFC00
7FF000000FFE00
FFE0000007FF80
ENDCHAR
STARTCHAR 0059
ENCODING 89
SWIDTH 960 0
DWIDTH 48 0
BBX 46 34 1 0
BITMAP
FFC0000007FC
7FE000001FF8
3FF000003FF0
1FF800007FE0
0FFE0000FFC0
07FF0001FF80
03FF8003FF00
00FFC007FE00
007FE01FF800
003FF03FF000
001FF87FE000
000FFCFFC000
0007FFFF8000
0003FFFF0000
0001FFFE0000
0000FFFC0000
00003FF80000
00001FE00000
00001FE00000
00001FE00000
00001FE00000
00001FE00000
00001FE00000
00001FE00000
00001FE00000
00001FE00000
00001FE00000
00001FE00000
00001FE00000
00001FE00000
00001FE00000
00001FE00000
00001FE00000
00001FE00000
ENDCHAR
STARTCHAR 005A
ENCODING 90
SWIDTH 840 0
DWIDTH 42 0
BBX 38 34 2 0
BITMAP
7FFFFFFFF0
7FFFFFFFF8
7FFFFFFFF8
7FFFFFFFF8
7FFFFFFFF8
7FFFFFFFF8
7FFFFFFFF0
0000007FE0
000001FFC0
000003FF80
000007FF00
00000FFC00
00001FF800
00003FF000
0000FFE000
0001FFC000
0003FF8000
0007FF0000
000FFC0000
001FF80000
007FF00000
00FFE00000
01FFC00000
03FF800000
07FF000000
0FFC000000
3FF8000000
7FFFFFFFFC
FFFFFFFFFC
FFFFFFFFFC
FFFFFFFFFC
FFFFFFFFFC
FFFFFFFFFC
7FFFFFFFFC
ENDCHAR
STARTCHAR 005B
ENCODING 91
SWIDTH 360 0
DWIDTH 18 0
BBX 12 54 5 -11
BITMAP
FFF0
FFF0
FFF0
FFF0
F800
F800
F800
F800
F800
F800
F800
F800
F800
F800
F800
F800
F800
F800
F800
F800
F800
F800
F800
F800
F800
F800
F800
F800
F800
F800
F800
F800
F800
F800
F800
F800
F800
F800
F800
F800
F800
F800
F800
F800
F800
F800
F800
F800
F800
F800
FFF0
FFF0
FFF0
FFF0
ENDCHAR
STARTCHAR 005C
ENCODING 92
SWIDTH 520 0
DWIDTH 26 0
BBX 25 41 0 -5
BITMAP
FC000000
7E000000
7E000000
3F000000
3F000000
1F800000
1F800000
0FC00000
0FC00000
07E00000
07E00000
03F00000
03F00000
03F00000
01F80000
01F80000
00FC0000
00FC0000
007E0000
007E0000
003F0000
003F0000
001F8000
001F8000
000FC000
000FC000
000FE000
0007E000
0007E000
0003F000
0003F000
0001F800
0001F800
0000FC00
0000FC00
00007E00
00007E00
00003F00
00003F00
00001F80
00001F80
ENDCHAR
STARTCHAR 005D
ENCODING 93
SWIDTH 360 0
DWIDTH 18 0
BBX 13 54 0 -11
BITMAP
FFF8
FFF8
FFF8
FFF8
00F8
00F8
00F8
00F8
00F8
00F8
00F8
00F8
00F8
00F8
00F8
00F8
00F8
00F8
00F8
00F8
00F8
00F8
00F8
00F8
00F8
00F8
00F8
00F8
00F8
00F8
00F8
00F8
00F8
00F8
00F8
00F8
00F8
00F8
00F8
00F8
00F8
00F8
00F8
00F8
00F8
00F8
00F8
00F8
00F8
00F8
FFF8
FFF8
FFF8
FFF8
ENDCHAR
STARTCHAR 005E
ENCODING 94
SWIDTH 620 0
DWIDTH 31 0
BBX 27 24 2 11
BITMAP
000E0000
001F0000
003F8000
003F8000
007FC000
007FC000
00FFE000
00FFE000
01FBF000
01F3F000
03F1F800
03E1F800
07E0FC00
07C0FC00
0FC07E00
0F807E00
1F803F00
1F803F00
3F001F80
3F001F80
7E000FC0
7E000FC0
FC0007E0
FC0007E0
ENDCHAR
STARTCHAR 005F
ENCODING 95
SWIDTH 680 0
DWIDTH 34 0
BBX 34 5 0 -7
BITMAP
FFFFFFFFC0
FFFFFFFFC0
FFFFFFFFC0
FFFFFFFFC0
FFFFFFFFC0
ENDCHAR
STARTCHAR 0060
ENCODING 96
SWIDTH 400 0
DWIDTH 20 0
BBX 14 11 3 31
BITMAP
FF00
7F80
3F80
3FC0
1FC0
0FE0
07E0
07F0
03F8
01F8
01FC
ENDCHAR
STARTCHAR 0061
ENCODING 97
SWIDTH 840 0
DWIDTH 42 0
BBX 37 27 2 0
BITMAP
00003FFC00
00003FFF80
00003FFFE0
00003FFFE0
00003FFFF0
0000001FF8
00000007F8
00000007F8
00000003F8
00000003F8
07FFFFFFF8
1FFFFFFFF8
3FFFFFFFF8
7FFFFFFFF8
7FFFFFFFF8
FF000003F8
FF000003F8
FF000003F8
FF000003F8
FF000007F8
FF000007F8
FF80000FF8
7FFFFFFFF0
7FFFFFFFF0
3FFFFFFFE0
1FFFFFFF80
07FFFFFE00
ENDCHAR
STARTCHAR 0062
ENCODING 98
SWIDTH 820 0
DWIDTH 41 0
BBX 35 36 3 0
BITMAP
FE00000000
FE00000000
FE00000000
FE00000000
FE00000000
FE00000000
FE00000000
FE00000000
FE00000000
FFFFFFF000
FFFFFFFE00
FFFFFFFF00
FFFFFFFF80
FFFFFFFFC0
FFFFFFFFC0
FE0001FFE0
FE00001FE0
FE00001FE0
FE00000FE0
FE00000FE0
FE00000FE0
FE00000FE0
FE00000FE0
FE00000FE0
FE00000FE0
FE00000FE0
FE00000FE0
FF00001FE0
FF00001FE0
FFE000FFE0
7FFFFFFFC0
7FFFFFFFC0
3FFFFFFF80
1FFFFFFF00
0FFFFFFE00
01FFFFF000
ENDCHAR
STARTCHAR 0063
ENCODING 99
SWIDTH 760 0
DWIDTH 38 0
BBX 32 27 3 0
BITMAP
01FFFFFF
0FFFFFFF
1FFFFFFF
3FFFFFFF
7FFFFFFF
7FFFFFFF
FFF00000
FF000000
FF000000
FE000000
FE000000
FE000000
FE000000
FE000000
FE000000
FE000000
FE000000
FE000000
FF000000
FF000000
FFE00000
7FFFFFFF
7FFFFFFF
3FFFFFFF
1FFFFFFF
0FFFFFFF
01FFFFFF
ENDCHAR
STARTCHAR 0064
ENCODING 100
SWIDTH 820 0
DWIDTH 41 0
BBX 35 36 3 0
BITMAP
0000000FE0
0000000FE0
0000000FE0
0000000FE0
0000000FE0
0000000FE0
0000000FE0
0000000FE0
0000000FE0
01FFFFFFE0
0FFFFFFFE0
1FFFFFFFE0
3FFFFFFFE0
7FFFFFFFE0
FFFFFFFFE0
FFF0000FE0
FF00000FE0
FF00000FE0
FE00000FE0
FE00000FE0
FE00000FE0
FE00000FE0
FE00000FE0
FE00000FE0
FE00000FE0
FE00000FE0
FE00000FE0
FF00001FE0
FF00001FE0
FFC000FFE0
FFFFFFFFC0
7FFFFFFFC0
3FFFFFFF80
3FFFFFFF00
0FFFFFFE00
01FFFFF000
ENDCHAR
STARTCHAR 0065
ENCODING 101
SWIDTH 800 0
DWIDTH 40 0
BBX 35 27 3 0
BITMAP
03FFFFFC00
1FFFFFFF00
3FFFFFFF80
7FFFFFFFC0
7FFFFFFFE0
FFFFFFFFE0
FF00001FE0
FE00000FE0
FE00000FE0
FE00000FE0
FE00000FE0
FFFFFFFFE0
FFFFFFFFE0
FFFFFFFFE0
FFFFFFFFE0
FFFFFFFFE0
FE00000000
FE00000000
FE00000000
FE00000000
FF00000000
FFFFF00000
7FFFF00000
7FFFF00000
3FFFF00000
0FFFF00000
01FFF00000
ENDCHAR
STARTCHAR 0066
ENCODING 102
SWIDTH 440 0
DWIDTH 22 0
BBX 17 36 3 0
BITMAP
0FFF80
3FFF80
7FFF80
7FFF80
FFFF80
FF8000
FF0000
FE0000
FE0000
FFFF80
FFFF80
FFFF80
FFFF80
FFFF80
FFFF80
FE0000
FE0000
FE0000
FE0000
FE0000
FE0000
FE0000
FE0000
FE0000
FE0000
FE0000
FE0000
FE0000
FE0000
FE0000
FE0000
FE0000
FE0000
FE0000
FE0000
FE0000
ENDCHAR
STARTCHAR 0067
ENCODING 103
SWIDTH 820 0
DWIDTH 41 0
BBX 35 35 3 -8
BITMAP
03FFFFF000
1FFFFFFE00
3FFFFFFF80
7FFFFFFF80
FFFFFFFFC0
FFFFFFFFC0
FFC0007FE0
FF00001FE0
FE00000FE0
FE00000FE0
FE00000FE0
FE00000FE0
FE00000FE0
FE00000FE0
FE00000FE0
FE00000FE0
FE00000FE0
FF00000FE0
FFFFFFFFE0
FFFFFFFFE0
7FFFFFFFE0
3FFFFFFFE0
1FFFFFFFE0
01FFFFFFE0
0000000FE0
0000000FE0
0000000FE0
0000000FE0
0000001FE0
0003FFFFE0
0003FFFFE0
0003FFFFC0
0003FFFF80
0003FFFF00
0003FFFC00
ENDCHAR
STARTCHAR 0068
ENCODING 104
SWIDTH 820 0
DWIDTH 41 0
BBX 36 36 3 0
BITMAP
FE00000000
FE00000000
FE00000000
FE00000000
FE00000000
FE00000000
FE00000000
FE00000000
FE00000000
FFFFFFF000
FFFFFFFE00
FFFFFFFF80
FFFFFFFFC0
FFFFFFFFC0
FFFFFFFFE0
FE0001FFE0
FE00001FE0
FE00000FE0
FE00000FE0
FE00000FF0
FE00000FF0
FE00000FF0
FE00000FF0
FE00000FF0
FE00000FF0
FE00000FF0
FE00000FF0
FE00000FF0
FE00000FF0
FE00000FF0
FE00000FF0
FE00000FF0
FE00000FF0
FE00000FF0
FE00000FF0
FE00000FF0
ENDCHAR
STARTCHAR 0069
ENCODING 105
SWIDTH 280 0
DWIDTH 14 0
BBX 8 36 3 0
BITMAP
7E
FE
FF
FF
FF
FF
FE
00
00
00
FF
FF
FF
FF
FF
FF
FF
FF
FF
FF
FF
FF
FF
FF
FF
FF
FF
FF
FF
FF
FF
FF
FF
FF
FF
FF
ENDCHAR
STARTCHAR 006A
ENCODING 106
SWIDTH 280 0
DWIDTH 14 0
BBX 14 44 -3 -8
BITMAP
01FC
01FC
01FC
01FC
01FC
01FC
01FC
0000
0000
0000
01FC
01FC
01FC
01FC
01FC
01FC
01FC
01FC
01FC
01FC
01FC
01FC
01FC
01FC
01FC
01FC
01FC
01FC
01FC
01FC
01FC
01FC
01FC
01FC
01FC
01FC
03FC
0FFC
FFFC
FFF8
FFF0
FFF0
FFC0
FF00
ENDCHAR
STARTCHAR 006B
ENCODING 107
SWIDTH 740 0
DWIDTH 37 0
BBX 33 36 3 0
BITMAP
FE00000000
FE00000000
FE00000000
FE00000000
FE00000000
FE00000000
FE00000000
FE00000000
FE00000000
FE0003FF00
FE0007FE00
FE000FF800
FE003FF000
FE007FE000
FE00FF8000
FE01FF0000
FE03FE0000
FE0FFC0000
FE1FF00000
FE3FE00000
FE7FC00000
FFFF000000
FFFF800000
FEFFC00000
FE7FE00000
FE3FF00000
FE0FFC0000
FE07FE0000
FE03FF0000
FE01FF8000
FE00FFE000
FE003FF000
FE001FF800
FE000FFC00
FE0007FE00
FE0001FF80
ENDCHAR
STARTCHAR 006C
ENCODING 108
SWIDTH 280 0
DWIDTH 14 0
BBX 8 36 3 0
BITMAP
FF
FF
FF
FF
FF
FF
FF
FF
FF
FF
FF
FF
FF
FF
FF
FF
FF
FF
FF
FF
FF
FF
FF
FF
FF
FF
FF
FF
FF
FF
FF
FF
FF
FF
FF
FF
ENDCHAR
STARTCHAR 006D
ENCODING 109
SWIDTH 1120 0
DWIDTH 56 0
BBX 50 27 3 0
BITMAP
07FFF007FFF000
1FFFFE1FFFFE00
3FFFFF3FFFFF00
7FFFFF7FFFFF80
7FFFFFFFFFFF80
FFFFFFFFFFFF80
FFC07FFF01FFC0
FF0007F8003FC0
FE0007F0003FC0
FE0007F0003FC0
FE0007F0001FC0
FE0007F0001FC0
FE0007F0001FC0
FE0007F0001FC0
FE0007F0001FC0
FE0007F0001FC0
FE0007F0001FC0
FE0007F0001FC0
FE0007F0001FC0
FE0007F0001FC0
FE0007F0001FC0
FE0007F0001FC0
FE0007F0001FC0
FE0007F0001FC0
FE0007F0001FC0
FE0007F0001FC0
FE0007F0001FC0
ENDCHAR
STARTCHAR 006E
ENCODING 110
SWIDTH 820 0
DWIDTH 41 0
BBX 35 27 3 0
BITMAP
01FFFFF000
0FFFFFFE00
1FFFFFFF00
3FFFFFFF80
7FFFFFFFC0
7FFFFFFFC0
FFF001FFC0
FF80003FE0
FF00001FE0
FE00001FE0
FE00001FE0
FE00001FE0
FE00001FE0
FE00001FE0
FE00001FE0
FE00001FE0
FE00001FE0
FE00001FE0
FE00001FE0
FE00001FE0
FE00001FE0
FE00001FE0
FE00001FE0
FE00001FE0
FE00001FE0
FE00001FE0
FE00001FE0
ENDCHAR
STARTCHAR 006F
ENCODING 111
SWIDTH 820 0
DWIDTH 41 0
BBX 35 27 3 0
BITMAP
01FFFFE000
0FFFFFFC00
1FFFFFFF00
3FFFFFFF80
7FFFFFFF80
7FFFFFFFC0
FFF003FFC0
FF00003FC0
FF00001FE0
FE00001FE0
FE00001FE0
FE00001FE0
FE00001FE0
FE00001FE0
FE00001FE0
FE00001FE0
FE00001FE0
FE00001FE0
FF00001FE0
FF00003FC0
FFE001FFC0
7FFFFFFFC0
7FFFFFFF80
3FFFFFFF80
1FFFFFFF00
0FFFFFFC00
01FFFFE000
ENDCHAR
STARTCHAR 0070
ENCODING 112
SWIDTH 820 0
DWIDTH 41 0
BBX 35 35 3 -8
BITMAP
01FFFFF000
0FFFFFFE00
1FFFFFFF00
3FFFFFFF80
7FFFFFFFC0
7FFFFFFFC0
FFE000FFE0
FF00001FE0
FF00001FE0
FE00000FE0
FE00000FE0
FE00000FE0
FE00000FE0
FE00000FE0
FE00000FE0
FE00000FE0
FE00000FE0
FE00000FE0
FE00001FE0
FE00001FE0
FE0000FFE0
FFFFFFFFC0
FFFFFFFFC0
FFFFFFFF80
FFFFFFFF00
FFFFFFFE00
FFFFFFF000
FE00000000
FE00000000
FE00000000
FE00000000
FE00000000
FE00000000
FE00000000
FE00000000
ENDCHAR
STARTCHAR 0071
ENCODING 113
SWIDTH 820 0
DWIDTH 41 0
BBX 35 35 3 -8
BITMAP
01FFFFF000
0FFFFFFE00
1FFFFFFF00
3FFFFFFF80
7FFFFFFFC0
FFFFFFFFC0
FFF000FFE0
FF00001FE0
FF00001FE0
FE00000FE0
FE00000FE0
FE00000FE0
FE00000FE0
FE00000FE0
FE00000FE0
FE00000FE0
FE00000FE0
FE00000FE0
FF00000FE0
FF00000FE0
FFE0000FE0
FFFFFFFFE0
7FFFFFFFE0
3FFFFFFFE0
3FFFFFFFE0
0FFFFFFFE0
01FFFFFFE0
0000000FE0
0000000FE0
0000000FE0
0000000FE0
0000000FE0
0000000FE0
0000000FE0
0000000FE0
ENDCHAR
STARTCHAR 0072
ENCODING 114
SWIDTH 440 0
DWIDTH 22 0
BBX 18 27 3 0
BITMAP
01FFC0
0FFFC0
1FFFC0
3FFFC0
7FFFC0
7FFFC0
7FC000
FF0000
FF0000
FE0000
FE0000
FE0000
FE0000
FE0000
FE0000
FE0000
FE0000
FE0000
FE0000
FE0000
FE0000
FE0000
FE0000
FE0000
FE0000
FE0000
FE0000
ENDCHAR
STARTCHAR 0073
ENCODING 115
SWIDTH 740 0
DWIDTH 37 0
BBX 33 27 2 0
BITMAP
0FFFC00000
3FFFC00000
7FFFC00000
7FFFC00000
7FFFC00000
FFFFC00000
FF00000000
FF00000000
FF00000000
FF00000000
FF00000000
7FFFFFF800
7FFFFFFE00
7FFFFFFF00
3FFFFFFF00
0FFFFFFF80
0000007F80
0000007F80
0000007F80
0000007F80
0000007F80
FFFFFFFF80
FFFFFFFF80
FFFFFFFF00
FFFFFFFF00
FFFFFFFE00
FFFFFFF800
ENDCHAR
STARTCHAR 0074
ENCODING 116
SWIDTH 420 0
DWIDTH 21 0
BBX 20 35 1 0
BITMAP
1FE000
1FE000
1FE000
1FE000
1FE000
1FE000
1FE000
1FE000
FFFFF0
FFFFF0
FFFFF0
FFFFF0
FFFFF0
FFFFF0
1FE000
1FE000
1FE000
1FE000
1FE000
1FE000
1FE000
1FE000
1FE000
1FE000
1FE000
1FE000
1FE000
1FE000
1FE000
1FE000
1FE000
1FE000
1FE000
1FE000
1FE000
ENDCHAR
STARTCHAR 0075
ENCODING 117
SWIDTH 820 0
DWIDTH 41 0
BBX 35 27 3 0
BITMAP
FE00001FE0
FE00001FE0
FE00001FE0
FE00001FE0
FE00001FE0
FE00001FE0
FE00001FE0
FE00001FE0
FE00001FE0
FE00001FE0
FE00001FE0
FE00001FE0
FE00001FE0
FE00001FE0
FE00001FE0
FE00001FE0
FE00001FE0
FE00001FE0
FF00001FE0
FF80003FC0
FFE001FFC0
7FFFFFFFC0
7FFFFFFF80
3FFFFFFF80
1FFFFFFF00
0FFFFFFC00
01FFFFF000
ENDCHAR
STARTCHAR 0076
ENCODING 118
SWIDTH 940 0
DWIDTH 47 0
BBX 45 28 1 -1
BITMAP
FF8000000FF8
FF8000000FF0
7FC000001FF0
3FE000003FE0
1FE000003FC0
1FF000007FC0
0FF80000FF80
07F80000FF00
07FC0001FE00
03FE0003FE00
01FF0003FC00
01FF0007F800
00FF800FF800
007FC01FF000
003FC01FE000
003FE03FE000
001FF07FC000
000FF07F8000
000FF8FF0000
0007FDFF0000
0003FDFE0000
0001FFFC0000
0001FFFC0000
0000FFF80000
00007FF00000
00007FF00000
00003FE00000
00000F800000
ENDCHAR
STARTCHAR 0077
ENCODING 119
SWIDTH 1100 0
DWIDTH 55 0
BBX 53 29 1 -1
BITMAP
00000078000000
FE0001FC0003F8
FF0001FE0003F8
7F0003FE0007F0
7F8003FF0007F0
7F8007FF000FF0
3F8007FF000FE0
3FC00FFF801FE0
1FC00FFF801FC0
1FE01FDFC03FC0
0FE01FDFC03F80
0FF01FCFE03F80
0FF03F8FE07F00
07F03F8FF07F00
07F87F07F0FF00
03F87F07F0FE00
03FCFE03F9FE00
01FCFE03F9FC00
01FFFC01FFFC00
01FFFC01FFF800
00FFF800FFF800
00FFF800FFF000
007FF000FFF000
007FF0007FF000
003FE0007FE000
003FE0003FE000
003FC0003FC000
001FC0001FC000
000F80000F0000
ENDCHAR
STARTCHAR 0078
ENCODING 120
SWIDTH 760 0
DWIDTH 38 0
BBX 36 27 1 0
BITMAP
7FC0001FF0
3FE0003FE0
1FF0007F80
0FF800FF00
07FC01FE00
03FE03FC00
01FF07F800
00FF0FF000
007F9FE000
003FFFC000
001FFF8000
000FFF0000
0007FE0000
0007FE0000
000FFF0000
001FFF8000
003FFFC000
007FFFE000
00FF9FF000
01FF0FF800
03FE07FC00
07FC03FE00
0FF801FF00
1FF000FF80
3FE0007FC0
7FC0007FE0
FF80003FF0
ENDCHAR
STARTCHAR 0079
ENCODING 121
SWIDTH 820 0
DWIDTH 41 0
BBX 35 35 3 -8
BITMAP
FE00000FE0
FE00000FE0
FE00000FE0
FE00000FE0
FE00000FE0
FE00000FE0
FE00000FE0
FE00000FE0
FE00000FE0
FE00000FE0
FE00000FE0
FE00000FE0
FE00000FE0
FE00000FE0
FE00000FE0
FE00000FE0
FF00000FE0
FF80000FE0
FFFFFFFFE0
7FFFFFFFE0
7FFFFFFFE0
3FFFFFFFE0
0FFFFFFFE0
03FFFFFFE0
0000000FE0
0000000FE0
0000000FE0
0000000FE0
0000001FE0
0001FFFFE0
0001FFFFE0
0001FFFFC0
0001FFFFC0
0001FFFF00
0001FFFC00
ENDCHAR
STARTCHAR 007A
ENCODING 122
SWIDTH 700 0
DWIDTH 35 0
BBX 31 27 2 0
BITMAP
FFFFFFF8
FFFFFFFC
FFFFFFFC
FFFFFFFC
FFFFFFFC
FFFFFFF8
00001FF0
00003FE0
00007FC0
0000FF00
0003FE00
0007FC00
000FF800
001FF000
003FE000
00FF8000
01FF0000
03FE0000
07FC0000
0FF80000
3FF00000
7FFFFFFE
FFFFFFFE
FFFFFFFE
FFFFFFFE
FFFFFFFE
7FFFFFFE
ENDCHAR
STARTCHAR 007B
ENCODING 123
SWIDTH 340 0
DWIDTH 17 0
BBX 15 54 1 -11
BITMAP
01FE
03FE
07FE
07FE
07C0
07C0
07C0
07C0
07C0
07C0
07C0
07C0
07C0
07C0
07C0
07C0
07C0
07C0
07C0
07C0
07C0
07C0
07C0
07C0
0FC0
FF80
FF80
FF00
FF80
FF80
0FC0
07C0
07C0
07C0
07C0
07C0
07C0
07C0
07C0
07C0
07C0
07C0
07C0
07C0
07C0
07C0
07C0
07C0
07C0
07C0
07FE
07FE
03FE
01FE
ENDCHAR
STARTCHAR 007C
ENCODING 124
SWIDTH 260 0
DWIDTH 13 0
BBX 5 54 4 -11
BITMAP
F8
F8
F8
F8
F8
F8
F8
F8
F8
F8
F8
F8
F8
F8
F8
F8
F8
F8
F8
F8
F8
F8
F8
F8
F8
F8
F8
F8
F8
F8
F8
F8
F8
F8
F8
F8
F8
F8
F8
F8
F8
F8
F8
F8
F8
F8
F8
F8
F8
F8
F8
F8
F8
F8
ENDCHAR
STARTCHAR 007D
ENCODING 125
SWIDTH 340 0
DWIDTH 17 0
BBX 15 54 1 -11
BITMAP
FE00
FF80
FF80
FF80
0FC0
07C0
07C0
07C0
07C0
07C0
07C0
07C0
07C0
07C0
07C0
07C0
07C0
07C0
07C0
07C0
07C0
07C0
07C0
07C0
07E0
07FC
03FE
01FE
03FE
07FC
07C0
07C0
07C0
07C0
07C0
07C0
07C0
07C0
07C0
07C0
07C0
07C0
07C0
07C0
07C0
07C0
07C0
07C0
07C0
0FC0
FF80
FF80
FF80
FE00
ENDCHAR
STARTCHAR 007E
ENCODING 126
SWIDTH 600 0
DWIDTH 30 0
BBX 24 8 3 14
BITMAP
0F0000
3FE003
FFFC1F
FFFFFF
FFFFFF
F87FFF
C00FFC
0001E0
ENDCHAR
STARTCHAR 00A0
ENCODING 160
SWIDTH 400 0
DWIDTH 20 0
BBX 0 0 0 0
BITMAP
ENDCHAR
STARTCHAR 00A1
ENCODING 161
SWIDTH 280 0
DWIDTH 14 0
BBX 8 34 3 0
BITMAP
7E
FF
FF
FF
FF
FF
7F
00
00
00
FF
FF
FF
FF
FF
FF
FF
FF
FF
FF
FF
FF
FF
FF
FF
FF
FF
FF
FF
FF
FF
FF
FF
FF
ENDCHAR
STARTCHAR 00A2
ENCODING 162
SWIDTH 740 0
DWIDTH 37 0
BBX 33 34 2 0
BITMAP
00007C0000
00007C0000
00007C0000
00007C0000
03FFFFFF80
0FFFFFFF80
1FFFFFFF80
3FFFFFFF80
7FFFFFFF80
7FFFFFFF80
7FC07C0000
7F807C0000
FF007C0000
FF007C0000
FF007C0000
FF007C0000
FF007C0000
FF007C0000
FF007C0000
FF007C0000
FF007C0000
FF007C0000
FF007C0000
7F807C0000
7FE07C0000
7FFFFFFF80
3FFFFFFF80
3FFFFFFF80
1FFFFFFF80
07FFFFFF80
01FFFFFF80
00007C0000
00007C0000
00007C0000
ENDCHAR
STARTCHAR 00A3
ENCODING 163
SWIDTH 840 0
DWIDTH 42 0
BBX 39 34 1 0
BITMAP
000FFFC000
007FFFC000
00FFFFC000
01FFFFC000
03FFFFC000
03FFFFC000
07FF800000
07FC000000
07F8000000
07F8000000
07F0000000
07F0000000
07F0000000
07F0000000
07FFFFFFFE
07FFFFFFFE
07FFFFFFFE
07FFFFFFFE
07FFFFFFFE
07FFFFFFFE
07F0000000
07F0000000
07F0000000
07F0000000
07F0000000
07F0000000
07F0000000
07F0000000
FFFFFFFFFE
FFFFFFFFFE
FFFFFFFFFE
FFFFFFFFFE
FFFFFFFFFE
FFFFFFFFFE
ENDCHAR
STARTCHAR 00A4
ENCODING 164
SWIDTH 720 0
DWIDTH 36 0
BBX 32 34 2 0
BITMAP
20000004
7000000E
F800001F
FC00003F
7E00007E
3F0000FC
1F0000F8
0F8001F0
07FFFFE0
03FFFFC0
01FFFF80
01FFFF80
01E00780
01E00780
01E00780
01E00780
01E00780
01E00780
01E00780
01E00780
01E00780
01E00780
01FFFF80
01FFFF80
03FFFFC0
07FFFFE0
0F8001F0
1F0000F8
3F0000FC
7E00007E
FC00003F
F800001F
7000000E
20000004
ENDCHAR
STARTCHAR 00A5
ENCODING 165
SWIDTH 880 0
DWIDTH 44 0
BBX 42 34 1 0
BITMAP
FF8000007FC0
7FC00000FF80
3FE00001FF00
1FF00003FE00
0FF80007FC00
07FC000FF800
03FE001FE000
01FF003FC000
00FF807F8000
007FC0FF0000
003FE1FE0000
001FF7FC0000
000FFFF80000
0003FFF00000
0001FFE00000
0000FFC00000
07FFFFFFF800
07FFFFFFF800
07FFFFFFF800
07FFFFFFF800
07FFFFFFF800
00007F000000
00007F000000
00007F000000
07FFFFFFF800
07FFFFFFF800
07FFFFFFF800
07FFFFFFF800
07FFFFFFF800
00007F000000
00007F000000
00007F000000
00007F000000
00007F000000
ENDCHAR
STARTCHAR 00A6
ENCODING 166
SWIDTH 260 0
DWIDTH 13 0
BBX 5 54 4 -11
BITMAP
F8
F8
F8
F8
F8
F8
F8
F8
F8
F8
F8
F8
F8
F8
F8
F8
F8
F8
F8
F8
F8
F8
F8
00
00
00
00
00
00
00
00
F8
F8
F8
F8
F8
F8
F8
F8
F8
F8
F8
F8
F8
F8
F8
F8
F8
F8
F8
F8
F8
F8
F8
ENDCHAR
STARTCHAR 00A7
ENCODING 167
SWIDTH 740 0
DWIDTH 37 0
BBX 31 45 2 -11
BITMAP
03FFFC00
1FFFFC00
3FFFFC00
7FFFFC00
7FFFFC00
FFFFFC00
FF000000
FE000000
FE000000
FC000000
FC000000
FC000000
FC000000
FFFFFC00
FFFFFFE0
FFFFFFF8
FFFFFFFC
FFFFFFFC
FFFFFFFE
FC0001FE
FC0000FE
FC0000FE
FC00007E
FE00007E
FE00007E
FF00007E
7FFFFFFE
7FFFFFFE
3FFFFFFE
3FFFFFFE
0FFFFFFE
007FFFFE
0000007E
0000007E
0000007E
0000007E
0000007E
000000FE
000000FE
FFFFFFFE
FFFFFFFC
FFFFFFFC
FFFFFFF8
FFFFFFF0
FFFFFF80
ENDCHAR
STARTCHAR 00A8
ENCODING 168
SWIDTH 520 0
DWIDTH 26 0
BBX 20 7 3 29
BITMAP
7E07E0
FE07F0
FE07F0
FE07F0
FE07F0
FE07F0
FE07F0
ENDCHAR
STARTCHAR 00A9
ENCODING 169
SWIDTH 860 0
DWIDTH 43 0
BBX 38 34 3 0
BITMAP
01FFFFFC00
0FFFFFFF80
3FFFFFFFE0
3FFFFFFFF0
7C000001F0
F800000078
F000000078
F000000038
E00FFFE03C
E01FFFE03C
E03FFFE03C
E03C00003C
E03800003C
E07800003C
E07800003C
E07800003C
E07800003C
E07800003C
E07800003C
E07800003C
E03800003C
E03C00003C
E03FFFE03C
E01FFFE03C
E00FFFE03C
E00000003C
F000000038
F000000078
F800000078
7C000001F0
3FFFFFFFF0
3FFFFFFFE0
0FFFFFFF80
01FFFFFC00
ENDCHAR
STARTCHAR 00AA
ENCODING 170
SWIDTH 520 0
DWIDTH 26 0
BBX 20 15 3 15
BITMAP
007F80
007FE0
007FF0
007FF0
0001F0
0001F0
3FFFF0
FFFFF0
FFFFF0
F801F0
F801F0
FC03F0
FFFFF0
FFFFE0
3FFF80
ENDCHAR
STARTCHAR 00AB
ENCODING 171
SWIDTH 580 0
DWIDTH 29 0
BBX 26 23 1 5
BITMAP
00100040
003000C0
00F001C0
01F003C0
03F00FC0
07F01FC0
1FF03FC0
3FE0FF80
7F81FF00
FF01FC00
FE03F800
F803F000
FE03F800
FF01FC00
7F81FF00
3FE0FF80
1FF03FC0
0FF01FC0
03F00FC0
01F003C0
00F001C0
003000C0
00100040
ENDCHAR
STARTCHAR 00AC
ENCODING 172
SWIDTH 580 0
DWIDTH 29 0
BBX 24 21 2 0
BITMAP
FFFFFF
FFFFFF
FFFFFF
FFFFFF
FFFFFF
00001F
00001F
00001F
00001F
00001F
00001F
00001F
00001F
00001F
00001F
00001F
00001F
00001F
00001F
00001F
00001F
ENDCHAR
STARTCHAR 00AE
ENCODING 174
SWIDTH 860 0
DWIDTH 43 0
BBX 38 34 3 0
BITMAP
01FFFFFC00
0FFFFFFF80
1FFFFFFFE0
3FFFFFFFF0
7E000001F0
78000000F8
F000000078
F000000038
F000000038
E03FFFC03C
E03FFFF03C
E03FFFF03C
E03800703C
E03800703C
E03800703C
E03800703C
E03800F03C
E03FFFF03C
E03FFFC03C
E03FF0003C
E039F8003C
E0387E003C
E0383F803C
E0380FC03C
E03803F03C
E00000003C
F000000038
F000000078
F800000078
7C000001F0
3FFFFFFFF0
3FFFFFFFE0
0FFFFFFF80
01FFFFFC00
ENDCHAR
STARTCHAR 00AF
ENCODING 175
SWIDTH 640 0
DWIDTH 32 0
BBX 26 5 3 33
BITMAP
FFFFFFC0
FFFFFFC0
FFFFFFC0
FFFFFFC0
FFFFFFC0
ENDCHAR
STARTCHAR 00B0
ENCODING 176
SWIDTH 460 0
DWIDTH 23 0
BBX 19 17 2 17
BITMAP
1FFE00
7FFF80
FFFFC0
FFFFC0
FC07E0
F803E0
F803E0
F803E0
F803E0
F803E0
F803E0
F803E0
F807E0
FFFFE0
FFFFC0
7FFF80
1FFF00
ENDCHAR
STARTCHAR 00B1
ENCODING 177
SWIDTH 600 0
DWIDTH 30 0
BBX 24 30 3 -1
BITMAP
007C00
007C00
007C00
007C00
007C00
007C00
007C00
007C00
007C00
FFFFFF
FFFFFF
FFFFFF
FFFFFF
FFFFFF
007C00
007C00
007C00
007C00
007C00
007C00
007C00
007C00
007C00
000000
000000
FFFFFF
FFFFFF
FFFFFF
FFFFFF
FFFFFF
ENDCHAR
STARTCHAR 00B2
ENCODING 178
SWIDTH 500 0
DWIDTH 25 0
BBX 21 17 2 18
BITMAP
007FC0
007FF0
007FF0
007FF8
0000F8
0000F8
07FFF8
7FFFF0
FFFFF0
FFFFE0
F00000
F00000
F00000
FFFFF8
FFFFF8
FFFFF8
FFFFF8
ENDCHAR
STARTCHAR 00B3
ENCODING 179
SWIDTH 480 0
DWIDTH 24 0
BBX 21 17 2 18
BITMAP
007FC0
007FE0
007FF0
007FF0
0000F0
0000F0
0000F0
FFFFF0
FFFFE0
FFFFF0
0001F0
0000F8
0000F8
FFFFF0
FFFFF0
FFFFF0
FFFFC0
ENDCHAR
STARTCHAR 00B4
ENCODING 180
SWIDTH 400 0
DWIDTH 20 0
BBX 14 11 3 31
BITMAP
03FC
07F8
07F0
0FF0
0FE0
1FC0
3F80
3F80
7F00
7E00
FC00
ENDCHAR
STARTCHAR 00B6
ENCODING 182
SWIDTH 880 0
DWIDTH 44 0
BBX 40 44 1 -8
BITMAP
03FFFFFFFF
1FFFFFFFFF
3FFFFFFFFF
3FFFFFFFFF
7FFFFFFFFF
7FFFFFFFFF
7F007F007F
FE007F007F
FE007F007F
FE007F007F
FE007F007F
FE007F007F
FE007F007F
FE007F007F
FE007F007F
FE007F007F
7F007F007F
7FFFFF007F
7FFFFF007F
3FFFFF007F
1FFFFF007F
07FFFF007F
00007F007F
00007F007F
00007F007F
00007F007F
00007F007F
00007F007F
00007F007F
00007F007F
00007F007F
00007F007F
00007F007F
00007F007F
00007F007F
00007F007F
00007F007F
00007F007F
00007F007F
00007F007F
00007F007F
00007F007F
00007F007F
00007F007F
ENDCHAR
STARTCHAR 00B7
ENCODING 183
SWIDTH 280 0
DWIDTH 14 0
BBX 8 9 3 12
BITMAP
3C
FE
FF
FF
FF
FF
FF
FE
7E
ENDCHAR
STARTCHAR 00B8
ENCODING 184
SWIDTH 280 0
DWIDTH 14 0
BBX 8 10 3 -11
BITMAP
7F
7E
7E
7E
7E
FC
FC
FC
FC
F8
ENDCHAR
STARTCHAR 00B9
ENCODING 185
SWIDTH 180 0
DWIDTH 9 0
BBX 5 17 2 18
BITMAP
F8
F8
F8
F8
F8
F8
F8
F8
F8
F8
F8
F8
F8
F8
F8
F8
F8
ENDCHAR
STARTCHAR 00BA
ENCODING 186
SWIDTH 520 0
DWIDTH 26 0
BBX 20 15 3 15
BITMAP
1FFF00
7FFFC0
7FFFE0
FFFFE0
FC07E0
F803F0
F801F0
F801F0
F801F0
F803F0
FE07E0
FFFFE0
7FFFE0
7FFFC0
1FFF00
ENDCHAR
STARTCHAR 00BB
ENCODING 187
SWIDTH 580 0
DWIDTH 29 0
BBX 26 23 1 5
BITMAP
80020000
C0030000
E003C000
F803E000
FC03F000
FE03FC00
FF83FE00
7FC1FF00
3FE07F80
0FE03FC0
07F00FC0
03F007C0
07F00FC0
0FE03FC0
3FE07F80
7FC0FF00
FF83FE00
FE03FC00
FC03F000
F803E000
E003C000
C0030000
80020000
ENDCHAR
STARTCHAR 00BC
ENCODING 188
SWIDTH 940 0
DWIDTH 47 0
BBX 41 36 3 -1
BITMAP
3E0000000000
3E0001F80000
3E0001F00000
3E0003F00000
3E0007E00000
3E000FC00000
3E000FC00000
3E001F800000
3E003F000000
3E003E000000
3E007E000000
3E00FC000000
3E00F8000000
3E01F8000000
3E03F0000000
3E07E0000000
3E07E0000000
3E0FC0000000
001F8F000F80
001F0F000F80
003F0F000F80
007E0F000F80
00FC0F000F80
00FC0F000F80
01F80F000F80
03F00F000F80
03E00F000F80
07E00FFFFF80
0FC00FFFFF80
0F800FFFFF80
1F800FFFFF80
3F0000000F80
7E0000000F80
7E0000000F80
FC0000000F80
000000000F80
ENDCHAR
STARTCHAR 00BD
ENCODING 189
SWIDTH 840 0
DWIDTH 42 0
BBX 36 36 3 -1
BITMAP
3E00000000
3E0001F800
3E0001F000
3E0003F000
3E0007E000
3E000FC000
3E000FC000
3E001F8000
3E003F0000
3E003E0000
3E007E0000
3E00FC0000
3E00F80000
3E01F80000
3E03F00000
3E07E00000
3E07E00000
3E0FC00000
001F800000
001F007FC0
003F007FF0
007E007FF0
00FC007FF0
00FC0000F0
01F80000F0
03F007FFF0
03E07FFFF0
07E0FFFFF0
0FC0FFFFE0
0F80F00000
1F80F00000
3F00F00000
7E00FFFFF0
7E00FFFFF0
FC00FFFFF0
0000FFFFF0
ENDCHAR
STARTCHAR 00BE
ENCODING 190
SWIDTH 1120 0
DWIDTH 56 0
BBX 50 36 3 -1
BITMAP
007FC000000000
007FE0007E0000
007FF000FC0000
007FF001F80000
0000F001F00000
0000F003F00000
0001F007E00000
FFFFF007C00000
FFFFE00FC00000
FFFFF01F800000
0001F03F000000
0000F03F000000
0000F07E000000
FFFFF0FC000000
FFFFF0F8000000
FFFFF1F8000000
FFFFC3F0000000
000007E0000000
000007E78007C0
00000FC78007C0
00001F878007C0
00001F078007C0
00003F078007C0
00007E078007C0
00007C078007C0
0000FC078007C0
0001F8078007C0
0003F007FFFFC0
0003F007FFFFC0
0007E007FFFFC0
000FC007FFFFC0
000F80000007C0
001F80000007C0
003F00000007C0
007E00000007C0
000000000007C0
ENDCHAR
STARTCHAR 00BF
ENCODING 191
SWIDTH 600 0
DWIDTH 30 0
BBX 26 34 1 0
BITMAP
00001FC0
00001FC0
00001FC0
00001FC0
00001FC0
00001FC0
00001FC0
00000000
00000000
00000000
00001FC0
00001FC0
00001FC0
00003FC0
07FFFFC0
1FFFFFC0
3FFFFF80
7FFFFF80
7FFFFE00
7FFFC000
7F000000
7F000000
FE000000
FE000000
FE000000
FF000000
7F000000
7FC00000
7FFFC000
7FFFC000
3FFFC000
3FFFC000
0FFFC000
03FFC000
ENDCHAR
STARTCHAR 00C0
ENCODING 192
SWIDTH 1040 0
DWIDTH 52 0
BBX 50 49 1 0
BITMAP
0000FE00000000
0000FF00000000
00007F80000000
00003F80000000
00001FC0000000
00001FC0000000
00000FE0000000
000007E0000000
000007F0000000
000003F8000000
000001F8000000
00000000000000
00000000000000
00000000000000
000003F0000000
000007F8000000
00000FFC000000
00001FFE000000
00003FFE000000
00003FFF000000
00007FFF800000
00007FFF800000
0000FF7FC00000
0001FF3FC00000
0001FE3FE00000
0003FC1FF00000
0007FC0FF00000
0007F80FF80000
000FF807FC0000
000FF003FC0000
001FE003FE0000
003FE001FE0000
003FC001FF0000
007FC000FF8000
00FF80007F8000
00FFFFFFFFC000
01FFFFFFFFE000
01FFFFFFFFE000
03FFFFFFFFF000
07FFFFFFFFF000
07FFFFFFFFF800
0FF8000007FC00
1FF0000003FC00
1FE0000003FE00
3FE0000001FF00
3FC0000001FF00
7FC0000000FF80
FF800000007F80
FF000000007FC0
ENDCHAR
STARTCHAR 00C1
ENCODING 193
SWIDTH 1040 0
DWIDTH 52 0
BBX 50 49 1 0
BITMAP
0000003FC00000
0000003F800000
0000007F800000
0000007F000000
000000FE000000
000001FC000000
000001FC000000
000003F8000000
000003F0000000
000007F0000000
000007E0000000
00000000000000
00000000000000
00000000000000
000003F0000000
000007F8000000
00000FFC000000
00001FFE000000
00003FFE000000
00003FFF000000
00007FFF800000
00007FFF800000
0000FF7FC00000
0001FF3FC00000
0001FE3FE00000
0003FC1FF00000
0007FC0FF00000
0007F80FF80000
000FF807FC0000
000FF003FC0000
001FE003FE0000
003FE001FE0000
003FC001FF0000
007FC000FF8000
00FF80007F8000
00FFFFFFFFC000
01FFFFFFFFE000
01FFFFFFFFE000
03FFFFFFFFF000
07FFFFFFFFF000
07FFFFFFFFF800
0FF8000007FC00
1FF0000003FC00
1FE0000003FE00
3FE0000001FF00
3FC0000001FF00
7FC0000000FF80
FF800000007F80
FF000000007FC0
ENDCHAR
STARTCHAR 00C2
ENCODING 194
SWIDTH 1040 0
DWIDTH 52 0
BBX 50 49 1 0
BITMAP
000003E0000000
000007F8000000
00000FFC000000
00001FFC000000
00001FFE000000
00003FFF000000
00007F7F800000
0000FE3FC00000
0001FE1FC00000
0001FC0FE00000
0003F80FF00000
0007F007F80000
000FF003F80000
00000000000000
000003F0000000
000007F8000000
00000FFC000000
00001FFE000000
00003FFE000000
00003FFF000000
00007FFF800000
00007FFF800000
0000FF7FC00000
0001FF3FC00000
0001FE3FE00000
0003FC1FF00000
0007FC0FF00000
0007F80FF80000
000FF807FC0000
000FF003FC0000
001FE003FE0000
003FE001FE0000
003FC001FF0000
007FC000FF8000
00FF80007F8000
00FFFFFFFFC000
01FFFFFFFFE000
01FFFFFFFFE000
03FFFFFFFFF000
07FFFFFFFFF000
07FFFFFFFFF800
0FF8000007FC00
1FF0000003FC00
1FE0000003FE00
3FE0000001FF00
3FC0000001FF00
7FC0000000FF80
FF800000007F80
FF000000007FC0
ENDCHAR
STARTCHAR 00C3
ENCODING 195
SWIDTH 1040 0
DWIDTH 52 0
BBX 50 45 1 0
BITMAP
000FFFFFFC0000
000FFFFFFC0000
000FFFFFFC0000
000FFFFFFC0000
000FFFFFFC0000
00000000000000
00000000000000
00000000000000
00000000000000
00000000000000
000003F0000000
000007F8000000
00000FFC000000
00001FFE000000
00003FFE000000
00003FFF000000
00007FFF800000
00007FFF800000
0000FF7FC00000
0001FF3FC00000
0001FE3FE00000
0003FC1FF00000
0007FC0FF00000
0007F80FF80000
000FF807FC0000
000FF003FC0000
001FE003FE0000
003FE001FE0000
003FC001FF0000
007FC000FF8000
00FF80007F8000
00FFFFFFFFC000
01FFFFFFFFE000
01FFFFFFFFE000
03FFFFFFFFF000
07FFFFFFFFF000
07FFFFFFFFF800
0FF8000007FC00
1FF0000003FC00
1FE0000003FE00
3FE0000001FF00
3FC0000001FF00
7FC0000000FF80
FF800000007F80
FF000000007FC0
ENDCHAR
STARTCHAR 00C4
ENCODING 196
SWIDTH 1040 0
DWIDTH 52 0
BBX 50 43 1 0
BITMAP
0001FC0FE00000
0001FC0FE00000
0001FC0FE00000
0001FC0FE00000
0001FC0FE00000
0001FC0FE00000
0001F80FC00000
00000000000000
000003F0000000
000007F8000000
00000FFC000000
00001FFE000000
00003FFE000000
00003FFF000000
00007FFF800000
00007FFF800000
0000FF7FC00000
0001FF3FC00000
0001FE3FE00000
0003FC1FF00000
0007FC0FF00000
0007F80FF80000
000FF807FC0000
000FF003FC0000
001FE003FE0000
003FE001FE0000
003FC001FF0000
007FC000FF8000
00FF80007F8000
00FFFFFFFFC000
01FFFFFFFFE000
01FFFFFFFFE000
03FFFFFFFFF000
07FFFFFFFFF000
07FFFFFFFFF800
0FF8000007FC00
1FF0000003FC00
1FE0000003FE00
3FE0000001FF00
3FC0000001FF00
7FC0000000FF80
FF800000007F80
FF000000007FC0
ENDCHAR
STARTCHAR 00C5
ENCODING 197
SWIDTH 1040 0
DWIDTH 52 0
BBX 50 49 1 0
BITMAP
00003FFE000000
00007FFF800000
00007FFF800000
0000F007800000
0000F003800000
0000F003800000
0000F003800000
0000F003800000
0000F003800000
0000F007800000
00007FFF800000
00007FFF800000
00001FFE000000
00000000000000
000003F0000000
000007F8000000
00000FFC000000
00001FFE000000
00003FFE000000
00003FFF000000
00007FFF800000
00007FFF800000
0000FF7FC00000
0001FF3FC00000
0001FE3FE00000
0003FC1FF00000
0007FC0FF00000
0007F80FF80000
000FF807FC0000
000FF003FC0000
001FE003FE0000
003FE001FE0000
003FC001FF0000
007FC000FF8000
00FF80007F8000
00FFFFFFFFC000
01FFFFFFFFE000
01FFFFFFFFE000
03FFFFFFFFF000
07FFFFFFFFF000
07FFFFFFFFF800
0FF8000007FC00
1FF0000003FC00
1FE0000003FE00
3FE0000001FF00
3FC0000001FF00
7FC0000000FF80
FF800000007F80
FF000000007FC0
ENDCHAR
STARTCHAR 00C6
ENCODING 198
SWIDTH 1340 0
DWIDTH 67 0
BBX 65 34 1 0
BITMAP
000003FFFFFFC00000
00000FFFFFFFC00000
00001FFFFFFFC00000
00001FFFFFFFC00000
00003FFFFFFFC00000
00007FFFFFFFC00000
00007FFFF000000000
0000FF87F000000000
0000FF07F000000000
0001FF07F000000000
0003FE07F000000000
0003FC07F000000000
0007FC07F000000000
000FF807F000000000
000FF807FFFFFFFF00
001FF007FFFFFFFF00
003FE007FFFFFFFF00
003FE007FFFFFFFF00
007FC007FFFFFFFF00
007FC007FFFFFFFF00
00FF8007F000000000
01FFFFFFF000000000
01FFFFFFF000000000
03FFFFFFF000000000
07FFFFFFF000000000
07FFFFFFF000000000
0FFFFFFFF800000000
1FF80007FE00000000
1FF00007FFFFFFFF80
3FF00003FFFFFFFF80
3FE00003FFFFFFFF80
7FC00001FFFFFFFF80
FFC00000FFFFFFFF80
FF8000001FFFFFFF80
ENDCHAR
STARTCHAR 00C7
ENCODING 199
SWIDTH 820 0
DWIDTH 41 0
BBX 36 45 3 -11
BITMAP
01FFFFFFF0
0FFFFFFFF0
1FFFFFFFF0
3FFFFFFFF0
7FFFFFFFF0
7FFFFFFFF0
FFFFFFFFF0
FF80000000
FF00000000
FE00000000
FE00000000
FE00000000
FE00000000
FE00000000
FE00000000
FE00000000
FE00000000
FE00000000
FE00000000
FE00000000
FE00000000
FE00000000
FE00000000
FE00000000
FE00000000
FF00000000
FF80000000
FFFFFFFFF0
7FFFFFFFF0
7FFFFFFFF0
3FFFFFFFF0
1FFFFFFFF0
0FFFFFFFF0
01FFFFFFF0
0000000000
0000FC0000
0000FC0000
0000FC0000
0001FC0000
0001F80000
0001F80000
0001F80000
0001F80000
0001F00000
0001F00000
ENDCHAR
STARTCHAR 00C8
ENCODING 200
SWIDTH 820 0
DWIDTH 41 0
BBX 37 48 3 0
BITMAP
007F000000
007F800000
003FC00000
001FC00000
000FE00000
000FE00000
0007F00000
0003F80000
0001F80000
0000FC0000
0000000000
0000000000
0000000000
0000000000
01FFF80000
0FFFF80000
1FFFF80000
3FFFF80000
7FFFF80000
7FFFF80000
FFF0000000
FF00000000
FF00000000
FE00000000
FE00000000
FE00000000
FE00000000
FE00000000
FFFFFFFFF0
FFFFFFFFF0
FFFFFFFFF0
FFFFFFFFF0
FFFFFFFFF0
FFFFFFFFF0
FE00000000
FE00000000
FE00000000
FE00000000
FE00000000
FF00000000
FF00000000
FFF0000000
7FFFFFFFF8
7FFFFFFFF8
3FFFFFFFF8
1FFFFFFFF8
0FFFFFFFF8
01FFFFFFF8
ENDCHAR
STARTCHAR 00C9
ENCODING 201
SWIDTH 820 0
DWIDTH 41 0
BBX 37 48 3 0
BITMAP
00001FE000
00003FC000
00003F8000
00007F0000
00007F0000
0000FE0000
0001FC0000
0001F80000
0003F80000
0007F00000
0000000000
0000000000
0000000000
0000000000
01FFF80000
0FFFF80000
1FFFF80000
3FFFF80000
7FFFF80000
7FFFF80000
FFF0000000
FF00000000
FF00000000
FE00000000
FE00000000
FE00000000
FE00000000
FE00000000
FFFFFFFFF0
FFFFFFFFF0
FFFFFFFFF0
FFFFFFFFF0
FFFFFFFFF0
FFFFFFFFF0
FE00000000
FE00000000
FE00000000
FE00000000
FE00000000
FF00000000
FF00000000
FFF0000000
7FFFFFFFF8
7FFFFFFFF8
3FFFFFFFF8
1FFFFFFFF8
0FFFFFFFF8
01FFFFFFF8
ENDCHAR
STARTCHAR 00CA
ENCODING 202
SWIDTH 820 0
DWIDTH 41 0
BBX 37 49 3 0
BITMAP
00007C0000
0001FE0000
0003FF0000
0003FF8000
0007FFC000
000FFFC000
001FCFE000
001FC7F000
003F87F800
007F03F800
00FE01FC00
01FE00FE00
01FC00FF00
0000000000
0000000000
01FFF80000
0FFFF80000
1FFFF80000
3FFFF80000
7FFFF80000
7FFFF80000
FFF0000000
FF00000000
FF00000000
FE00000000
FE00000000
FE00000000
FE00000000
FE00000000
FFFFFFFFF0
FFFFFFFFF0
FFFFFFFFF0
FFFFFFFFF0
FFFFFFFFF0
FFFFFFFFF0
FE00000000
FE00000000
FE00000000
FE00000000
FE00000000
FF00000000
FF00000000
FFF0000000
7FFFFFFFF8
7FFFFFFFF8
3FFFFFFFF8
1FFFFFFFF8
0FFFFFFFF8
01FFFFFFF8
ENDCHAR
STARTCHAR 00CB
ENCODING 203
SWIDTH 820 0
DWIDTH 41 0
BBX 37 43 3 0
BITMAP
003F01F800
007F03F800
007F83F800
007F83F800
007F83F800
007F03F800
007F03F800
0000000000
0000000000
01FFF80000
0FFFF80000
1FFFF80000
3FFFF80000
7FFFF80000
7FFFF80000
FFF0000000
FF00000000
FF00000000
FE00000000
FE00000000
FE00000000
FE00000000
FE00000000
FFFFFFFFF0
FFFFFFFFF0
FFFFFFFFF0
FFFFFFFFF0
FFFFFFFFF0
FFFFFFFFF0
FE00000000
FE00000000
FE00000000
FE00000000
FE00000000
FF00000000
FF00000000
FFF0000000
7FFFFFFFF8
7FFFFFFFF8
3FFFFFFFF8
1FFFFFFFF8
0FFFFFFFF8
01FFFFFFF8
ENDCHAR
STARTCHAR 00CC
ENCODING 204
SWIDTH 280 0
DWIDTH 14 0
BBX 13 48 -2 0
BITMAP
FE00
FF00
7F80
3F80
1FC0
0FE0
0FE0
07F0
03F0
01F8
0000
0000
0000
0000
07F8
07F8
07F8
07F8
07F8
07F8
07F8
07F8
07F8
07F8
07F8
07F8
07F8
07F8
07F8
07F8
07F8
07F8
07F8
07F8
07F8
07F8
07F8
07F8
07F8
07F8
07F8
07F8
07F8
07F8
07F8
07F8
07F8
07F8
ENDCHAR
STARTCHAR 00CD
ENCODING 205
SWIDTH 280 0
DWIDTH 14 0
BBX 13 48 3 0
BITMAP
07F8
07F0
0FE0
1FE0
1FC0
3F80
7F00
7E00
FE00
FC00
0000
0000
0000
0000
FF00
FF00
FF00
FF00
FF00
FF00
FF00
FF00
FF00
FF00
FF00
FF00
FF00
FF00
FF00
FF00
FF00
FF00
FF00
FF00
FF00
FF00
FF00
FF00
FF00
FF00
FF00
FF00
FF00
FF00
FF00
FF00
FF00
FF00
ENDCHAR
STARTCHAR 00CE
ENCODING 206
SWIDTH 280 0
DWIDTH 14 0
BBX 25 49 -6 0
BITMAP
003E0000
007F8000
00FFC000
01FFC000
03FFE000
03FFF000
07F7F800
0FE3F800
1FE1FC00
1FC0FE00
3F80FF00
7F007F80
FF003F80
00000000
00000000
007F8000
007F8000
007F8000
007F8000
007F8000
007F8000
007F8000
007F8000
007F8000
007F8000
007F8000
007F8000
007F8000
007F8000
007F8000
007F8000
007F8000
007F8000
007F8000
007F8000
007F8000
007F8000
007F8000
007F8000
007F8000
007F8000
007F8000
007F8000
007F8000
007F8000
007F8000
007F8000
007F8000
007F8000
ENDCHAR
STARTCHAR 00CF
ENCODING 207
SWIDTH 280 0
DWIDTH 14 0
BBX 20 43 -3 0
BITMAP
FC07E0
FE07F0
FE07F0
FE07F0
FE07F0
FE07F0
FE07F0
000000
000000
03FC00
03FC00
03FC00
03FC00
03FC00
03FC00
03FC00
03FC00
03FC00
03FC00
03FC00
03FC00
03FC00
03FC00
03FC00
03FC00
03FC00
03FC00
03FC00
03FC00
03FC00
03FC00
03FC00
03FC00
03FC00
03FC00
03FC00
03FC00
03FC00
03FC00
03FC00
03FC00
03FC00
03FC00
ENDCHAR
STARTCHAR 00D0
ENCODING 208
SWIDTH 940 0
DWIDTH 47 0
BBX 44 34 0 0
BITMAP
0FFFFFFFF800
0FFFFFFFFF00
0FFFFFFFFF80
0FFFFFFFFFC0
0FFFFFFFFFE0
0FFFFFFFFFE0
0FF00000FFF0
0FF000001FF0
0FF000000FF0
0FF000000FF0
0FF0000007F0
0FF0000007F0
0FF0000007F0
0FF0000007F0
FFFFFFC007F0
FFFFFFC007F0
FFFFFFC007F0
FFFFFFC007F0
FFFFFFC007F0
FFFFFFC007F0
0FF0000007F0
0FF0000007F0
0FF0000007F0
0FF0000007F0
0FF0000007F0
0FF000000FF0
0FF000001FF0
0FF000007FF0
0FFFFFFFFFE0
0FFFFFFFFFE0
0FFFFFFFFFC0
0FFFFFFFFFC0
0FFFFFFFFF00
0FFFFFFFF800
ENDCHAR
STARTCHAR 00D1
ENCODING 209
SWIDTH 920 0
DWIDTH 46 0
BBX 40 46 3 -1
BITMAP
01FFFFFF80
01FFFFFF80
01FFFFFF80
01FFFFFF80
01FFFFFF80
0000000000
0000000000
0000000000
0000000000
0000000000
7C00000000
FF0000007F
FF8000007F
FFC000007F
FFE000007F
FFF000007F
FFF800007F
FFFC00007F
FFFE00007F
FFFF00007F
FFFF80007F
FEFFC0007F
FE7FE0007F
FE3FF0007F
FE1FF8007F
FE0FFC007F
FE07FE007F
FE03FF007F
FE01FF807F
FE00FFC07F
FE007FE07F
FE003FF07F
FE001FF87F
FE0007FC7F
FE0003FE7F
FE0001FF7F
FE0000FFFF
FE00007FFF
FE00003FFF
FE00001FFF
FE00000FFF
FE000007FF
FE000003FF
FE000001FF
FE000000FE
000000003C
ENDCHAR
STARTCHAR 00D2
ENCODING 210
SWIDTH 880 0
DWIDTH 44 0
BBX 39 48 3 0
BITMAP
003FC00000
001FC00000
000FE00000
000FF00000
0007F00000
0003F80000
0001FC0000
0000FC0000
0000FE0000
00007E0000
0000000000
0000000000
0000000000
0000000000
01FFFFFE00
0FFFFFFFC0
1FFFFFFFF0
3FFFFFFFF8
7FFFFFFFF8
7FFFFFFFFC
FFFFFFFFFC
FF800003FC
FF000003FE
FE000001FE
FE000001FE
FE000001FE
FE000001FE
FE000001FE
FE000001FE
FE000001FE
FE000001FE
FE000001FE
FE000001FE
FE000001FE
FE000001FE
FE000001FE
FE000001FE
FE000001FE
FE000001FE
FF000001FE
FF000003FC
FFFFFFFFFC
7FFFFFFFFC
7FFFFFFFF8
3FFFFFFFF8
1FFFFFFFF0
0FFFFFFFC0
01FFFFFE00
ENDCHAR
STARTCHAR 00D3
ENCODING 211
SWIDTH 880 0
DWIDTH 44 0
BBX 39 48 3 0
BITMAP
000007F000
00000FF000
00001FE000
00001FC000
00003F8000
00007F0000
00007F0000
0000FE0000
0000FC0000
0001F80000
0000000000
0000000000
0000000000
0000000000
01FFFFFE00
0FFFFFFFC0
1FFFFFFFF0
3FFFFFFFF8
7FFFFFFFF8
7FFFFFFFFC
FFFFFFFFFC
FF800003FC
FF000003FE
FE000001FE
FE000001FE
FE000001FE
FE000001FE
FE000001FE
FE000001FE
FE000001FE
FE000001FE
FE000001FE
FE000001FE
FE000001FE
FE000001FE
FE000001FE
FE000001FE
FE000001FE
FE000001FE
FF000001FE
FF000003FC
FFFFFFFFFC
7FFFFFFFFC
7FFFFFFFF8
3FFFFFFFF8
1FFFFFFFF0
0FFFFFFFC0
01FFFFFE00
ENDCHAR
STARTCHAR 00D4
ENCODING 212
SWIDTH 880 0
DWIDTH 44 0
BBX 39 49 3 0
BITMAP
00007C0000
0001FE0000
0003FF0000
0003FF8000
0007FF8000
000FFFC000
001FCFE000
001FCFF000
003F87F800
007F03F800
00FE01FC00
01FE00FE00
01FC00FF00
0000000000
0000000000
01FFFFFE00
0FFFFFFFC0
1FFFFFFFF0
3FFFFFFFF8
7FFFFFFFF8
7FFFFFFFFC
FFFFFFFFFC
FF800003FC
FF000003FE
FE000001FE
FE000001FE
FE000001FE
FE000001FE
FE000001FE
FE000001FE
FE000001FE
FE000001FE
FE000001FE
FE000001FE
FE000001FE
FE000001FE
FE000001FE
FE000001FE
FE000001FE
FE000001FE
FF000001FE
FF000003FC
FFFFFFFFFC
7FFFFFFFFC
7FFFFFFFF8
3FFFFFFFF8
1FFFFFFFF0
0FFFFFFFC0
01FFFFFE00
ENDCHAR
STARTCHAR 00D5
ENCODING 213
SWIDTH 880 0
DWIDTH 44 0
BBX 39 45 3 0
BITMAP
03FFFFFF00
03FFFFFF00
03FFFFFF00
03FFFFFF00
03FFFFFF00
0000000000
0000000000
0000000000
0000000000
0000000000
0000000000
01FFFFFE00
0FFFFFFFC0
1FFFFFFFF0
3FFFFFFFF8
7FFFFFFFF8
7FFFFFFFFC
FFFFFFFFFC
FF800003FC
FF000003FE
FE000001FE
FE000001FE
FE000001FE
FE000001FE
FE000001FE
FE000001FE
FE000001FE
FE000001FE
FE000001FE
FE000001FE
FE000001FE
FE000001FE
FE000001FE
FE000001FE
FE000001FE
FE000001FE
FF000001FE
FF000003FC
FFFFFFFFFC
7FFFFFFFFC
7FFFFFFFF8
3FFFFFFFF8
1FFFFFFFF0
0FFFFFFFC0
01FFFFFE00
ENDCHAR
STARTCHAR 00D6
ENCODING 214
SWIDTH 880 0
DWIDTH 44 0
BBX 39 43 3 0
BITMAP
003F01F800
007F03F800
007F83F800
007F83F800
007F83F800
007F03F800
007F03F800
0000000000
0000000000
01FFFFFE00
0FFFFFFFC0
1FFFFFFFF0
3FFFFFFFF8
7FFFFFFFF8
7FFFFFFFFC
FFFFFFFFFC
FF800003FC
FF000003FE
FE000001FE
FE000001FE
FE000001FE
FE000001FE
FE000001FE
FE000001FE
FE000001FE
FE000001FE
FE000001FE
FE000001FE
FE000001FE
FE000001FE
FE000001FE
FE000001FE
FE000001FE
FE000001FE
FF000001FE
FF000003FC
FFFFFFFFFC
7FFFFFFFFC
7FFFFFFFF8
3FFFFFFFF8
1FFFFFFFF0
0FFFFFFFC0
01FFFFFE00
ENDCHAR
STARTCHAR 00D7
ENCODING 215
SWIDTH 600 0
DWIDTH 30 0
BBX 20 20 5 8
BITMAP
100080
3801C0
7C03E0
FE07F0
7F0FE0
3F9FC0
1FFF80
0FFF00
07FE00
03FC00
03FC00
07FE00
0FFF00
1FFF80
3F9FC0
7F0FE0
FE07F0
7C03E0
3801C0
100080
ENDCHAR
STARTCHAR 00D8
ENCODING 216
SWIDTH 880 0
DWIDTH 44 0
BBX 39 44 3 -5
BITMAP
00000001FC
00000003FC
00000007F8
00000007F0
0000000FF0
01FFFFFFE0
0FFFFFFFC0
1FFFFFFFF0
3FFFFFFFF8
7FFFFFFFF8
7FFFFFFFFC
FFFFFFFFFC
FF8003FFFC
FF0003FBFE
FE0007F1FE
FE000FF1FE
FE001FE1FE
FE001FC1FE
FE003FC1FE
FE007F81FE
FE00FF01FE
FE00FE01FE
FE01FE01FE
FE03FC01FE
FE03F801FE
FE07F001FE
FE0FF001FE
FE1FE001FE
FE1FC001FE
FE3FC001FE
FF7F8001FE
FFFF0003FC
FFFFFFFFFC
FFFFFFFFFC
7FFFFFFFF8
3FFFFFFFF8
3FFFFFFFF0
0FFFFFFFC0
1FFFFFFE00
1FC0000000
3FC0000000
7F80000000
7F00000000
FF00000000
ENDCHAR
STARTCHAR 00D9
ENCODING 217
SWIDTH 880 0
DWIDTH 44 0
BBX 39 48 3 0
BITMAP
003FC00000
001FC00000
000FE00000
000FF00000
0007F00000
0003F80000
0001FC0000
0000FC0000
0000FE0000
00007E0000
0000000000
0000000000
0000000000
0000000000
FE000001FE
FE000001FE
FE000001FE
FE000001FE
FE000001FE
FE000001FE
FE000001FE
FE000001FE
FE000001FE
FE000001FE
FE000001FE
FE000001FE
FE000001FE
FE000001FE
FE000001FE
FE000001FE
FE000001FE
FE000001FE
FE000001FE
FE000001FE
FE000001FE
FE000001FE
FE000001FE
FF000001FE
FF000001FE
FF000003FC
FF800003FC
FFFFFFFFFC
7FFFFFFFFC
7FFFFFFFF8
3FFFFFFFF8
1FFFFFFFF0
0FFFFFFFC0
01FFFFFF00
ENDCHAR
STARTCHAR 00DA
ENCODING 218
SWIDTH 880 0
DWIDTH 44 0
BBX 39 48 3 0
BITMAP
000007F000
00000FF000
00001FE000
00001FC000
00003F8000
00007F0000
00007F0000
0000FE0000
0000FC0000
0001F80000
0000000000
0000000000
0000000000
0000000000
FE000001FE
FE000001FE
FE000001FE
FE000001FE
FE000001FE
FE000001FE
FE000001FE
FE000001FE
FE000001FE
FE000001FE
FE000001FE
FE000001FE
FE000001FE
FE000001FE
FE000001FE
FE000001FE
FE000001FE
FE000001FE
FE000001FE
FE000001FE
FE000001FE
FE000001FE
FE000001FE
FF000001FE
FF000001FE
FF000003FC
FF800003FC
FFFFFFFFFC
7FFFFFFFFC
7FFFFFFFF8
3FFFFFFFF8
1FFFFFFFF0
0FFFFFFFC0
01FFFFFF00
ENDCHAR
STARTCHAR 00DB
ENCODING 219
SWIDTH 880 0
DWIDTH 44 0
BBX 39 49 3 0
BITMAP
00007C0000
0001FE0000
0003FF0000
0003FF8000
0007FF8000
000FFFC000
001FCFE000
001FCFF000
003F87F800
007F03F800
00FE01FC00
01FE00FE00
01FC00FF00
0000000000
0000000000
FE000001FE
FE000001FE
FE000001FE
FE000001FE
FE000001FE
FE000001FE
FE000001FE
FE000001FE
FE000001FE
FE000001FE
FE000001FE
FE000001FE
FE000001FE
FE000001FE
FE000001FE
FE000001FE
FE000001FE
FE000001FE
FE000001FE
FE000001FE
FE000001FE
FE000001FE
FE000001FE
FF000001FE
FF000001FE
FF000003FC
FF800003FC
FFFFFFFFFC
7FFFFFFFFC
7FFFFFFFF8
3FFFFFFFF8
1FFFFFFFF0
0FFFFFFFC0
01FFFFFF00
ENDCHAR
STARTCHAR 00DC
ENCODING 220
SWIDTH 880 0
DWIDTH 44 0
BBX 39 43 3 0
BITMAP
003F01F800
007F03F800
007F83F800
007F83F800
007F83F800
007F03F800
007F03F800
0000000000
0000000000
FE000001FE
FE000001FE
FE000001FE
FE000001FE
FE000001FE
FE000001FE
FE000001FE
FE000001FE
FE000001FE
FE000001FE
FE000001FE
FE000001FE
FE000001FE
FE000001FE
FE000001FE
FE000001FE
FE000001FE
FE000001FE
FE000001FE
FE000001FE
FE000001FE
FE000001FE
FE000001FE
FF000001FE
FF000001FE
FF000003FC
FF800003FC
FFFFFFFFFC
7FFFFFFFFC
7FFFFFFFF8
3FFFFFFFF8
1FFFFFFFF0
0FFFFFFFC0
01FFFFFF00
ENDCHAR
STARTCHAR 00DD
ENCODING 221
SWIDTH 960 0
DWIDTH 48 0
BBX 46 48 1 0
BITMAP
000000FF0000
000000FE0000
000001FE0000
000001FC0000
000003F80000
000007F00000
000007E00000
00000FE00000
00001FC00000
00001F800000
000000000000
000000000000
000000000000
000000000000
FFC0000007FC
7FE000001FF8
3FF000003FF0
1FF800007FE0
0FFE0000FFC0
07FF0001FF80
03FF8003FF00
00FFC007FE00
007FE01FF800
003FF03FF000
001FF87FE000
000FFCFFC000
0007FFFF8000
0003FFFF0000
0001FFFE0000
0000FFFC0000
00003FF80000
00001FE00000
00001FE00000
00001FE00000
00001FE00000
00001FE00000
00001FE00000
00001FE00000
00001FE00000
00001FE00000
00001FE00000
00001FE00000
00001FE00000
00001FE00000
00001FE00000
00001FE00000
00001FE00000
00001FE00000
ENDCHAR
STARTCHAR 00DE
ENCODING 222
SWIDTH 900 0
DWIDTH 45 0
BBX 40 34 3 0
BITMAP
FF00000000
FF00000000
FF00000000
FF00000000
FF00000000
FFFFFFFF80
FFFFFFFFF0
FFFFFFFFFC
FFFFFFFFFE
FFFFFFFFFE
FFFFFFFFFE
FF000003FF
FF000000FF
FF000000FF
FF000000FF
FF000000FF
FF000000FF
FF000000FF
FF000000FF
FF000000FF
FF000000FF
FF000000FF
FF000001FF
FFFFFFFFFE
FFFFFFFFFE
FFFFFFFFFE
FFFFFFFFFC
FFFFFFFFF8
FFFFFFFFC0
FF00000000
FF00000000
FF00000000
FF00000000
FF00000000
ENDCHAR
STARTCHAR 00DF
ENCODING 223
SWIDTH 940 0
DWIDTH 47 0
BBX 42 36 3 0
BITMAP
0FFFF8000000
3FFFFE000000
7FFFFF000000
7FFFFF000000
FFFFFF800000
FFFFFF800000
FF003F800000
FE003F800000
FE003F800000
FE003F800000
FE003F800000
FE003F800000
FE003F800000
FE003FFFF800
FE003FFFFE00
FE003FFFFF80
FE001FFFFF80
FE000FFFFFC0
FE000000FFC0
FE0000003FC0
FE0000001FC0
FE0000001FC0
FE0000001FC0
FE0000001FC0
FE0000001FC0
FE0000001FC0
FE0000001FC0
FE0000001FC0
FE0000003FC0
FE000001FFC0
FE03FFFFFFC0
FE03FFFFFF80
FE03FFFFFF00
FE03FFFFFF00
FE03FFFFFC00
FE03FFFFE000
ENDCHAR
STARTCHAR 00E0
ENCODING 224
SWIDTH 840 0
DWIDTH 42 0
BBX 37 42 2 0
BITMAP
001FE00000
000FF00000
0007F00000
0007F80000
0003F80000
0001FC0000
0000FC0000
0000FE0000
00007F0000
00003F0000
00003F8000
0000000000
0000000000
0000000000
0000000000
00003FFC00
00003FFF80
00003FFFE0
00003FFFE0
00003FFFF0
0000001FF8
00000007F8
00000007F8
00000003F8
00000003F8
07FFFFFFF8
1FFFFFFFF8
3FFFFFFFF8
7FFFFFFFF8
7FFFFFFFF8
FF000003F8
FF000003F8
FF000003F8
FF000003F8
FF000007F8
FF000007F8
FF80000FF8
7FFFFFFFF0
7FFFFFFFF0
3FFFFFFFE0
1FFFFFFF80
07FFFFFE00
ENDCHAR
STARTCHAR 00E1
ENCODING 225
SWIDTH 840 0
DWIDTH 42 0
BBX 37 42 2 0
BITMAP
000003FC00
000007F800
000007F000
00000FE000
00000FE000
00001FC000
00003F8000
00003F8000
00007F0000
00007E0000
0000FC0000
0000000000
0000000000
0000000000
0000000000
00003FFC00
00003FFF80
00003FFFE0
00003FFFE0
00003FFFF0
0000001FF8
00000007F8
00000007F8
00000003F8
00000003F8
07FFFFFFF8
1FFFFFFFF8
3FFFFFFFF8
7FFFFFFFF8
7FFFFFFFF8
FF000003F8
FF000003F8
FF000003F8
FF000003F8
FF000007F8
FF000007F8
FF80000FF8
7FFFFFFFF0
7FFFFFFFF0
3FFFFFFFE0
1FFFFFFF80
07FFFFFE00
ENDCHAR
STARTCHAR 00E2
ENCODING 226
SWIDTH 840 0
DWIDTH 42 0
BBX 37 42 2 0
BITMAP
00003E0000
0000FF0000
0000FF8000
0001FFC000
0003FFE000
0007FFF000
0007F7F000
000FE3F800
001FC1FC00
003F81FE00
007F80FE00
007F007F00
00FE003F80
0000000000
0000000000
00003FFC00
00003FFF80
00003FFFE0
00003FFFE0
00003FFFF0
0000001FF8
00000007F8
00000007F8
00000003F8
00000003F8
07FFFFFFF8
1FFFFFFFF8
3FFFFFFFF8
7FFFFFFFF8
7FFFFFFFF8
FF000003F8
FF000003F8
FF000003F8
FF000003F8
FF000007F8
FF000007F8
FF80000FF8
7FFFFFFFF0
7FFFFFFFF0
3FFFFFFFE0
1FFFFFFF80
07FFFFFE00
ENDCHAR
STARTCHAR 00E3
ENCODING 227
SWIDTH 840 0
DWIDTH 42 0
BBX 37 38 2 0
BITMAP
01FFFFFFC0
01FFFFFFC0
01FFFFFFC0
01FFFFFFC0
01FFFFFFC0
0000000000
0000000000
0000000000
0000000000
0000000000
0000000000
00003FFC00
00003FFF80
00003FFFE0
00003FFFE0
00003FFFF0
0000001FF8
00000007F8
00000007F8
00000003F8
00000003F8
07FFFFFFF8
1FFFFFFFF8
3FFFFFFFF8
7FFFFFFFF8
7FFFFFFFF8
FF000003F8
FF000003F8
FF000003F8
FF000003F8
FF000007F8
FF000007F8
FF80000FF8
7FFFFFFFF0
7FFFFFFFF0
3FFFFFFFE0
1FFFFFFF80
07FFFFFE00
ENDCHAR
STARTCHAR 00E4
ENCODING 228
SWIDTH 840 0
DWIDTH 42 0
BBX 37 36 2 0
BITMAP
001F80FC00
003FC1FC00
003FC1FE00
003FC1FE00
003FC1FE00
003FC1FE00
001F81FC00
0000000000
0000000000
00003FFC00
00003FFF80
00003FFFE0
00003FFFE0
00003FFFF0
0000001FF8
00000007F8
00000007F8
00000003F8
00000003F8
07FFFFFFF8
1FFFFFFFF8
3FFFFFFFF8
7FFFFFFFF8
7FFFFFFFF8
FF000003F8
FF000003F8
FF000003F8
FF000003F8
FF000007F8
FF000007F8
FF80000FF8
7FFFFFFFF0
7FFFFFFFF0
3FFFFFFFE0
1FFFFFFF80
07FFFFFE00
ENDCHAR
STARTCHAR 00E5
ENCODING 229
SWIDTH 840 0
DWIDTH 42 0
BBX 37 42 2 0
BITMAP
0003FFC000
0007FFF000
000FFFF800
000F00F800
000F007800
000E007800
000E007800
000E007800
000E007800
000E007800
000F00F800
000FFFF800
0007FFF000
0003FFC000
0000000000
00003FFC00
00003FFF80
00003FFFE0
00003FFFE0
00003FFFF0
0000001FF8
00000007F8
00000007F8
00000003F8
00000003F8
07FFFFFFF8
1FFFFFFFF8
3FFFFFFFF8
7FFFFFFFF8
7FFFFFFFF8
FF000003F8
FF000003F8
FF000003F8
FF000003F8
FF000007F8
FF000007F8
FF80000FF8
7FFFFFFFF0
7FFFFFFFF0
3FFFFFFFE0
1FFFFFFF80
07FFFFFE00
ENDCHAR
STARTCHAR 00E6
ENCODING 230
SWIDTH 1380 0
DWIDTH 69 0
BBX 64 27 2 0
BITMAP
00003FFC0FFFFFE0
00003FFF7FFFFFF8
00003FFFFFFFFFFC
00003FFFFFFFFFFE
00003FFFFFFFFFFF
0000001FFFFFFFFF
0000000FFC0000FF
00000007F800007F
00000007F800007F
00000007F800007F
07FFFFFFF800007F
1FFFFFFFFFFFFFFF
3FFFFFFFFFFFFFFF
7FFFFFFFFFFFFFFF
7FFFFFFFFFFFFFFF
FF000007FFFFFFFF
FF000007F8000000
FF000007F8000000
FF000007F8000000
FF000007F8000000
FF00000FF8000000
FF80001FFFFFC000
7FFFFFFFFFFFC000
7FFFFFFFFFFFC000
3FFFFFFFFFFFC000
1FFFFFFFFFFFC000
07FFFFFC0FFFC000
ENDCHAR
STARTCHAR 00E7
ENCODING 231
SWIDTH 760 0
DWIDTH 38 0
BBX 32 38 3 -11
BITMAP
01FFFFFF
0FFFFFFF
1FFFFFFF
3FFFFFFF
7FFFFFFF
7FFFFFFF
FFF00000
FF000000
FF000000
FE000000
FE000000
FE000000
FE000000
FE000000
FE000000
FE000000
FE000000
FE000000
FF000000
FF000000
FFE00000
7FFFFFFF
7FFFFFFF
3FFFFFFF
1FFFFFFF
0FFFFFFF
01FFFFFF
00000000
0003F000
0007F000
0007F000
0007E000
0007E000
0007E000
0007E000
0007C000
0007C000
0007C000
ENDCHAR
STARTCHAR 00E8
ENCODING 232
SWIDTH 800 0
DWIDTH 40 0
BBX 35 42 3 0
BITMAP
00FF000000
007F000000
007F800000
003F800000
001FC00000
000FE00000
000FE00000
0007F00000
0003F00000
0003F80000
0001F80000
0000000000
0000000000
0000000000
0000000000
03FFFFFC00
1FFFFFFF00
3FFFFFFF80
7FFFFFFFC0
7FFFFFFFE0
FFFFFFFFE0
FF00001FE0
FE00000FE0
FE00000FE0
FE00000FE0
FE00000FE0
FFFFFFFFE0
FFFFFFFFE0
FFFFFFFFE0
FFFFFFFFE0
FFFFFFFFE0
FE00000000
FE00000000
FE00000000
FE00000000
FF00000000
FFFFF00000
7FFFF00000
7FFFF00000
3FFFF00000
0FFFF00000
01FFF00000
ENDCHAR
STARTCHAR 00E9
ENCODING 233
SWIDTH 800 0
DWIDTH 40 0
BBX 35 42 3 0
BITMAP
00001FC000
00003FC000
00007F8000
00007F0000
0000FF0000
0000FE0000
0001FC0000
0001F80000
0003F80000
0007F00000
0007E00000
0000000000
0000000000
0000000000
0000000000
03FFFFFC00
1FFFFFFF00
3FFFFFFF80
7FFFFFFFC0
7FFFFFFFE0
FFFFFFFFE0
FF00001FE0
FE00000FE0
FE00000FE0
FE00000FE0
FE00000FE0
FFFFFFFFE0
FFFFFFFFE0
FFFFFFFFE0
FFFFFFFFE0
FFFFFFFFE0
FE00000000
FE00000000
FE00000000
FE00000000
FF00000000
FFFFF00000
7FFFF00000
7FFFF00000
3FFFF00000
0FFFF00000
01FFF00000
ENDCHAR
STARTCHAR 00EA
ENCODING 234
SWIDTH 800 0
DWIDTH 40 0
BBX 35 42 3 0
BITMAP
0001F00000
0007F80000
000FFC0000
000FFE0000
001FFF0000
003FFF0000
007F3F8000
007F1FC000
00FE1FE000
01FC0FE000
03F807F000
07F803F800
07F003FC00
0000000000
0000000000
03FFFFFC00
1FFFFFFF00
3FFFFFFF80
7FFFFFFFC0
7FFFFFFFE0
FFFFFFFFE0
FF00001FE0
FE00000FE0
FE00000FE0
FE00000FE0
FE00000FE0
FFFFFFFFE0
FFFFFFFFE0
FFFFFFFFE0
FFFFFFFFE0
FFFFFFFFE0
FE00000000
FE00000000
FE00000000
FE00000000
FF00000000
FFFFF00000
7FFFF00000
7FFFF00000
3FFFF00000
0FFFF00000
01FFF00000
ENDCHAR
STARTCHAR 00EB
ENCODING 235
SWIDTH 800 0
DWIDTH 40 0
BBX 35 36 3 0
BITMAP
00FC07E000
01FC0FE000
01FE0FE000
01FE0FE000
01FE0FE000
01FC0FE000
01FC0FE000
0000000000
0000000000
03FFFFFC00
1FFFFFFF00
3FFFFFFF80
7FFFFFFFC0
7FFFFFFFE0
FFFFFFFFE0
FF00001FE0
FE00000FE0
FE00000FE0
FE00000FE0
FE00000FE0
FFFFFFFFE0
FFFFFFFFE0
FFFFFFFFE0
FFFFFFFFE0
FFFFFFFFE0
FE00000000
FE00000000
FE00000000
FE00000000
FF00000000
FFFFF00000
7FFFF00000
7FFFF00000
3FFFF00000
0FFFF00000
01FFF00000
ENDCHAR
STARTCHAR 00EC
ENCODING 236
SWIDTH 280 0
DWIDTH 14 0
BBX 13 42 -2 0
BITMAP
FE00
FF00
7F00
3F80
3FC0
1FC0
0FE0
07E0
07F0
03F0
01F8
0000
0000
0000
0000
0000
07F8
07F8
07F8
07F8
07F8
07F8
07F8
07F8
07F8
07F8
07F8
07F8
07F8
07F8
07F8
07F8
07F8
07F8
07F8
07F8
07F8
07F8
07F8
07F8
07F8
07F8
ENDCHAR
STARTCHAR 00ED
ENCODING 237
SWIDTH 280 0
DWIDTH 14 0
BBX 14 42 2 0
BITMAP
03FC
03F8
07F0
0FF0
0FE0
1FC0
1FC0
3F80
3F00
7E00
FE00
0000
0000
0000
0000
0000
7F80
7F80
7F80
7F80
7F80
7F80
7F80
7F80
7F80
7F80
7F80
7F80
7F80
7F80
7F80
7F80
7F80
7F80
7F80
7F80
7F80
7F80
7F80
7F80
7F80
7F80
ENDCHAR
STARTCHAR 00EE
ENCODING 238
SWIDTH 420 0
DWIDTH 21 0
BBX 25 42 -2 0
BITMAP
003E0000
00FF0000
00FF8000
01FFC000
03FFE000
07FFE000
0FF7F000
0FE3F800
1FC3FC00
3F81FC00
7F80FE00
7F007F00
FE007F80
00000000
00000000
00000000
00FF0000
00FF0000
00FF0000
00FF0000
00FF0000
00FF0000
00FF0000
00FF0000
00FF0000
00FF0000
00FF0000
00FF0000
00FF0000
00FF0000
00FF0000
00FF0000
00FF0000
00FF0000
00FF0000
00FF0000
00FF0000
00FF0000
00FF0000
00FF0000
00FF0000
00FF0000
ENDCHAR
STARTCHAR 00EF
ENCODING 239
SWIDTH 320 0
DWIDTH 16 0
BBX 20 36 -2 0
BITMAP
FC07E0
FE07F0
FE07F0
FE07F0
FE07F0
FE07F0
FE07F0
000000
000000
000000
03FC00
03FC00
03FC00
03FC00
03FC00
03FC00
03FC00
03FC00
03FC00
03FC00
03FC00
03FC00
03FC00
03FC00
03FC00
03FC00
03FC00
03FC00
03FC00
03FC00
03FC00
03FC00
03FC00
03FC00
03FC00
03FC00
ENDCHAR
STARTCHAR 00F0
ENCODING 240
SWIDTH 820 0
DWIDTH 41 0
BBX 40 40 3 0
BITMAP
000000007F
00000000FF
00000001FE
00000003FC
007FFFFFF8
007FFFFFF0
007FFFFFF0
007FFFFFE0
007FFFFFE0
007FFFFFE0
0000000FE0
0000000FE0
0000000FE0
0000000FE0
0000000FE0
0000000FE0
01FFFFFFE0
0FFFFFFFE0
1FFFFFFFE0
3FFFFFFFE0
7FFFFFFFE0
FFFFFFFFE0
FF80000FE0
FF00000FE0
FF00000FE0
FE00000FE0
FE00000FE0
FE00000FE0
FE00000FE0
FE00000FE0
FE00000FE0
FF00001FE0
FF00001FE0
FFC0007FE0
7FFFFFFFC0
7FFFFFFFC0
3FFFFFFF80
3FFFFFFF00
0FFFFFFE00
01FFFFF000
ENDCHAR
STARTCHAR 00F1
ENCODING 241
SWIDTH 820 0
DWIDTH 41 0
BBX 35 38 3 0
BITMAP
0FFFFFFE00
0FFFFFFE00
0FFFFFFE00
0FFFFFFE00
0FFFFFFE00
0000000000
0000000000
0000000000
0000000000
0000000000
0000000000
01FFFFF000
0FFFFFFE00
1FFFFFFF00
3FFFFFFF80
7FFFFFFFC0
7FFFFFFFC0
FFF001FFC0
FF80003FE0
FF00001FE0
FE00001FE0
FE00001FE0
FE00001FE0
FE00001FE0
FE00001FE0
FE00001FE0
FE00001FE0
FE00001FE0
FE00001FE0
FE00001FE0
FE00001FE0
FE00001FE0
FE00001FE0
FE00001FE0
FE00001FE0
FE00001FE0
FE00001FE0
FE00001FE0
ENDCHAR
STARTCHAR 00F2
ENCODING 242
SWIDTH 820 0
DWIDTH 41 0
BBX 35 42 3 0
BITMAP
00FF000000
007F000000
007F800000
003FC00000
001FC00000
000FE00000
000FE00000
0007F00000
0003F00000
0001F80000
0001FC0000
0000000000
0000000000
0000000000
0000000000
01FFFFE000
0FFFFFFC00
1FFFFFFF00
3FFFFFFF80
7FFFFFFF80
7FFFFFFFC0
FFF003FFC0
FF00003FC0
FF00001FE0
FE00001FE0
FE00001FE0
FE00001FE0
FE00001FE0
FE00001FE0
FE00001FE0
FE00001FE0
FE00001FE0
FE00001FE0
FF00001FE0
FF00003FC0
FFE001FFC0
7FFFFFFFC0
7FFFFFFF80
3FFFFFFF80
1FFFFFFF00
0FFFFFFC00
01FFFFE000
ENDCHAR
STARTCHAR 00F3
ENCODING 243
SWIDTH 820 0
DWIDTH 41 0
BBX 35 42 3 0
BITMAP
00001FC000
00003FC000
00003F8000
00007F0000
0000FF0000
0000FE0000
0001FC0000
0001F80000
0003F80000
0003F00000
0007E00000
0000000000
0000000000
0000000000
0000000000
01FFFFE000
0FFFFFFC00
1FFFFFFF00
3FFFFFFF80
7FFFFFFF80
7FFFFFFFC0
FFF003FFC0
FF00003FC0
FF00001FE0
FE00001FE0
FE00001FE0
FE00001FE0
FE00001FE0
FE00001FE0
FE00001FE0
FE00001FE0
FE00001FE0
FE00001FE0
FF00001FE0
FF00003FC0
FFE001FFC0
7FFFFFFFC0
7FFFFFFF80
3FFFFFFF80
1FFFFFFF00
0FFFFFFC00
01FFFFE000
ENDCHAR
STARTCHAR 00F4
ENCODING 244
SWIDTH 820 0
DWIDTH 41 0
BBX 35 42 3 0
BITMAP
0001F00000
0007F80000
000FFC0000
000FFE0000
001FFF0000
003FFF0000
007F3F8000
007F1FC000
00FE1FE000
01FC0FE000
03F807F000
07F803F800
07F003FC00
0000000000
0000000000
01FFFFE000
0FFFFFFC00
1FFFFFFF00
3FFFFFFF80
7FFFFFFF80
7FFFFFFFC0
FFF003FFC0
FF00003FC0
FF00001FE0
FE00001FE0
FE00001FE0
FE00001FE0
FE00001FE0
FE00001FE0
FE00001FE0
FE00001FE0
FE00001FE0
FE00001FE0
FF00001FE0
FF00003FC0
FFE001FFC0
7FFFFFFFC0
7FFFFFFF80
3FFFFFFF80
1FFFFFFF00
0FFFFFFC00
01FFFFE000
ENDCHAR
STARTCHAR 00F5
ENCODING 245
SWIDTH 820 0
DWIDTH 41 0
BBX 35 38 3 0
BITMAP
0FFFFFFC00
0FFFFFFC00
0FFFFFFC00
0FFFFFFC00
0FFFFFFC00
0000000000
0000000000
0000000000
0000000000
0000000000
0000000000
01FFFFE000
0FFFFFFC00
1FFFFFFF00
3FFFFFFF80
7FFFFFFF80
7FFFFFFFC0
FFF003FFC0
FF00003FC0
FF00001FE0
FE00001FE0
FE00001FE0
FE00001FE0
FE00001FE0
FE00001FE0
FE00001FE0
FE00001FE0
FE00001FE0
FE00001FE0
FF00001FE0
FF00003FC0
FFE001FFC0
7FFFFFFFC0
7FFFFFFF80
3FFFFFFF80
1FFFFFFF00
0FFFFFFC00
01FFFFE000
ENDCHAR
STARTCHAR 00F6
ENCODING 246
SWIDTH 820 0
DWIDTH 41 0
BBX 35 36 3 0
BITMAP
00FC07E000
01FC0FE000
01FE0FE000
01FE0FE000
01FE0FE000
01FE0FE000
01FC0FE000
0000000000
0000000000
01FFFFE000
0FFFFFFC00
1FFFFFFF00
3FFFFFFF80
7FFFFFFF80
7FFFFFFFC0
FFF003FFC0
FF00003FC0
FF00001FE0
FE00001FE0
FE00001FE0
FE00001FE0
FE00001FE0
FE00001FE0
FE00001FE0
FE00001FE0
FE00001FE0
FE00001FE0
FF00001FE0
FF00003FC0
FFE001FFC0
7FFFFFFFC0
7FFFFFFF80
3FFFFFFF80
1FFFFFFF00
0FFFFFFC00
01FFFFE000
ENDCHAR
STARTCHAR 00F7
ENCODING 247
SWIDTH 600 0
DWIDTH 30 0
BBX 24 27 3 4
BITMAP
007E00
00FE00
00FF00
00FF00
00FF00
00FF00
00FF00
00FE00
003C00
000000
000000
FFFFFF
FFFFFF
FFFFFF
FFFFFF
FFFFFF
000000
000000
003C00
00FE00
00FF00
00FF00
00FF00
00FF00
00FF00
00FE00
007E00
ENDCHAR
STARTCHAR 00F8
ENCODING 248
SWIDTH 820 0
DWIDTH 41 0
BBX 35 37 3 -5
BITMAP
0000001FC0
0000003FC0
0000007F80
0000007F00
000000FF00
01FFFFFE00
0FFFFFFC00
1FFFFFFF00
3FFFFFFF80
7FFFFFFF80
7FFFFFFFC0
FFF01FFFC0
FF003FFFC0
FF007F9FE0
FE00FF1FE0
FE00FE1FE0
FE01FE1FE0
FE03FC1FE0
FE07F81FE0
FE07F01FE0
FE0FE01FE0
FE1FE01FE0
FE3FC01FE0
FF3F801FE0
FF7F003FC0
FFFF01FFC0
7FFFFFFFC0
7FFFFFFF80
3FFFFFFF80
1FFFFFFF00
0FFFFFFC00
0FFFFFE000
1FC0000000
3FC0000000
7F80000000
7F00000000
FF00000000
ENDCHAR
STARTCHAR 00F9
ENCODING 249
SWIDTH 820 0
DWIDTH 41 0
BBX 35 42 3 0
BITMAP
00FF000000
007F000000
007F800000
003FC00000
001FC00000
000FE00000
000FE00000
0007F00000
0003F00000
0001F80000
0001FC0000
0000000000
0000000000
0000000000
0000000000
FE00001FE0
FE00001FE0
FE00001FE0
FE00001FE0
FE00001FE0
FE00001FE0
FE00001FE0
FE00001FE0
FE00001FE0
FE00001FE0
FE00001FE0
FE00001FE0
FE00001FE0
FE00001FE0
FE00001FE0
FE00001FE0
FE00001FE0
FE00001FE0
FF00001FE0
FF80003FC0
FFE001FFC0
7FFFFFFFC0
7FFFFFFF80
3FFFFFFF80
1FFFFFFF00
0FFFFFFC00
01FFFFF000
ENDCHAR
STARTCHAR 00FA
ENCODING 250
SWIDTH 820 0
DWIDTH 41 0
BBX 35 42 3 0
BITMAP
00001FC000
00003FC000
00003F8000
00007F0000
0000FF0000
0000FE0000
0001FC0000
0001F80000
0003F80000
0003F00000
0007E00000
0000000000
0000000000
0000000000
0000000000
FE00001FE0
FE00001FE0
FE00001FE0
FE00001FE0
FE00001FE0
FE00001FE0
FE00001FE0
FE00001FE0
FE00001FE0
FE00001FE0
FE00001FE0
FE00001FE0
FE00001FE0
FE00001FE0
FE00001FE0
FE00001FE0
FE00001FE0
FE00001FE0
FF00001FE0
FF80003FC0
FFE001FFC0
7FFFFFFFC0
7FFFFFFF80
3FFFFFFF80
1FFFFFFF00
0FFFFFFC00
01FFFFF000
ENDCHAR
STARTCHAR 00FB
ENCODING 251
SWIDTH 820 0
DWIDTH 41 0
BBX 35 42 3 0
BITMAP
0001F00000
0007F80000
000FFC0000
000FFE0000
001FFF0000
003FFF0000
007F3F8000
007F1FC000
00FE1FE000
01FC0FE000
03F807F000
07F803F800
07F003FC00
0000000000
0000000000
FE00001FE0
FE00001FE0
FE00001FE0
FE00001FE0
FE00001FE0
FE00001FE0
FE00001FE0
FE00001FE0
FE00001FE0
FE00001FE0
FE00001FE0
FE00001FE0
FE00001FE0
FE00001FE0
FE00001FE0
FE00001FE0
FE00001FE0
FE00001FE0
FF00001FE0
FF80003FC0
FFE001FFC0
7FFFFFFFC0
7FFFFFFF80
3FFFFFFF80
1FFFFFFF00
0FFFFFFC00
01FFFFF000
ENDCHAR
STARTCHAR 00FC
ENCODING 252
SWIDTH 820 0
DWIDTH 41 0
BBX 35 36 3 0
BITMAP
00FC07E000
01FC0FE000
01FE0FE000
01FE0FE000
01FE0FE000
01FE0FE000
01FC0FE000
0000000000
0000000000
FE00001FE0
FE00001FE0
FE00001FE0
FE00001FE0
FE00001FE0
FE00001FE0
FE00001FE0
FE00001FE0
FE00001FE0
FE00001FE0
FE00001FE0
FE00001FE0
FE00001FE0
FE00001FE0
FE00001FE0
FE00001FE0
FE00001FE0
FE00001FE0
FF00001FE0
FF80003FC0
FFE001FFC0
7FFFFFFFC0
7FFFFFFF80
3FFFFFFF80
1FFFFFFF00
0FFFFFFC00
01FFFFF000
ENDCHAR
STARTCHAR 00FD
ENCODING 253
SWIDTH 820 0
DWIDTH 41 0
BBX 35 50 3 -8
BITMAP
00001FE000
00001FC000
00003F8000
00007F8000
00007F0000
0000FE0000
0000FE0000
0001FC0000
0001F80000
0003F00000
0007F00000
0000000000
0000000000
0000000000
0000000000
FE00000FE0
FE00000FE0
FE00000FE0
FE00000FE0
FE00000FE0
FE00000FE0
FE00000FE0
FE00000FE0
FE00000FE0
FE00000FE0
FE00000FE0
FE00000FE0
FE00000FE0
FE00000FE0
FE00000FE0
FE00000FE0
FF00000FE0
FF80000FE0
FFFFFFFFE0
7FFFFFFFE0
7FFFFFFFE0
3FFFFFFFE0
0FFFFFFFE0
03FFFFFFE0
0000000FE0
0000000FE0
0000000FE0
0000000FE0
0000001FE0
0001FFFFE0
0001FFFFE0
0001FFFFC0
0001FFFFC0
0001FFFF00
0001FFFC00
ENDCHAR
STARTCHAR 00FE
ENCODING 254
SWIDTH 820 0
DWIDTH 41 0
BBX 36 44 3 -8
BITMAP
FF00000000
FF00000000
FF00000000
FF00000000
FF00000000
FF00000000
FF00000000
FF00000000
FF00000000
FFFFFFF000
FFFFFFFE00
FFFFFFFF80
FFFFFFFFC0
FFFFFFFFC0
FFFFFFFFE0
FF0001FFE0
FF00001FE0
FF00001FE0
FF00000FE0
FF00000FE0
FF00000FF0
FF00000FF0
FF00000FF0
FF00000FF0
FF00000FE0
FF00000FE0
FF00000FE0
FF00000FE0
FF00001FE0
FF00007FE0
FFFFFFFFE0
FFFFFFFFC0
FFFFFFFFC0
FFFFFFFF80
FFFFFFFE00
FFFFFFF000
FF00000000
FF00000000
FF00000000
FF00000000
FF00000000
FF00000000
FF00000000
FF00000000
ENDCHAR
STARTCHAR 00FF
ENCODING 255
SWIDTH 820 0
DWIDTH 41 0
BBX 35 44 3 -8
BITMAP
00FC07E000
00FE07F000
00FE0FF000
00FE0FF000
00FE0FF000
00FE0FF000
00FE07F000
0000000000
0000000000
FE00000FE0
FE00000FE0
FE00000FE0
FE00000FE0
FE00000FE0
FE00000FE0
FE00000FE0
FE00000FE0
FE00000FE0
FE00000FE0
FE00000FE0
FE00000FE0
FE00000FE0
FE00000FE0
FE00000FE0
FE00000FE0
FF00000FE0
FF80000FE0
FFFFFFFFE0
7FFFFFFFE0
7FFFFFFFE0
3FFFFFFFE0
0FFFFFFFE0
03FFFFFFE0
0000000FE0
0000000FE0
0000000FE0
0000000FE0
0000001FE0
0001FFFFE0
0001FFFFE0
0001FFFFC0
0001FFFFC0
0001FFFF00
0001FFFC00
ENDCHAR
STARTCHAR 0100
ENCODING 256
SWIDTH 1040 0
DWIDTH 52 0
BBX 50 45 1 0
BITMAP
000FFFFFFC0000
000FFFFFFC0000
000FFFFFFC0000
000FFFFFFC0000
000FFFFFFC0000
00000000000000
00000000000000
00000000000000
00000000000000
00000000000000
000003F0000000
000007F8000000
00000FFC000000
00001FFE000000
00003FFE000000
00003FFF000000
00007FFF800000
00007FFF800000
0000FF7FC00000
0001FF3FC00000
0001FE3FE00000
0003FC1FF00000
0007FC0FF00000
0007F80FF80000
000FF807FC0000
000FF003FC0000
001FE003FE0000
003FE001FE0000
003FC001FF0000
007FC000FF8000
00FF80007F8000
00FFFFFFFFC000
01FFFFFFFFE000
01FFFFFFFFE000
03FFFFFFFFF000
07FFFFFFFFF000
07FFFFFFFFF800
0FF8000007FC00
1FF0000003FC00
1FE0000003FE00
3FE0000001FF00
3FC0000001FF00
7FC0000000FF80
FF800000007F80
FF000000007FC0
ENDCHAR
STARTCHAR 0101
ENCODING 257
SWIDTH 840 0
DWIDTH 42 0
BBX 37 38 2 0
BITMAP
01FFFFFFC0
01FFFFFFC0
01FFFFFFC0
01FFFFFFC0
01FFFFFFC0
0000000000
0000000000
0000000000
0000000000
0000000000
0000000000
00003FFC00
00003FFF80
00003FFFE0
00003FFFE0
00003FFFF0
0000001FF8
00000007F8
00000007F8
00000003F8
00000003F8
07FFFFFFF8
1FFFFFFFF8
3FFFFFFFF8
7FFFFFFFF8
7FFFFFFFF8
FF000003F8
FF000003F8
FF000003F8
FF000003F8
FF000007F8
FF000007F8
FF80000FF8
7FFFFFFFF0
7FFFFFFFF0
3FFFFFFFE0
1FFFFFFF80
07FFFFFE00
ENDCHAR
STARTCHAR 0102
ENCODING 258
SWIDTH 1040 0
DWIDTH 52 0
BBX 50 49 1 0
BITMAP
0003E003F00000
0003E003F00000
0003E003F00000
0003E003F00000
0003F003F00000
0003F007E00000
0001FFFFE00000
0001FFFFE00000
0000FFFFC00000
00007FFF800000
000007F8000000
00000000000000
00000000000000
00000000000000
000003F0000000
000007F8000000
00000FFC000000
00001FFE000000
00003FFE000000
00003FFF000000
00007FFF800000
00007FFF800000
0000FF7FC00000
0001FF3FC00000
0001FE3FE00000
0003FC1FF00000
0007FC0FF00000
0007F80FF80000
000FF807FC0000
000FF003FC0000
001FE003FE0000
003FE001FE0000
003FC001FF0000
007FC000FF8000
00FF80007F8000
00FFFFFFFFC000
01FFFFFFFFE000
01FFFFFFFFE000
03FFFFFFFFF000
07FFFFFFFFF000
07FFFFFFFFF800
0FF8000007FC00
1FF0000003FC00
1FE0000003FE00
3FE0000001FF00
3FC0000001FF00
7FC0000000FF80
FF800000007F80
FF000000007FC0
ENDCHAR
STARTCHAR 0103
ENCODING 259
SWIDTH 840 0
DWIDTH 42 0
BBX 37 42 2 0
BITMAP
003E003E00
003E003E00
003E003E00
003E003E00
003E003E00
003F007E00
003FFFFE00
003FFFFC00
001FFFFC00
000FFFF800
00007F0000
0000000000
0000000000
0000000000
0000000000
00003FFC00
00003FFF80
00003FFFE0
00003FFFE0
00003FFFF0
0000001FF8
00000007F8
00000007F8
00000003F8
00000003F8
07FFFFFFF8
1FFFFFFFF8
3FFFFFFFF8
7FFFFFFFF8
7FFFFFFFF8
FF000003F8
FF000003F8
FF000003F8
FF000003F8
FF000007F8
FF000007F8
FF80000FF8
7FFFFFFFF0
7FFFFFFFF0
3FFFFFFFE0
1FFFFFFF80
07FFFFFE00
ENDCHAR
STARTCHAR 0104
ENCODING 260
SWIDTH 1040 0
DWIDTH 52 0
BBX 52 46 1 -11
BITMAP
000003F0000000
000007F8000000
00000FFC000000
00001FFE000000
00003FFE000000
00003FFF000000
00007FFF800000
00007FFF800000
0000FF7FC00000
0001FF3FC00000
0001FE3FE00000
0003FC1FF00000
0007FC0FF00000
0007F80FF80000
000FF807FC0000
000FF003FC0000
001FE003FE0000
003FE001FE0000
003FC001FF0000
007FC000FF8000
00FF80007F8000
00FFFFFFFFC000
01FFFFFFFFE000
01FFFFFFFFE000
03FFFFFFFFF000
07FFFFFFFFF000
07FFFFFFFFF800
0FF8000007FC00
1FF0000003FC00
1FE0000003FE00
3FE0000001FF00
3FC0000001FF00
7FC0000000FF80
FF800000007F80
FF000000007FC0
00000000003F00
0000000000F800
0000000001F000
0000000003F000
0000000003F000
0000000003F800
0000000003FFF0
0000000003FFF0
0000000003FFF0
0000000001FFF0
0000000000FFF0
ENDCHAR
STARTCHAR 0105
ENCODING 261
SWIDTH 840 0
DWIDTH 42 0
BBX 37 38 2 -11
BITMAP
00003FFC00
00003FFF80
00003FFFE0
00003FFFE0
00003FFFF0
0000001FF8
00000007F8
00000007F8
00000003F8
00000003F8
07FFFFFFF8
1FFFFFFFF8
3FFFFFFFF8
7FFFFFFFF8
7FFFFFFFF8
FF000003F8
FF000003F8
FF000003F8
FF000003F8
FF000007F8
FF000007F8
FF80000FF8
7FFFFFFFF0
7FFFFFFFE0
3FFFFFFFE0
1FFFFFFF80
07FFFFF800
00007E0000
0001F80000
0003F00000
0003F00000
0003F00000
0007F00000
0007FFF000
0003FFF000
0003FFF000
0003FFF000
0001FFF000
ENDCHAR
STARTCHAR 0106
ENCODING 262
SWIDTH 820 0
DWIDTH 41 0
BBX 36 48 3 0
BITMAP
00001FE000
00003FC000
00003F8000
00007F0000
00007F0000
0000FE0000
0001FC0000
0001F80000
0003F00000
0007F00000
0000000000
0000000000
0000000000
0000000000
01FFFFFFF0
0FFFFFFFF0
1FFFFFFFF0
3FFFFFFFF0
7FFFFFFFF0
7FFFFFFFF0
FFFFFFFFF0
FF80000000
FF00000000
FE00000000
FE00000000
FE00000000
FE00000000
FE00000000
FE00000000
FE00000000
FE00000000
FE00000000
FE00000000
FE00000000
FE00000000
FE00000000
FE00000000
FE00000000
FE00000000
FF00000000
FF80000000
FFFFFFFFF0
7FFFFFFFF0
7FFFFFFFF0
3FFFFFFFF0
1FFFFFFFF0
0FFFFFFFF0
01FFFFFFF0
ENDCHAR
STARTCHAR 0107
ENCODING 263
SWIDTH 760 0
DWIDTH 38 0
BBX 32 42 3 0
BITMAP
00007F80
00007F00
0000FF00
0000FE00
0001FC00
0003F800
0003F800
0007F000
0007E000
000FE000
000FC000
00000000
00000000
00000000
00000000
01FFFFFF
0FFFFFFF
1FFFFFFF
3FFFFFFF
7FFFFFFF
7FFFFFFF
FFF00000
FF000000
FF000000
FE000000
FE000000
FE000000
FE000000
FE000000
FE000000
FE000000
FE000000
FE000000
FF000000
FF000000
FFE00000
7FFFFFFF
7FFFFFFF
3FFFFFFF
1FFFFFFF
0FFFFFFF
01FFFFFF
ENDCHAR
STARTCHAR 010A
ENCODING 266
SWIDTH 820 0
DWIDTH 41 0
BBX 36 43 3 0
BITMAP
00007E0000
0000FE0000
0000FE0000
0000FE0000
0000FE0000
0000FE0000
0000FE0000
0000000000
0000000000
01FFFFFFF0
0FFFFFFFF0
1FFFFFFFF0
3FFFFFFFF0
7FFFFFFFF0
7FFFFFFFF0
FFFFFFFFF0
FF80000000
FF00000000
FE00000000
FE00000000
FE00000000
FE00000000
FE00000000
FE00000000
FE00000000
FE00000000
FE00000000
FE00000000
FE00000000
FE00000000
FE00000000
FE00000000
FE00000000
FE00000000
FF00000000
FF80000000
FFFFFFFFF0
7FFFFFFFF0
7FFFFFFFF0
3FFFFFFFF0
1FFFFFFFF0
0FFFFFFFF0
01FFFFFFF0
ENDCHAR
STARTCHAR 010B
ENCODING 267
SWIDTH 760 0
DWIDTH 38 0
BBX 32 36 3 0
BITMAP
0003F000
0003F800
0003F800
0003F800
0003F800
0003F800
0003F800
00000000
00000000
01FFFFFF
0FFFFFFF
1FFFFFFF
3FFFFFFF
7FFFFFFF
7FFFFFFF
FFF00000
FF000000
FF000000
FE000000
FE000000
FE000000
FE000000
FE000000
FE000000
FE000000
FE000000
FE000000
FF000000
FF000000
FFE00000
7FFFFFFF
7FFFFFFF
3FFFFFFF
1FFFFFFF
0FFFFFFF
01FFFFFF
ENDCHAR
STARTCHAR 010C
ENCODING 268
SWIDTH 820 0
DWIDTH 41 0
BBX 36 49 3 0
BITMAP
01FC00FF00
01FE00FE00
00FF01FC00
007F03F800
003F87F800
001FC7F000
001FEFE000
000FFFC000
0007FFC000
0003FF8000
0003FF0000
0001FE0000
00007C0000
0000000000
0000000000
01FFFFFFF0
0FFFFFFFF0
1FFFFFFFF0
3FFFFFFFF0
7FFFFFFFF0
7FFFFFFFF0
FFFFFFFFF0
FF80000000
FF00000000
FE00000000
FE00000000
FE00000000
FE00000000
FE00000000
FE00000000
FE00000000
FE00000000
FE00000000
FE00000000
FE00000000
FE00000000
FE00000000
FE00000000
FE00000000
FE00000000
FF00000000
FF80000000
FFFFFFFFF0
7FFFFFFFF0
7FFFFFFFF0
3FFFFFFFF0
1FFFFFFFF0
0FFFFFFFF0
01FFFFFFF0
ENDCHAR
STARTCHAR 010D
ENCODING 269
SWIDTH 760 0
DWIDTH 38 0
BBX 32 42 3 0
BITMAP
07F001FC
03F803F8
03FC07F0
01FE0FF0
00FE0FE0
007F1FC0
003FBF80
003FFF80
001FFF00
000FFE00
0007FC00
0007F800
0001F000
00000000
00000000
01FFFFFF
0FFFFFFF
1FFFFFFF
3FFFFFFF
7FFFFFFF
7FFFFFFF
FFF00000
FF000000
FF000000
FE000000
FE000000
FE000000
FE000000
FE000000
FE000000
FE000000
FE000000
FE000000
FF000000
FF000000
FFE00000
7FFFFFFF
7FFFFFFF
3FFFFFFF
1FFFFFFF
0FFFFFFF
01FFFFFF
ENDCHAR
STARTCHAR 010E
ENCODING 270
SWIDTH 920 0
DWIDTH 46 0
BBX 40 49 3 0
BITMAP
03FC00FE00
01FC01FE00
00FE01FC00
007F03F800
007F87F000
003F8FF000
001FCFE000
000FFFC000
0007FF8000
0007FF0000
0003FF0000
0001FE0000
0000F80000
0000000000
0000000000
FFFFFFFF80
FFFFFFFFF0
FFFFFFFFF8
FFFFFFFFFC
FFFFFFFFFE
FFFFFFFFFE
FFFFFFFFFE
FF000001FF
FF000000FF
FF000000FF
FF000000FF
FF000000FF
FF000000FF
FF000000FF
FF000000FF
FF000000FF
FF000000FF
FF000000FF
FF000000FF
FF000000FF
FF000000FF
FF000000FF
FF000000FF
FF000000FF
FF000000FF
FF000000FF
FF000001FF
FFFFFFFFFE
FFFFFFFFFE
FFFFFFFFFE
FFFFFFFFFC
FFFFFFFFF8
FFFFFFFFF0
FFFFFFFF80
ENDCHAR
STARTCHAR 010F
ENCODING 271
SWIDTH 980 0
DWIDTH 49 0
BBX 46 36 3 0
BITMAP
0000000FE1FC
0000000FE1FC
0000000FE1FC
0000000FE1F8
0000000FE1F8
0000000FE1F8
0000000FE1F8
0000000FE3F0
0000000FE3F0
01FFFFFFE3F0
0FFFFFFFE3F0
1FFFFFFFE3E0
3FFFFFFFE000
7FFFFFFFE000
FFFFFFFFE000
FFF0000FE000
FF00000FE000
FF00000FE000
FE00000FE000
FE00000FE000
FE00000FE000
FE00000FE000
FE00000FE000
FE00000FE000
FE00000FE000
FE00000FE000
FE00000FE000
FF00001FE000
FF00001FE000
FFC000FFE000
FFFFFFFFC000
7FFFFFFFC000
3FFFFFFF8000
3FFFFFFF0000
0FFFFFFE0000
01FFFFF00000
ENDCHAR
STARTCHAR 0110
ENCODING 272
SWIDTH 940 0
DWIDTH 47 0
BBX 44 34 0 0
BITMAP
0FFFFFFFF800
0FFFFFFFFF00
0FFFFFFFFF80
0FFFFFFFFFC0
0FFFFFFFFFE0
0FFFFFFFFFE0
0FF00000FFF0
0FF000001FF0
0FF000000FF0
0FF000000FF0
0FF0000007F0
0FF0000007F0
0FF0000007F0
0FF0000007F0
FFFFFFC007F0
FFFFFFC007F0
FFFFFFC007F0
FFFFFFC007F0
FFFFFFC007F0
FFFFFFC007F0
0FF0000007F0
0FF0000007F0
0FF0000007F0
0FF0000007F0
0FF0000007F0
0FF000000FF0
0FF000001FF0
0FF000007FF0
0FFFFFFFFFE0
0FFFFFFFFFE0
0FFFFFFFFFC0
0FFFFFFFFFC0
0FFFFFFFFF00
0FFFFFFFF800
ENDCHAR
STARTCHAR 0111
ENCODING 273
SWIDTH 820 0
DWIDTH 41 0
BBX 38 36 3 0
BITMAP
0000000FE0
0000000FE0
001FFFFFFC
001FFFFFFC
001FFFFFFC
001FFFFFFC
001FFFFFFC
0000000FE0
0000000FE0
01FFFFFFE0
0FFFFFFFE0
1FFFFFFFE0
3FFFFFFFE0
7FFFFFFFE0
FFFFFFFFE0
FFF0000FE0
FF00000FE0
FF00000FE0
FE00000FE0
FE00000FE0
FE00000FE0
FE00000FE0
FE00000FE0
FE00000FE0
FE00000FE0
FE00000FE0
FE00000FE0
FF00001FE0
FF00001FE0
FFC000FFE0
FFFFFFFFC0
7FFFFFFFC0
3FFFFFFF80
3FFFFFFF00
0FFFFFFE00
01FFFFF000
ENDCHAR
STARTCHAR 0112
ENCODING 274
SWIDTH 820 0
DWIDTH 41 0
BBX 37 45 3 0
BITMAP
03FFFFFF00
03FFFFFF00
03FFFFFF00
03FFFFFF00
03FFFFFF00
0000000000
0000000000
0000000000
0000000000
0000000000
0000000000
01FFF80000
0FFFF80000
1FFFF80000
3FFFF80000
7FFFF80000
7FFFF80000
FFF0000000
FF00000000
FF00000000
FE00000000
FE00000000
FE00000000
FE00000000
FE00000000
FFFFFFFFF0
FFFFFFFFF0
FFFFFFFFF0
FFFFFFFFF0
FFFFFFFFF0
FFFFFFFFF0
FE00000000
FE00000000
FE00000000
FE00000000
FE00000000
FF00000000
FF00000000
FFF0000000
7FFFFFFFF8
7FFFFFFFF8
3FFFFFFFF8
1FFFFFFFF8
0FFFFFFFF8
01FFFFFFF8
ENDCHAR
STARTCHAR 0113
ENCODING 275
SWIDTH 800 0
DWIDTH 40 0
BBX 35 38 3 0
BITMAP
0FFFFFFC00
0FFFFFFC00
0FFFFFFC00
0FFFFFFC00
0FFFFFFC00
0000000000
0000000000
0000000000
0000000000
0000000000
0000000000
03FFFFFC00
1FFFFFFF00
3FFFFFFF80
7FFFFFFFC0
7FFFFFFFE0
FFFFFFFFE0
FF00001FE0
FE00000FE0
FE00000FE0
FE00000FE0
FE00000FE0
FFFFFFFFE0
FFFFFFFFE0
FFFFFFFFE0
FFFFFFFFE0
FFFFFFFFE0
FE00000000
FE00000000
FE00000000
FE00000000
FF00000000
FFFFF00000
7FFFF00000
7FFFF00000
3FFFF00000
0FFFF00000
01FFF00000
ENDCHAR
STARTCHAR 0114
ENCODING 276
SWIDTH 820 0
DWIDTH 41 0
BBX 37 49 3 0
BITMAP
00FC007C00
00FC007C00
00FC007C00
00FC007C00
007C00FC00
007E00FC00
007FFFFC00
007FFFF800
003FFFF800
001FFFE000
0001FE0000
0000000000
0000000000
0000000000
0000000000
01FFF80000
0FFFF80000
1FFFF80000
3FFFF80000
7FFFF80000
7FFFF80000
FFF0000000
FF00000000
FF00000000
FE00000000
FE00000000
FE00000000
FE00000000
FE00000000
FFFFFFFFF0
FFFFFFFFF0
FFFFFFFFF0
FFFFFFFFF0
FFFFFFFFF0
FFFFFFFFF0
FE00000000
FE00000000
FE00000000
FE00000000
FE00000000
FF00000000
FF00000000
FFF0000000
7FFFFFFFF8
7FFFFFFFF8
3FFFFFFFF8
1FFFFFFFF8
0FFFFFFFF8
01FFFFFFF8
ENDCHAR
STARTCHAR 0115
ENCODING 277
SWIDTH 800 0
DWIDTH 40 0
BBX 35 42 3 0
BITMAP
03F001F000
03F001F000
03F001F000
03F001F000
01F003F000
01F803F000
01FFFFF000
01FFFFE000
00FFFFE000
007FFF8000
0007F80000
0000000000
0000000000
0000000000
0000000000
03FFFFFC00
1FFFFFFF00
3FFFFFFF80
7FFFFFFFC0
7FFFFFFFE0
FFFFFFFFE0
FF00001FE0
FE00000FE0
FE00000FE0
FE00000FE0
FE00000FE0
FFFFFFFFE0
FFFFFFFFE0
FFFFFFFFE0
FFFFFFFFE0
FFFFFFFFE0
FE00000000
FE00000000
FE00000000
FE00000000
FF00000000
FFFFF00000
7FFFF00000
7FFFF00000
3FFFF00000
0FFFF00000
01FFF00000
ENDCHAR
STARTCHAR 0116
ENCODING 278
SWIDTH 820 0
DWIDTH 41 0
BBX 37 43 3 0
BITMAP
0000FC0000
0000FE0000
0001FE0000
0001FE0000
0001FE0000
0000FE0000
0000FE0000
0000000000
0000000000
01FFF80000
0FFFF80000
1FFFF80000
3FFFF80000
7FFFF80000
7FFFF80000
FFF0000000
FF00000000
FF00000000
FE00000000
FE00000000
FE00000000
FE00000000
FE00000000
FFFFFFFFF0
FFFFFFFFF0
FFFFFFFFF0
FFFFFFFFF0
FFFFFFFFF0
FFFFFFFFF0
FE00000000
FE00000000
FE00000000
FE00000000
FE00000000
FF00000000
FF00000000
FFF0000000
7FFFFFFFF8
7FFFFFFFF8
3FFFFFFFF8
1FFFFFFFF8
0FFFFFFFF8
01FFFFFFF8
ENDCHAR
STARTCHAR 0117
ENCODING 279
SWIDTH 800 0
DWIDTH 40 0
BBX 35 36 3 0
BITMAP
0003F00000
0003F80000
0007F80000
0007F80000
0007F80000
0003F80000
0003F80000
0000000000
0000000000
03FFFFFC00
1FFFFFFF00
3FFFFFFF80
7FFFFFFFC0
7FFFFFFFE0
FFFFFFFFE0
FF00001FE0
FE00000FE0
FE00000FE0
FE00000FE0
FE00000FE0
FFFFFFFFE0
FFFFFFFFE0
FFFFFFFFE0
FFFFFFFFE0
FFFFFFFFE0
FE00000000
FE00000000
FE00000000
FE00000000
FF00000000
FFFFF00000
7FFFF00000
7FFFF00000
3FFFF00000
0FFFF00000
01FFF00000
ENDCHAR
STARTCHAR 0118
ENCODING 280
SWIDTH 820 0
DWIDTH 41 0
BBX 39 45 3 -11
BITMAP
01FFF80000
0FFFF80000
1FFFF80000
3FFFF80000
7FFFF80000
7FFFF80000
FFF0000000
FF00000000
FF00000000
FE00000000
FE00000000
FE00000000
FE00000000
FE00000000
FFFFFFFFF0
FFFFFFFFF0
FFFFFFFFF0
FFFFFFFFF0
FFFFFFFFF0
FFFFFFFFF0
FE00000000
FE00000000
FE00000000
FE00000000
FE00000000
FF00000000
FF00000000
FFF0000000
7FFFFFFFF8
7FFFFFFFF8
3FFFFFFFF8
1FFFFFFFF8
0FFFFFFFF8
01FFFFFFF8
0000000FC0
0000003F00
0000007E00
000000FC00
000000FC00
000000FE00
000000FFFE
000000FFFE
000000FFFE
0000007FFE
0000003FFE
ENDCHAR
STARTCHAR 0119
ENCODING 281
SWIDTH 800 0
DWIDTH 40 0
BBX 35 38 3 -11
BITMAP
03FFFFFC00
1FFFFFFF00
3FFFFFFF80
7FFFFFFFC0
7FFFFFFFE0
FFFFFFFFE0
FF00001FE0
FE00000FE0
FE00000FE0
FE00000FE0
FE00000FE0
FFFFFFFFE0
FFFFFFFFE0
FFFFFFFFE0
FFFFFFFFE0
FFFFFFFFE0
FE00000000
FE00000000
FE00000000
FE00000000
FF00000000
FFFFF00000
7FFFF00000
7FFFF00000
3FFFF00000
0FFFF00000
01FFF00000
000FC00000
003F000000
007E000000
00FC000000
00FC000000
00FE000000
00FFFC0000
00FFFC0000
00FFFC0000
007FFC0000
003FFC0000
ENDCHAR
STARTCHAR 011A
ENCODING 282
SWIDTH 820 0
DWIDTH 41 0
BBX 37 49 3 0
BITMAP
01FC007F00
01FE00FE00
00FF01FC00
007F03F800
003F87F800
001FC7F000
001FEFE000
000FFFC000
0007FFC000
0003FF8000
0003FF0000
0001FE0000
00007C0000
0000000000
0000000000
01FFF80000
0FFFF80000
1FFFF80000
3FFFF80000
7FFFF80000
7FFFF80000
FFF0000000
FF00000000
FF00000000
FE00000000
FE00000000
FE00000000
FE00000000
FE00000000
FFFFFFFFF0
FFFFFFFFF0
FFFFFFFFF0
FFFFFFFFF0
FFFFFFFFF0
FFFFFFFFF0
FE00000000
FE00000000
FE00000000
FE00000000
FE00000000
FF00000000
FF00000000
FFF0000000
7FFFFFFFF8
7FFFFFFFF8
3FFFFFFFF8
1FFFFFFFF8
0FFFFFFFF8
01FFFFFFF8
ENDCHAR
STARTCHAR 011B
ENCODING 283
SWIDTH 800 0
DWIDTH 40 0
BBX 35 42 3 0
BITMAP
07F001FC00
07F803F800
03FC07F000
01FC0FE000
00FE1FE000
007F1FC000
007FBF8000
003FFF0000
001FFF0000
000FFE0000
000FFC0000
0007F80000
0001F00000
0000000000
0000000000
03FFFFFC00
1FFFFFFF00
3FFFFFFF80
7FFFFFFFC0
7FFFFFFFE0
FFFFFFFFE0
FF00001FE0
FE00000FE0
FE00000FE0
FE00000FE0
FE00000FE0
FFFFFFFFE0
FFFFFFFFE0
FFFFFFFFE0
FFFFFFFFE0
FFFFFFFFE0
FE00000000
FE00000000
FE00000000
FE00000000
FF00000000
FFFFF00000
7FFFF00000
7FFFF00000
3FFFF00000
0FFFF00000
01FFF00000
ENDCHAR
STARTCHAR 011E
ENCODING 286
SWIDTH 900 0
DWIDTH 45 0
BBX 39 49 3 0
BITMAP
00FC007C00
00FC007C00
00FC007C00
00FC007C00
007C00FC00
007E00FC00
007FFFFC00
007FFFF800
003FFFF800
001FFFE000
0001FE8000
0000000000
0000000000
0000000000
0000000000
01FFFC0000
0FFFFC0000
1FFFFC0000
3FFFFC0000
7FFFFC0000
7FFFFC0000
FFFFFC0000
FF80000000
FF00000000
FF00000000
FE00000000
FE00000000
FE00000000
FE00000000
FE000000FE
FE000000FE
FE000000FE
FE000000FE
FE000000FE
FE000000FE
FE000000FE
FE000000FE
FE000000FE
FE000000FE
FE000001FE
FF000001FE
FF800003FE
FFFFFFFFFE
7FFFFFFFFC
7FFFFFFFFC
3FFFFFFFF8
1FFFFFFFF0
0FFFFFFFE0
01FFFFFF00
ENDCHAR
STARTCHAR 011F
ENCODING 287
SWIDTH 820 0
DWIDTH 41 0
BBX 35 50 3 -8
BITMAP
01F001F000
01F001F000
01F001F000
01F001F000
01F003F000
01F803F000
01FFFFF000
01FFFFE000
00FFFFE000
007FFFC000
0003F80000
0000000000
0000000000
0000000000
0000000000
03FFFFF000
1FFFFFFE00
3FFFFFFF80
7FFFFFFF80
FFFFFFFFC0
FFFFFFFFC0
FFC0007FE0
FF00001FE0
FE00000FE0
FE00000FE0
FE00000FE0
FE00000FE0
FE00000FE0
FE00000FE0
FE00000FE0
FE00000FE0
FE00000FE0
FF00000FE0
FFFFFFFFE0
FFFFFFFFE0
7FFFFFFFE0
3FFFFFFFE0
1FFFFFFFE0
01FFFFFFE0
0000000FE0
0000000FE0
0000000FE0
0000000FE0
0000001FE0
0003FFFFE0
0003FFFFE0
0003FFFFC0
0003FFFF80
0003FFFF00
0003FFFC00
ENDCHAR
STARTCHAR 0120
ENCODING 288
SWIDTH 900 0
DWIDTH 45 0
BBX 39 43 3 0
BITMAP
0000FC0000
0000FE0000
0000FE0000
0000FE0000
0000FE0000
0000FE0000
0000FE0000
0000000000
0000000000
01FFFC0000
0FFFFC0000
1FFFFC0000
3FFFFC0000
7FFFFC0000
7FFFFC0000
FFFFFC0000
FF80000000
FF00000000
FF00000000
FE00000000
FE00000000
FE00000000
FE00000000
FE000000FE
FE000000FE
FE000000FE
FE000000FE
FE000000FE
FE000000FE
FE000000FE
FE000000FE
FE000000FE
FE000000FE
FE000001FE
FF000001FE
FF800003FE
FFFFFFFFFE
7FFFFFFFFC
7FFFFFFFFC
3FFFFFFFF8
1FFFFFFFF0
0FFFFFFFE0
01FFFFFF00
ENDCHAR
STARTCHAR 0121
ENCODING 289
SWIDTH 820 0
DWIDTH 41 0
BBX 35 44 3 -8
BITMAP
0003F00000
0003F80000
0003F80000
0003F80000
0003F80000
0003F80000
0003F80000
0000000000
0000000000
03FFFFF000
1FFFFFFE00
3FFFFFFF80
7FFFFFFF80
FFFFFFFFC0
FFFFFFFFC0
FFC0007FE0
FF00001FE0
FE00000FE0
FE00000FE0
FE00000FE0
FE00000FE0
FE00000FE0
FE00000FE0
FE00000FE0
FE00000FE0
FE00000FE0
FF00000FE0
FFFFFFFFE0
FFFFFFFFE0
7FFFFFFFE0
3FFFFFFFE0
1FFFFFFFE0
01FFFFFFE0
0000000FE0
0000000FE0
0000000FE0
0000000FE0
0000001FE0
0003FFFFE0
0003FFFFE0
0003FFFFC0
0003FFFF80
0003FFFF00
0003FFFC00
ENDCHAR
STARTCHAR 0122
ENCODING 290
SWIDTH 900 0
DWIDTH 45 0
BBX 39 45 3 -11
BITMAP
01FFFC0000
0FFFFC0000
1FFFFC0000
3FFFFC0000
7FFFFC0000
7FFFFC0000
FFFFFC0000
FF80000000
FF00000000
FF00000000
FE00000000
FE00000000
FE00000000
FE00000000
FE000000FE
FE000000FE
FE000000FE
FE000000FE
FE000000FE
FE000000FE
FE000000FE
FE000000FE
FE000000FE
FE000000FE
FE000001FE
FF000001FE
FF800003FE
FFFFFFFFFE
7FFFFFFFFC
7FFFFFFFFC
3FFFFFFFF8
1FFFFFFFF0
0FFFFFFFE0
01FFFFFF00
0000000000
0000FE0000
0000FE0000
0000FE0000
0000FC0000
0000FC0000
0000FC0000
0000F80000
0000F80000
0000F80000
0001F80000
ENDCHAR
STARTCHAR 0123
ENCODING 291
SWIDTH 820 0
DWIDTH 41 0
BBX 35 48 3 -8
BITMAP
00007C0000
0000FC0000
0000FC0000
0000F80000
0001F80000
0001F80000
0001F80000
0001F80000
0003F80000
0003F80000
0000000000
0000000000
0000000000
03FFFFF000
1FFFFFFE00
3FFFFFFF80
7FFFFFFF80
FFFFFFFFC0
FFFFFFFFC0
FFC0007FE0
FF00001FE0
FE00000FE0
FE00000FE0
FE00000FE0
FE00000FE0
FE00000FE0
FE00000FE0
FE00000FE0
FE00000FE0
FE00000FE0
FF00000FE0
FFFFFFFFE0
FFFFFFFFE0
7FFFFFFFE0
3FFFFFFFE0
1FFFFFFFE0
01FFFFFFE0
0000000FE0
0000000FE0
0000000FE0
0000000FE0
0000001FE0
0003FFFFE0
0003FFFFE0
0003FFFFC0
0003FFFF80
0003FFFF00
0003FFFC00
ENDCHAR
STARTCHAR 0126
ENCODING 294
SWIDTH 920 0
DWIDTH 46 0
BBX 40 34 3 0
BITMAP
FF0000007F
FF0000007F
FF0000007F
FF0000007F
FF0000007F
FFFFFFFFFF
FFFFFFFFFF
FFFFFFFFFF
FFFFFFFFFF
FFFFFFFFFF
FF0000007F
FF0000007F
FF0000007F
FF0000007F
FFFFFFFFFF
FFFFFFFFFF
FFFFFFFFFF
FFFFFFFFFF
FFFFFFFFFF
FFFFFFFFFF
FFFFFFFFFF
FF0000007F
FF0000007F
FF0000007F
FF0000007F
FF0000007F
FF0000007F
FF0000007F
FF0000007F
FF0000007F
FF0000007F
FF0000007F
FF0000007F
FF0000007F
ENDCHAR
STARTCHAR 0127
ENCODING 295
SWIDTH 820 0
DWIDTH 41 0
BBX 38 36 1 0
BITMAP
3F80000000
3F80000000
FFFFFFC000
FFFFFFC000
FFFFFFC000
FFFFFFC000
FFFFFFC000
3F80000000
3F80000000
3FFFFFFC00
3FFFFFFF80
3FFFFFFFE0
3FFFFFFFF0
3FFFFFFFF0
3FFFFFFFF8
3F80007FF8
3F800007F8
3F800003F8
3F800003F8
3F800003FC
3F800003FC
3F800003FC
3F800003FC
3F800003FC
3F800003FC
3F800003FC
3F800003FC
3F800003FC
3F800003FC
3F800003FC
3F800003FC
3F800003FC
3F800003FC
3F800003FC
3F800003FC
3F800003FC
ENDCHAR
STARTCHAR 012A
ENCODING 298
SWIDTH 280 0
DWIDTH 14 0
BBX 26 45 -6 0
BITMAP
FFFFFFC0
FFFFFFC0
FFFFFFC0
FFFFFFC0
FFFFFFC0
00000000
00000000
00000000
00000000
00000000
00000000
007F8000
007F8000
007F8000
007F8000
007F8000
007F8000
007F8000
007F8000
007F8000
007F8000
007F8000
007F8000
007F8000
007F8000
007F8000
007F8000
007F8000
007F8000
007F8000
007F8000
007F8000
007F8000
007F8000
007F8000
007F8000
007F8000
007F8000
007F8000
007F8000
007F8000
007F8000
007F8000
007F8000
007F8000
ENDCHAR
STARTCHAR 012B
ENCODING 299
SWIDTH 420 0
DWIDTH 21 0
BBX 27 38 -3 0
BITMAP
FFFFFFE0
FFFFFFE0
FFFFFFE0
FFFFFFE0
FFFFFFE0
00000000
00000000
00000000
00000000
00000000
00000000
00000000
003F8000
003F8000
003F8000
003F8000
003F8000
003F8000
003F8000
003F8000
003F8000
003F8000
003F8000
003F8000
003F8000
003F8000
003F8000
003F8000
003F8000
003F8000
003F8000
003F8000
003F8000
003F8000
003F8000
003F8000
003F8000
003F8000
ENDCHAR
STARTCHAR 012C
ENCODING 300
SWIDTH 280 0
DWIDTH 14 0
BBX 22 49 -4 0
BITMAP
F800FC
F800FC
F800FC
F800FC
FC00F8
FC01F8
FFFFF8
7FFFF8
3FFFF0
1FFFE0
01FE00
000000
000000
000000
000000
01FE00
01FE00
01FE00
01FE00
01FE00
01FE00
01FE00
01FE00
01FE00
01FE00
01FE00
01FE00
01FE00
01FE00
01FE00
01FE00
01FE00
01FE00
01FE00
01FE00
01FE00
01FE00
01FE00
01FE00
01FE00
01FE00
01FE00
01FE00
01FE00
01FE00
01FE00
01FE00
01FE00
01FE00
ENDCHAR
STARTCHAR 012D
ENCODING 301
SWIDTH 300 0
DWIDTH 15 0
BBX 21 42 -3 0
BITMAP
F800F8
F800F8
F800F8
F800F8
F801F8
FC01F8
FFFFF8
FFFFF0
7FFFF0
3FFFE0
01FC00
000000
000000
000000
000000
000000
01FC00
01FC00
01FC00
01FC00
01FC00
01FC00
01FC00
01FC00
01FC00
01FC00
01FC00
01FC00
01FC00
01FC00
01FC00
01FC00
01FC00
01FC00
01FC00
01FC00
01FC00
01FC00
01FC00
01FC00
01FC00
01FC00
ENDCHAR
STARTCHAR 012E
ENCODING 302
SWIDTH 280 0
DWIDTH 14 0
BBX 15 45 -2 -11
BITMAP
07F8
07F8
07F8
07F8
07F8
07F8
07F8
07F8
07F8
07F8
07F8
07F8
07F8
07F8
07F8
07F8
07F8
07F8
07F8
07F8
07F8
07F8
07F8
07F8
07F8
07F8
07F8
07F8
07F8
07F8
07F8
07F8
07F8
07F8
0FC0
3F00
7E00
FE00
FE00
FE00
FFFE
FFFE
FFFE
7FFE
3FFE
ENDCHAR
STARTCHAR 012F
ENCODING 303
SWIDTH 280 0
DWIDTH 14 0
BBX 15 47 -2 -11
BITMAP
03F0
07F0
07F8
07F8
07F8
07F8
07F0
0000
0000
0000
07F8
07F8
07F8
07F8
07F8
07F8
07F8
07F8
07F8
07F8
07F8
07F8
07F8
07F8
07F8
07F8
07F8
07F8
07F8
07F8
07F8
07F8
07F8
07F8
07F8
07F8
0FC0
3F00
7E00
FC00
FC00
FE00
FFFE
FFFE
FFFE
7FFE
3FFE
ENDCHAR
STARTCHAR 0130
ENCODING 304
SWIDTH 280 0
DWIDTH 14 0
BBX 8 43 3 0
BITMAP
7E
FE
FF
FF
FF
FF
FE
00
00
FF
FF
FF
FF
FF
FF
FF
FF
FF
FF
FF
FF
FF
FF
FF
FF
FF
FF
FF
FF
FF
FF
FF
FF
FF
FF
FF
FF
FF
FF
FF
FF
FF
FF
ENDCHAR
STARTCHAR 0131
ENCODING 305
SWIDTH 280 0
DWIDTH 14 0
BBX 8 26 3 0
BITMAP
FF
FF
FF
FF
FF
FF
FF
FF
FF
FF
FF
FF
FF
FF
FF
FF
FF
FF
FF
FF
FF
FF
FF
FF
FF
FF
ENDCHAR
STARTCHAR 0132
ENCODING 306
SWIDTH 780 0
DWIDTH 39 0
BBX 33 34 3 0
BITMAP
FF00003F80
FF00003F80
FF00003F80
FF00003F80
FF00003F80
FF00003F80
FF00003F80
FF00003F80
FF00003F80
FF00003F80
FF00003F80
FF00003F80
FF00003F80
FF00003F80
FF00003F80
FF00003F80
FF00003F80
FF00003F80
FF00003F80
FF00003F80
FF00003F80
FF00003F80
FF00003F80
FF00003F80
FF00003F80
FF00007F80
FF0000FF80
FF1FFFFF80
FF1FFFFF80
FF1FFFFF00
FF1FFFFF00
FF1FFFFE00
FF1FFFF800
FF1FFFC000
ENDCHAR
STARTCHAR 0133
ENCODING 307
SWIDTH 560 0
DWIDTH 28 0
BBX 22 44 3 -8
BITMAP
7E01F8
FE03FC
FF03FC
FF03FC
FF03FC
FF03FC
FE03FC
000000
000000
000000
FF03FC
FF03FC
FF03FC
FF03FC
FF03FC
FF03FC
FF03FC
FF03FC
FF03FC
FF03FC
FF03FC
FF03FC
FF03FC
FF03FC
FF03FC
FF03FC
FF03FC
FF03FC
FF03FC
FF03FC
FF03FC
FF03FC
FF03FC
FF03FC
FF03FC
FF03FC
0003FC
001FF8
00FFF8
00FFF8
00FFF0
00FFE0
00FFC0
00FE00
ENDCHAR
STARTCHAR 0136
ENCODING 310
SWIDTH 800 0
DWIDTH 40 0
BBX 36 45 3 -11
BITMAP
FF00003FF0
FF0000FFE0
FF0001FF80
FF0003FF00
FF0007FE00
FF000FFC00
FF001FF800
FF007FE000
FF00FFC000
FF01FF8000
FF03FF0000
FF07FE0000
FF0FFC0000
FF1FF00000
FF7FE00000
FFFFC00000
FFFF800000
FFFFC00000
FF7FE00000
FF3FF00000
FF1FF80000
FF0FFE0000
FF07FF0000
FF03FF8000
FF00FFC000
FF007FE000
FF003FF000
FF001FF800
FF000FFE00
FF0007FF00
FF0003FF80
FF0000FFC0
FF00007FE0
FF00003FF0
0000000000
0003F80000
0003F80000
0003F00000
0003F00000
0003F00000
0003F00000
0007E00000
0007E00000
0007E00000
0007C00000
ENDCHAR
STARTCHAR 0137
ENCODING 311
SWIDTH 740 0
DWIDTH 37 0
BBX 33 47 3 -11
BITMAP
FE00000000
FE00000000
FE00000000
FE00000000
FE00000000
FE00000000
FE00000000
FE00000000
FE00000000
FE0003FF00
FE0007FE00
FE000FF800
FE003FF000
FE007FE000
FE00FF8000
FE01FF0000
FE03FE0000
FE0FFC0000
FE1FF00000
FE3FE00000
FE7FC00000
FFFF000000
FFFF800000
FEFFC00000
FE7FE00000
FE3FF00000
FE0FFC0000
FE07FE0000
FE03FF0000
FE01FF8000
FE00FFE000
FE003FF000
FE001FF800
FE000FFC00
FE0007FE00
FE0001FF80
0000000000
000FE00000
000FE00000
000FE00000
000FC00000
000FC00000
000FC00000
000F800000
000F800000
000F800000
001F800000
ENDCHAR
STARTCHAR 0139
ENCODING 313
SWIDTH 760 0
DWIDTH 38 0
BBX 34 48 3 0
BITMAP
07F8000000
07F0000000
0FE0000000
1FE0000000
1FC0000000
3F80000000
7F00000000
7E00000000
FE00000000
FC00000000
0000000000
0000000000
0000000000
0000000000
FE00000000
FE00000000
FE00000000
FE00000000
FE00000000
FE00000000
FE00000000
FE00000000
FE00000000
FE00000000
FE00000000
FE00000000
FE00000000
FE00000000
FE00000000
FE00000000
FE00000000
FE00000000
FE00000000
FE00000000
FE00000000
FE00000000
FE00000000
FE00000000
FF00000000
FF00000000
FF80000000
FFFFFFFFC0
7FFFFFFFC0
7FFFFFFFC0
3FFFFFFFC0
1FFFFFFFC0
0FFFFFFFC0
01FFFFFFC0
ENDCHAR
STARTCHAR 013A
ENCODING 314
SWIDTH 280 0
DWIDTH 14 0
BBX 14 49 2 0
BITMAP
03FC
03F8
07F0
0FF0
0FE0
1FC0
1FC0
3F80
3F00
7E00
FE00
0000
0000
7F80
7F80
7F80
7F80
7F80
7F80
7F80
7F80
7F80
7F80
7F80
7F80
7F80
7F80
7F80
7F80
7F80
7F80
7F80
7F80
7F80
7F80
7F80
7F80
7F80
7F80
7F80
7F80
7F80
7F80
7F80
7F80
7F80
7F80
7F80
7F80
ENDCHAR
STARTCHAR 013B
ENCODING 315
SWIDTH 760 0
DWIDTH 38 0
BBX 34 45 3 -11
BITMAP
FE00000000
FE00000000
FE00000000
FE00000000
FE00000000
FE00000000
FE00000000
FE00000000
FE00000000
FE00000000
FE00000000
FE00000000
FE00000000
FE00000000
FE00000000
FE00000000
FE00000000
FE00000000
FE00000000
FE00000000
FE00000000
FE00000000
FE00000000
FE00000000
FF00000000
FF00000000
FF80000000
FFFFFFFFC0
7FFFFFFFC0
7FFFFFFFC0
3FFFFFFFC0
1FFFFFFFC0
0FFFFFFFC0
01FFFFFFC0
0000000000
0003F80000
0003F80000
0003F80000
0003F00000
0003F00000
0003F00000
0003F00000
0003E00000
0003E00000
0007E00000
ENDCHAR
STARTCHAR 013C
ENCODING 316
SWIDTH 280 0
DWIDTH 14 0
BBX 9 47 2 -11
BITMAP
7F80
7F80
7F80
7F80
7F80
7F80
7F80
7F80
7F80
7F80
7F80
7F80
7F80
7F80
7F80
7F80
7F80
7F80
7F80
7F80
7F80
7F80
7F80
7F80
7F80
7F80
7F80
7F80
7F80
7F80
7F80
7F80
7F80
7F80
7F80
7F80
0000
7F00
7F00
7F00
7E00
7E00
7E00
7C00
7C00
7C00
FC00
ENDCHAR
STARTCHAR 013D
ENCODING 317
SWIDTH 760 0
DWIDTH 38 0
BBX 34 36 3 0
BITMAP
00003F8000
00003F0000
FE007F0000
FE007F0000
FE007F0000
FE007E0000
FE007E0000
FE007E0000
FE007E0000
FE007C0000
FE007C0000
FE007C0000
FE00000000
FE00000000
FE00000000
FE00000000
FE00000000
FE00000000
FE00000000
FE00000000
FE00000000
FE00000000
FE00000000
FE00000000
FE00000000
FE00000000
FF00000000
FF00000000
FF80000000
FFFFFFFFC0
7FFFFFFFC0
7FFFFFFFC0
3FFFFFFFC0
1FFFFFFFC0
0FFFFFFFC0
01FFFFFFC0
ENDCHAR
STARTCHAR 013E
ENCODING 318
SWIDTH 420 0
DWIDTH 21 0
BBX 18 36 3 0
BITMAP
FF1FC0
FF1FC0
FF1FC0
FF1FC0
FF1F80
FF1F80
FF1F80
FF1F80
FF1F00
FF1F00
FF3F00
FF3F00
FF0000
FF0000
FF0000
FF0000
FF0000
FF0000
FF0000
FF0000
FF0000
FF0000
FF0000
FF0000
FF0000
FF0000
FF0000
FF0000
FF0000
FF0000
FF0000
FF0000
FF0000
FF0000
FF0000
FF0000
ENDCHAR
STARTCHAR 013F
ENCODING 319
SWIDTH 760 0
DWIDTH 38 0
BBX 34 34 3 0
BITMAP
FE00000000
FE00000000
FE00000000
FE00000000
FE00000000
FE00000000
FE00000000
FE00000000
FE00000000
FE00000000
FE00000000
FE007E0000
FE007F0000
FE00FF0000
FE00FF0000
FE00FF0000
FE00FF0000
FE007F0000
FE00000000
FE00000000
FE00000000
FE00000000
FE00000000
FE00000000
FF00000000
FF00000000
FF80000000
FFFFFFFFC0
7FFFFFFFC0
7FFFFFFFC0
3FFFFFFFC0
1FFFFFFFC0
0FFFFFFFC0
01FFFFFFC0
ENDCHAR
STARTCHAR 0140
ENCODING 320
SWIDTH 420 0
DWIDTH 21 0
BBX 18 36 3 0
BITMAP
FF0000
FF0000
FF0000
FF0000
FF0000
FF0000
FF0000
FF0000
FF0000
FF0000
FF0000
FF0000
FF0000
FF0000
FF1F80
FF3FC0
FF3FC0
FF3FC0
FF3FC0
FF3FC0
FF1FC0
FF0000
FF0000
FF0000
FF0000
FF0000
FF0000
FF0000
FF0000
FF0000
FF0000
FF0000
FF0000
FF0000
FF0000
FF0000
ENDCHAR
STARTCHAR 0141
ENCODING 321
SWIDTH 780 0
DWIDTH 39 0
BBX 38 34 0 0
BITMAP
0FF0000000
0FF0000000
0FF0000000
0FF0000000
0FF000E000
0FF03FE000
0FFFFFE000
0FFFFFE000
FFFFFFE000
FFFFFFE000
FFFFFF0000
FFFFC00000
FFF0000000
FFF0000000
0FF0000000
0FF0000000
0FF0000000
0FF0000000
0FF0000000
0FF0000000
0FF0000000
0FF0000000
0FF0000000
0FF0000000
0FF0000000
0FF8000000
0FFC000000
07FFFFFFFC
07FFFFFFFC
07FFFFFFFC
03FFFFFFFC
01FFFFFFFC
00FFFFFFFC
000FFFFFFC
ENDCHAR
STARTCHAR 0142
ENCODING 322
SWIDTH 320 0
DWIDTH 16 0
BBX 16 36 0 0
BITMAP
0FF0
0FF0
0FF0
0FF0
0FF0
0FF0
0FF0
0FF0
0FF7
0FFF
FFFF
FFFF
FFFF
FFFF
FFF0
FFF0
0FF0
0FF0
0FF0
0FF0
0FF0
0FF0
0FF0
0FF0
0FF0
0FF0
0FF0
0FF0
0FF0
0FF0
0FF0
0FF0
0FF0
0FF0
0FF0
0FF0
ENDCHAR
STARTCHAR 0143
ENCODING 323
SWIDTH 920 0
DWIDTH 46 0
BBX 40 50 3 -1
BITMAP
000007F800
000007F000
00000FF000
00000FE000
00001FC000
00003F8000
00003F8000
00007F0000
00007E0000
0000FC0000
0000FC0000
0000000000
0000000000
0000000000
7C00000000
FF0000007F
FF8000007F
FFC000007F
FFE000007F
FFF000007F
FFF800007F
FFFC00007F
FFFE00007F
FFFF00007F
FFFF80007F
FEFFC0007F
FE7FE0007F
FE3FF0007F
FE1FF8007F
FE0FFC007F
FE07FE007F
FE03FF007F
FE01FF807F
FE00FFC07F
FE007FE07F
FE003FF07F
FE001FF87F
FE0007FC7F
FE0003FE7F
FE0001FF7F
FE0000FFFF
FE00007FFF
FE00003FFF
FE00001FFF
FE00000FFF
FE000007FF
FE000003FF
FE000001FF
FE000000FE
000000003C
ENDCHAR
STARTCHAR 0144
ENCODING 324
SWIDTH 820 0
DWIDTH 41 0
BBX 35 42 3 0
BITMAP
00001FE000
00003FC000
00003F8000
00007F0000
0000FF0000
0000FE0000
0001FC0000
0001F80000
0003F80000
0003F00000
0007E00000
0000000000
0000000000
0000000000
0000000000
01FFFFF000
0FFFFFFE00
1FFFFFFF00
3FFFFFFF80
7FFFFFFFC0
7FFFFFFFC0
FFF001FFC0
FF80003FE0
FF00001FE0
FE00001FE0
FE00001FE0
FE00001FE0
FE00001FE0
FE00001FE0
FE00001FE0
FE00001FE0
FE00001FE0
FE00001FE0
FE00001FE0
FE00001FE0
FE00001FE0
FE00001FE0
FE00001FE0
FE00001FE0
FE00001FE0
FE00001FE0
FE00001FE0
ENDCHAR
STARTCHAR 0145
ENCODING 325
SWIDTH 920 0
DWIDTH 46 0
BBX 40 46 3 -11
BITMAP
7C00000000
FF0000007F
FF8000007F
FFC000007F
FFE000007F
FFF000007F
FFF800007F
FFFC00007F
FFFE00007F
FFFF00007F
FFFF80007F
FEFFC0007F
FE7FE0007F
FE3FF0007F
FE1FF8007F
FE0FFC007F
FE07FE007F
FE03FF007F
FE01FF807F
FE00FFC07F
FE007FE07F
FE003FF07F
FE001FF87F
FE0007FC7F
FE0003FE7F
FE0001FF7F
FE0000FFFF
FE00007FFF
FE00003FFF
FE00001FFF
FE00000FFF
FE000007FF
FE000003FF
FE000001FF
FE000000FE
000000003C
00007F0000
00007E0000
00007E0000
00007E0000
0000FE0000
0000FC0000
0000FC0000
0000FC0000
0000F80000
0000F80000
ENDCHAR
STARTCHAR 0146
ENCODING 326
SWIDTH 820 0
DWIDTH 41 0
BBX 35 38 3 -11
BITMAP
01FFFFF000
0FFFFFFE00
1FFFFFFF00
3FFFFFFF80
7FFFFFFFC0
7FFFFFFFC0
FFF001FFC0
FF80003FE0
FF00001FE0
FE00001FE0
FE00001FE0
FE00001FE0
FE00001FE0
FE00001FE0
FE00001FE0
FE00001FE0
FE00001FE0
FE00001FE0
FE00001FE0
FE00001FE0
FE00001FE0
FE00001FE0
FE00001FE0
FE00001FE0
FE00001FE0
FE00001FE0
FE00001FE0
0000000000
0003F80000
0003F80000
0003F80000
0003F00000
0003F00000
0003F00000
0003F00000
0003E00000
0003E00000
0007E00000
ENDCHAR
STARTCHAR 0147
ENCODING 327
SWIDTH 920 0
DWIDTH 46 0
BBX 40 50 3 -1
BITMAP
01FE007F00
00FE00FF00
007F00FE00
003F81FC00
003FC3F800
001FC7F000
000FE7F000
0007FFE000
0007FFC000
0003FF8000
0001FF8000
0000FF0000
00007C0000
0000000000
7C00000000
FF0000007F
FF8000007F
FFC000007F
FFE000007F
FFF000007F
FFF800007F
FFFC00007F
FFFE00007F
FFFF00007F
FFFF80007F
FEFFC0007F
FE7FE0007F
FE3FF0007F
FE1FF8007F
FE0FFC007F
FE07FE007F
FE03FF007F
FE01FF807F
FE00FFC07F
FE007FE07F
FE003FF07F
FE001FF87F
FE0007FC7F
FE0003FE7F
FE0001FF7F
FE0000FFFF
FE00007FFF
FE00003FFF
FE00001FFF
FE00000FFF
FE000007FF
FE000003FF
FE000001FF
FE000000FE
000000003C
ENDCHAR
STARTCHAR 0148
ENCODING 328
SWIDTH 820 0
DWIDTH 41 0
BBX 35 42 3 0
BITMAP
07F001FC00
03F803F800
03FC07F000
01FC0FF000
00FE0FE000
007F1FC000
007FBF8000
003FFF0000
001FFF0000
000FFE0000
0007FC0000
0007F80000
0001F00000
0000000000
0000000000
01FFFFF000
0FFFFFFE00
1FFFFFFF00
3FFFFFFF80
7FFFFFFFC0
7FFFFFFFC0
FFF001FFC0
FF80003FE0
FF00001FE0
FE00001FE0
FE00001FE0
FE00001FE0
FE00001FE0
FE00001FE0
FE00001FE0
FE00001FE0
FE00001FE0
FE00001FE0
FE00001FE0
FE00001FE0
FE00001FE0
FE00001FE0
FE00001FE0
FE00001FE0
FE00001FE0
FE00001FE0
FE00001FE0
ENDCHAR
STARTCHAR 014A
ENCODING 330
SWIDTH 920 0
DWIDTH 46 0
BBX 40 46 3 -11
BITMAP
7C00000000
FF0000007F
FF8000007F
FFC000007F
FFE000007F
FFF000007F
FFF800007F
FFFC00007F
FFFE00007F
FFFF00007F
FFFF80007F
FEFFC0007F
FE7FE0007F
FE3FF0007F
FE1FF8007F
FE0FFC007F
FE07FE007F
FE03FF007F
FE01FF807F
FE00FFC07F
FE007FE07F
FE003FF07F
FE001FF87F
FE0007FC7F
FE0003FE7F
FE0001FF7F
FE0000FFFF
FE00007FFF
FE00003FFF
FE00001FFF
FE00000FFF
FE000007FF
FE000003FF
FE000001FF
FE000000FF
000000007F
00000000FF
00000000FF
00000000FF
00000007FE
0000003FFE
0000003FFE
0000003FFC
0000003FF8
0000003FF0
0000003F80
ENDCHAR
STARTCHAR 014B
ENCODING 331
SWIDTH 820 0
DWIDTH 41 0
BBX 35 38 3 -11
BITMAP
01FFFFF000
0FFFFFFE00
1FFFFFFF00
3FFFFFFF80
7FFFFFFFC0
7FFFFFFFC0
FFF001FFC0
FF80003FE0
FF00001FE0
FE00001FE0
FE00001FE0
FE00001FE0
FE00001FE0
FE00001FE0
FE00001FE0
FE00001FE0
FE00001FE0
FE00001FE0
FE00001FE0
FE00001FE0
FE00001FE0
FE00001FE0
FE00001FE0
FE00001FE0
FE00001FE0
FE00001FE0
FE00001FE0
0000001FE0
0000001FE0
0000001FE0
0000001FE0
000000FFC0
000007FFC0
000007FFC0
000007FF80
000007FF00
000007FE00
000007F000
ENDCHAR
STARTCHAR 014C
ENCODING 332
SWIDTH 880 0
DWIDTH 44 0
BBX 39 45 3 0
BITMAP
03FFFFFF00
03FFFFFF00
03FFFFFF00
03FFFFFF00
03FFFFFF00
0000000000
0000000000
0000000000
0000000000
0000000000
0000000000
01FFFFFE00
0FFFFFFFC0
1FFFFFFFF0
3FFFFFFFF8
7FFFFFFFF8
7FFFFFFFFC
FFFFFFFFFC
FF800003FC
FF000003FE
FE000001FE
FE000001FE
FE000001FE
FE000001FE
FE000001FE
FE000001FE
FE000001FE
FE000001FE
FE000001FE
FE000001FE
FE000001FE
FE000001FE
FE000001FE
FE000001FE
FE000001FE
FE000001FE
FF000001FE
FF000003FC
FFFFFFFFFC
7FFFFFFFFC
7FFFFFFFF8
3FFFFFFFF8
1FFFFFFFF0
0FFFFFFFC0
01FFFFFE00
ENDCHAR
STARTCHAR 014D
ENCODING 333
SWIDTH 820 0
DWIDTH 41 0
BBX 35 38 3 0
BITMAP
0FFFFFFC00
0FFFFFFC00
0FFFFFFC00
0FFFFFFC00
0FFFFFFC00
0000000000
0000000000
0000000000
0000000000
0000000000
0000000000
01FFFFE000
0FFFFFFC00
1FFFFFFF00
3FFFFFFF80
7FFFFFFF80
7FFFFFFFC0
FFF003FFC0
FF00003FC0
FF00001FE0
FE00001FE0
FE00001FE0
FE00001FE0
FE00001FE0
FE00001FE0
FE00001FE0
FE00001FE0
FE00001FE0
FE00001FE0
FF00001FE0
FF00003FC0
FFE001FFC0
7FFFFFFFC0
7FFFFFFF80
3FFFFFFF80
1FFFFFFF00
0FFFFFFC00
01FFFFE000
ENDCHAR
STARTCHAR 014E
ENCODING 334
SWIDTH 880 0
DWIDTH 44 0
BBX 39 49 3 0
BITMAP
00FC007C00
00FC007C00
00FC007C00
00FC007C00
00FC00FC00
007E01FC00
007FFFF800
007FFFF800
003FFFF000
001FFFE000
0001FE0000
0000000000
0000000000
0000000000
0000000000
01FFFFFE00
0FFFFFFFC0
1FFFFFFFF0
3FFFFFFFF8
7FFFFFFFF8
7FFFFFFFFC
FFFFFFFFFC
FF800003FC
FF000003FE
FE000001FE
FE000001FE
FE000001FE
FE000001FE
FE000001FE
FE000001FE
FE000001FE
FE000001FE
FE000001FE
FE000001FE
FE000001FE
FE000001FE
FE000001FE
FE000001FE
FE000001FE
FE000001FE
FF000001FE
FF000003FC
FFFFFFFFFC
7FFFFFFFFC
7FFFFFFFF8
3FFFFFFFF8
1FFFFFFFF0
0FFFFFFFC0
01FFFFFE00
ENDCHAR
STARTCHAR 014F
ENCODING 335
SWIDTH 820 0
DWIDTH 41 0
BBX 35 42 3 0
BITMAP
03F001F000
03F001F000
03F001F000
03F001F000
01F003F000
01F803F000
01FFFFF000
01FFFFE000
00FFFFE000
007FFF8000
0007F80000
0000000000
0000000000
0000000000
0000000000
01FFFFE000
0FFFFFFC00
1FFFFFFF00
3FFFFFFF80
7FFFFFFF80
7FFFFFFFC0
FFF003FFC0
FF00003FC0
FF00001FE0
FE00001FE0
FE00001FE0
FE00001FE0
FE00001FE0
FE00001FE0
FE00001FE0
FE00001FE0
FE00001FE0
FE00001FE0
FF00001FE0
FF00003FC0
FFE001FFC0
7FFFFFFFC0
7FFFFFFF80
3FFFFFFF80
1FFFFFFF00
0FFFFFFC00
01FFFFE000
ENDCHAR
STARTCHAR 0150
ENCODING 336
SWIDTH 880 0
DWIDTH 44 0
BBX 39 49 3 0
BITMAP
0003FC0FE0
0007F81FE0
0007F03FC0
000FE03F80
000FE07F00
001FC07F00
003F80FE00
003F80FC00
007F01F800
007E03F800
00FC03F000
0000000000
0000000000
0000000000
0000000000
01FFFFFE00
0FFFFFFFC0
1FFFFFFFF0
3FFFFFFFF8
7FFFFFFFF8
7FFFFFFFFC
FFFFFFFFFC
FF800003FC
FF000003FE
FE000001FE
FE000001FE
FE000001FE
FE000001FE
FE000001FE
FE000001FE
FE000001FE
FE000001FE
FE000001FE
FE000001FE
FE000001FE
FE000001FE
FE000001FE
FE000001FE
FE000001FE
FE000001FE
FF000001FE
FF000003FC
FFFFFFFFFC
7FFFFFFFFC
7FFFFFFFF8
3FFFFFFFF8
1FFFFFFFF0
0FFFFFFFC0
01FFFFFE00
ENDCHAR
STARTCHAR 0151
ENCODING 337
SWIDTH 820 0
DWIDTH 41 0
BBX 35 42 3 0
BITMAP
000FF03F80
001FE07F80
001FC0FF00
003F80FE00
003F81FC00
007F01FC00
00FE03F800
00FE03F000
01FC07F000
01F80FE000
03F00FC000
0000000000
0000000000
0000000000
0000000000
01FFFFE000
0FFFFFFC00
1FFFFFFF00
3FFFFFFF80
7FFFFFFF80
7FFFFFFFC0
FFF003FFC0
FF00003FC0
FF00001FE0
FE00001FE0
FE00001FE0
FE00001FE0
FE00001FE0
FE00001FE0
FE00001FE0
FE00001FE0
FE00001FE0
FE00001FE0
FF00001FE0
FF00003FC0
FFE001FFC0
7FFFFFFFC0
7FFFFFFF80
3FFFFFFF80
1FFFFFFF00
0FFFFFFC00
01FFFFE000
ENDCHAR
STARTCHAR 0152
ENCODING 338
SWIDTH 1440 0
DWIDTH 72 0
BBX 67 34 3 0
BITMAP
01FFFFFE03FFF00000
0FFFFFFFDFFFF00000
1FFFFFFFFFFFF00000
3FFFFFFFFFFFF00000
7FFFFFFFFFFFF00000
7FFFFFFFFFFFF00000
FFFFFFFFFFE0000000
FF800007FE00000000
FF000003FE00000000
FE000003FC00000000
FE000001FC00000000
FE000001FC00000000
FE000001FC00000000
FE000001FC00000000
FE000001FFFFFFFFE0
FE000001FFFFFFFFE0
FE000001FFFFFFFFE0
FE000001FFFFFFFFE0
FE000001FFFFFFFFE0
FE000001FFFFFFFFE0
FE000001FC00000000
FE000001FC00000000
FE000001FC00000000
FE000001FC00000000
FE000003FC00000000
FF000003FE00000000
FF000007FE00000000
FFFFFFFFFFE0000000
7FFFFFFFFFFFFFFFE0
7FFFFFFFFFFFFFFFE0
3FFFFFFFFFFFFFFFE0
1FFFFFFFFFFFFFFFE0
0FFFFFFFDFFFFFFFE0
01FFFFFE03FFFFFFE0
ENDCHAR
STARTCHAR 0153
ENCODING 339
SWIDTH 1340 0
DWIDTH 67 0
BBX 62 27 3 0
BITMAP
01FFFFE03FFFFF00
0FFFFFFDFFFFFFE0
1FFFFFFFFFFFFFF0
3FFFFFFFFFFFFFF8
7FFFFFFFFFFFFFF8
FFFFFFFFFFFFFFFC
FFF003FFE00003FC
FF00003FE00003FC
FF00003FC00003FC
FE00001FC00003FC
FE00001FC00003FC
FE00001FFFFFFFFC
FE00001FFFFFFFFC
FE00001FFFFFFFFC
FE00001FFFFFFFFC
FE00001FFFFFFFFC
FE00001FC0000000
FE00001FC0000000
FF00003FC0000000
FF00003FE0000000
FFE001FFE0000000
7FFFFFFFFFFE0000
7FFFFFFFFFFE0000
3FFFFFFFFFFE0000
1FFFFFFFFFFE0000
0FFFFFFDFFFE0000
01FFFFE03FFE0000
ENDCHAR
STARTCHAR 0154
ENCODING 340
SWIDTH 900 0
DWIDTH 45 0
BBX 40 48 3 0
BITMAP
000007F800
00000FF000
00000FE000
00001FC000
00001FC000
00003F8000
00007F0000
00007E0000
0000FE0000
0001FC0000
0000000000
0000000000
0000000000
0000000000
FFFFFFFF80
FFFFFFFFF0
FFFFFFFFF8
FFFFFFFFFC
FFFFFFFFFE
FFFFFFFFFE
FE00000FFF
FE000001FF
FE000000FF
FE000000FF
FE000000FF
FE000000FF
FE000000FF
FE000000FF
FE000000FF
FE000000FF
FE000003FF
FFFFFFFFFE
FFFFFFFFFE
FFFFFFFFFC
FFFFFFFFF8
FFFFFFFFE0
FEFFFFFC00
FE3FFC0000
FE0FFF0000
FE07FF8000
FE01FFE000
FE007FF800
FE003FFE00
FE000FFF80
FE0003FFC0
FE0001FFF0
FE00007FFC
FE00001FFF
ENDCHAR
STARTCHAR 0155
ENCODING 341
SWIDTH 440 0
DWIDTH 22 0
BBX 19 42 3 0
BITMAP
001FE0
001FC0
003FC0
003F80
007F00
007F00
00FE00
01FC00
01F800
03F800
03F000
000000
000000
000000
000000
01FFC0
0FFFC0
1FFFC0
3FFFC0
7FFFC0
7FFFC0
7FC000
FF0000
FF0000
FE0000
FE0000
FE0000
FE0000
FE0000
FE0000
FE0000
FE0000
FE0000
FE0000
FE0000
FE0000
FE0000
FE0000
FE0000
FE0000
FE0000
FE0000
ENDCHAR
STARTCHAR 0156
ENCODING 342
SWIDTH 900 0
DWIDTH 45 0
BBX 40 45 3 -11
BITMAP
FFFFFFFF80
FFFFFFFFF0
FFFFFFFFF8
FFFFFFFFFC
FFFFFFFFFE
FFFFFFFFFE
FE00000FFF
FE000001FF
FE000000FF
FE000000FF
FE000000FF
FE000000FF
FE000000FF
FE000000FF
FE000000FF
FE000000FF
FE000003FF
FFFFFFFFFE
FFFFFFFFFE
FFFFFFFFFC
FFFFFFFFF8
FFFFFFFFE0
FEFFFFFC00
FE3FFC0000
FE0FFF0000
FE07FF8000
FE01FFE000
FE007FF800
FE003FFE00
FE000FFF80
FE0003FFC0
FE0001FFF0
FE00007FFC
FE00001FFF
0000000000
00007F0000
00007E0000
00007E0000
0000FE0000
0000FC0000
0000FC0000
0000FC0000
0000FC0000
0000F80000
0000F80000
ENDCHAR
STARTCHAR 0157
ENCODING 343
SWIDTH 440 0
DWIDTH 22 0
BBX 19 38 2 -11
BITMAP
00FFE0
07FFE0
0FFFE0
1FFFE0
3FFFE0
3FFFE0
3FE000
7F8000
7F8000
7F0000
7F0000
7F0000
7F0000
7F0000
7F0000
7F0000
7F0000
7F0000
7F0000
7F0000
7F0000
7F0000
7F0000
7F0000
7F0000
7F0000
7F0000
000000
7F0000
7F0000
7E0000
7E0000
7E0000
7C0000
FC0000
FC0000
FC0000
F80000
ENDCHAR
STARTCHAR 0158
ENCODING 344
SWIDTH 900 0
DWIDTH 45 0
BBX 40 49 3 0
BITMAP
03FC00FE00
01FC01FC00
00FE01FC00
00FF03F800
007F87F000
003F8FE000
001FDFE000
000FFFC000
000FFF8000
0007FF0000
0003FF0000
0001FE0000
0000F80000
0000000000
0000000000
FFFFFFFF80
FFFFFFFFF0
FFFFFFFFF8
FFFFFFFFFC
FFFFFFFFFE
FFFFFFFFFE
FE00000FFF
FE000001FF
FE000000FF
FE000000FF
FE000000FF
FE000000FF
FE000000FF
FE000000FF
FE000000FF
FE000000FF
FE000003FF
FFFFFFFFFE
FFFFFFFFFE
FFFFFFFFFC
FFFFFFFFF8
FFFFFFFFE0
FEFFFFFC00
FE3FFC0000
FE0FFF0000
FE07FF8000
FE01FFE000
FE007FF800
FE003FFE00
FE000FFF80
FE0003FFC0
FE0001FFF0
FE00007FFC
FE00001FFF
ENDCHAR
STARTCHAR 0159
ENCODING 345
SWIDTH 440 0
DWIDTH 22 0
BBX 26 42 0 0
BITMAP
FF003FC0
7F803F80
3F807F00
1FC0FE00
0FE1FC00
0FF1FC00
07F3F800
03FFF000
01FFE000
01FFE000
00FFC000
007F8000
001F0000
00000000
00000000
003FF800
01FFF800
03FFF800
07FFF800
0FFFF800
0FFFF800
0FF80000
1FE00000
1FE00000
1FC00000
1FC00000
1FC00000
1FC00000
1FC00000
1FC00000
1FC00000
1FC00000
1FC00000
1FC00000
1FC00000
1FC00000
1FC00000
1FC00000
1FC00000
1FC00000
1FC00000
1FC00000
ENDCHAR
STARTCHAR 015A
ENCODING 346
SWIDTH 800 0
DWIDTH 40 0
BBX 37 48 2 0
BITMAP
00000FE000
00001FE000
00003FC000
00003F8000
00007F0000
0000FE0000
0000FE0000
0001FC0000
0001F80000
0003F00000
0000000000
0000000000
0000000000
0000000000
07FFF00000
1FFFF00000
3FFFF00000
7FFFF00000
7FFFF00000
FFFFF00000
FFC0000000
FF00000000
FE00000000
FE00000000
FE00000000
FE00000000
FE00000000
FF00000000
FFFFFFFE00
7FFFFFFFC0
7FFFFFFFE0
3FFFFFFFF0
1FFFFFFFF0
07FFFFFFF0
00000007F8
00000007F8
00000003F8
00000003F8
00000003F8
00000003F8
00000007F8
0000001FF0
FFFFFFFFF0
FFFFFFFFF0
FFFFFFFFF0
FFFFFFFFE0
FFFFFFFFC0
FFFFFFFE00
ENDCHAR
STARTCHAR 015B
ENCODING 347
SWIDTH 740 0
DWIDTH 37 0
BBX 33 42 2 0
BITMAP
00003FC000
00007F8000
00007F0000
0000FE0000
0000FE0000
0001FC0000
0003F80000
0003F80000
0007F00000
0007E00000
000FC00000
0000000000
0000000000
0000000000
0000000000
0FFFC00000
3FFFC00000
7FFFC00000
7FFFC00000
7FFFC00000
FFFFC00000
FF00000000
FF00000000
FF00000000
FF00000000
FF00000000
7FFFFFF800
7FFFFFFE00
7FFFFFFF00
3FFFFFFF00
0FFFFFFF80
0000007F80
0000007F80
0000007F80
0000007F80
0000007F80
FFFFFFFF80
FFFFFFFF80
FFFFFFFF00
FFFFFFFF00
FFFFFFFE00
FFFFFFF800
ENDCHAR
STARTCHAR 015E
ENCODING 350
SWIDTH 800 0
DWIDTH 40 0
BBX 37 45 2 -11
BITMAP
07FFF00000
1FFFF00000
3FFFF00000
7FFFF00000
7FFFF00000
FFFFF00000
FFC0000000
FF00000000
FE00000000
FE00000000
FE00000000
FE00000000
FE00000000
FF00000000
FFFFFFFE00
7FFFFFFFC0
7FFFFFFFE0
3FFFFFFFF0
1FFFFFFFF0
07FFFFFFF0
00000007F8
00000007F8
00000003F8
00000003F8
00000003F8
00000003F8
00000007F8
0000001FF0
FFFFFFFFF0
FFFFFFFFF0
FFFFFFFFF0
FFFFFFFFE0
FFFFFFFFC0
FFFFFFFE00
0000000000
0001FC0000
0001FC0000
0001FC0000
0001F80000
0001F80000
0001F80000
0001F00000
0001F00000
0003F00000
0003F00000
ENDCHAR
STARTCHAR 015F
ENCODING 351
SWIDTH 740 0
DWIDTH 37 0
BBX 33 38 2 -11
BITMAP
0FFFC00000
3FFFC00000
7FFFC00000
7FFFC00000
7FFFC00000
FFFFC00000
FF00000000
FF00000000
FF00000000
FF00000000
FF00000000
7FFFFFF800
7FFFFFFE00
7FFFFFFF00
3FFFFFFF00
0FFFFFFF80
0000007F80
0000007F80
0000007F80
0000007F80
0000007F80
FFFFFFFF80
FFFFFFFF80
FFFFFFFF00
FFFFFFFF00
FFFFFFFE00
FFFFFFF800
0000000000
0003F00000
0007F00000
0007F00000
0007E00000
0007E00000
0007E00000
0007E00000
0007C00000
0007C00000
0007C00000
ENDCHAR
STARTCHAR 0160
ENCODING 352
SWIDTH 800 0
DWIDTH 40 0
BBX 37 49 2 0
BITMAP
03F800FE00
03FC01FC00
01FE03F800
00FE07F000
007F0FF000
003F8FE000
003FDFC000
001FFF8000
000FFF8000
0007FF0000
0007FE0000
0003FC0000
0000F80000
0000000000
0000000000
07FFF00000
1FFFF00000
3FFFF00000
7FFFF00000
7FFFF00000
FFFFF00000
FFC0000000
FF00000000
FE00000000
FE00000000
FE00000000
FE00000000
FE00000000
FF00000000
FFFFFFFE00
7FFFFFFFC0
7FFFFFFFE0
3FFFFFFFF0
1FFFFFFFF0
07FFFFFFF0
00000007F8
00000007F8
00000003F8
00000003F8
00000003F8
00000003F8
00000007F8
0000001FF0
FFFFFFFFF0
FFFFFFFFF0
FFFFFFFFF0
FFFFFFFFE0
FFFFFFFFC0
FFFFFFFE00
ENDCHAR
STARTCHAR 0161
ENCODING 353
SWIDTH 740 0
DWIDTH 37 0
BBX 33 42 2 0
BITMAP
0FE003F800
07F007F000
07F80FE000
03FC1FE000
01FC1FC000
00FE3F8000
007F7F0000
007FFF0000
003FFE0000
001FFC0000
000FF80000
000FF00000
0003E00000
0000000000
0000000000
0FFFC00000
3FFFC00000
7FFFC00000
7FFFC00000
7FFFC00000
FFFFC00000
FF00000000
FF00000000
FF00000000
FF00000000
FF00000000
7FFFFFF800
7FFFFFFE00
7FFFFFFF00
3FFFFFFF00
0FFFFFFF80
0000007F80
0000007F80
0000007F80
0000007F80
0000007F80
FFFFFFFF80
FFFFFFFF80
FFFFFFFF00
FFFFFFFF00
FFFFFFFE00
FFFFFFF800
ENDCHAR
STARTCHAR 0162
ENCODING 354
SWIDTH 760 0
DWIDTH 38 0
BBX 36 45 1 -11
BITMAP
FFFFFFFFF0
FFFFFFFFF0
FFFFFFFFF0
FFFFFFFFF0
FFFFFFFFF0
FFFFFFFFF0
FFFFFFFFF0
0003FC0000
0003FC0000
0003FC0000
0003FC0000
0003FC0000
0003FC0000
0003FC0000
0003FC0000
0003FC0000
0003FC0000
0003FC0000
0003FC0000
0003FC0000
0003FC0000
0003FC0000
0003FC0000
0003FC0000
0003FC0000
0003FC0000
0003FC0000
0003FC0000
0003FC0000
0003FC0000
0003FC0000
0003FC0000
0003FC0000
0003FC0000
0000000000
0001F80000
0001F80000
0003F80000
0003F80000
0003F00000
0003F00000
0003F00000
0003E00000
0003E00000
0003E00000
ENDCHAR
STARTCHAR 0163
ENCODING 355
SWIDTH 420 0
DWIDTH 21 0
BBX 20 46 1 -11
BITMAP
1FE000
1FE000
1FE000
1FE000
1FE000
1FE000
1FE000
1FE000
FFFFF0
FFFFF0
FFFFF0
FFFFF0
FFFFF0
FFFFF0
1FE000
1FE000
1FE000
1FE000
1FE000
1FE000
1FE000
1FE000
1FE000
1FE000
1FE000
1FE000
1FE000
1FE000
1FE000
1FE000
1FE000
1FE000
1FE000
1FE000
1FE000
000000
0FC000
0FC000
0FC000
1FC000
1F8000
1F8000
1F8000
1F8000
1F0000
1F0000
ENDCHAR
STARTCHAR 0164
ENCODING 356
SWIDTH 760 0
DWIDTH 38 0
BBX 36 49 1 0
BITMAP
03F801FE00
03FC01FC00
01FC03F800
00FE07F000
007F0FF000
007F8FE000
003F9FC000
001FFF8000
000FFF0000
0007FF0000
0007FE0000
0003FC0000
0000F80000
0000000000
0000000000
FFFFFFFFF0
FFFFFFFFF0
FFFFFFFFF0
FFFFFFFFF0
FFFFFFFFF0
FFFFFFFFF0
FFFFFFFFF0
0003FC0000
0003FC0000
0003FC0000
0003FC0000
0003FC0000
0003FC0000
0003FC0000
0003FC0000
0003FC0000
0003FC0000
0003FC0000
0003FC0000
0003FC0000
0003FC0000
0003FC0000
0003FC0000
0003FC0000
0003FC0000
0003FC0000
0003FC0000
0003FC0000
0003FC0000
0003FC0000
0003FC0000
0003FC0000
0003FC0000
0003FC0000
ENDCHAR
STARTCHAR 0165
ENCODING 357
SWIDTH 600 0
DWIDTH 30 0
BBX 28 36 1 0
BITMAP
000003F0
1FE007F0
1FE007F0
1FE007F0
1FE007E0
1FE007E0
1FE007E0
1FE007E0
1FE007E0
FFFFF7C0
FFFFF7C0
FFFFF7C0
FFFFF000
FFFFF000
FFFFF000
1FE00000
1FE00000
1FE00000
1FE00000
1FE00000
1FE00000
1FE00000
1FE00000
1FE00000
1FE00000
1FE00000
1FE00000
1FE00000
1FE00000
1FE00000
1FE00000
1FE00000
1FE00000
1FE00000
1FE00000
1FE00000
ENDCHAR
STARTCHAR 0166
ENCODING 358
SWIDTH 760 0
DWIDTH 38 0
BBX 36 34 1 0
BITMAP
FFFFFFFFF0
FFFFFFFFF0
FFFFFFFFF0
FFFFFFFFF0
FFFFFFFFF0
FFFFFFFFF0
FFFFFFFFF0
0003FC0000
0003FC0000
0003FC0000
0003FC0000
0003FC0000
0003FC0000
0003FC0000
0003FC0000
0003FC0000
00FFFFF000
00FFFFF000
00FFFFF000
00FFFFF000
00FFFFF000
00FFFFF000
0003FC0000
0003FC0000
0003FC0000
0003FC0000
0003FC0000
0003FC0000
0003FC0000
0003FC0000
0003FC0000
0003FC0000
0003FC0000
0003FC0000
ENDCHAR
STARTCHAR 0167
ENCODING 359
SWIDTH 420 0
DWIDTH 21 0
BBX 20 35 1 0
BITMAP
1FE000
1FE000
1FE000
1FE000
1FE000
1FE000
1FE000
1FE000
FFFFF0
FFFFF0
FFFFF0
FFFFF0
FFFFF0
FFFFF0
1FE000
1FE000
1FE000
1FE000
1FE000
1FE000
FFFFC0
FFFFC0
FFFFC0
FFFFC0
FFFFC0
FFFFC0
1FE000
1FE000
1FE000
1FE000
1FE000
1FE000
1FE000
1FE000
1FE000
ENDCHAR
STARTCHAR 0168
ENCODING 360
SWIDTH 880 0
DWIDTH 44 0
BBX 39 45 3 0
BITMAP
03FFFFFF00
03FFFFFF00
03FFFFFF00
03FFFFFF00
03FFFFFF00
0000000000
0000000000
0000000000
0000000000
0000000000
0000000000
FE000001FE
FE000001FE
FE000001FE
FE000001FE
FE000001FE
FE000001FE
FE000001FE
FE000001FE
FE000001FE
FE000001FE
FE000001FE
FE000001FE
FE000001FE
FE000001FE
FE000001FE
FE000001FE
FE000001FE
FE000001FE
FE000001FE
FE000001FE
FE000001FE
FE000001FE
FE000001FE
FF000001FE
FF000001FE
FF000003FC
FF800003FC
FFFFFFFFFC
7FFFFFFFFC
7FFFFFFFF8
3FFFFFFFF8
1FFFFFFFF0
0FFFFFFFC0
01FFFFFF00
ENDCHAR
STARTCHAR 0169
ENCODING 361
SWIDTH 820 0
DWIDTH 41 0
BBX 35 38 3 0
BITMAP
0FFFFFFC00
0FFFFFFC00
0FFFFFFC00
0FFFFFFC00
0FFFFFFC00
0000000000
0000000000
0000000000
0000000000
0000000000
0000000000
FE00001FE0
FE00001FE0
FE00001FE0
FE00001FE0
FE00001FE0
FE00001FE0
FE00001FE0
FE00001FE0
FE00001FE0
FE00001FE0
FE00001FE0
FE00001FE0
FE00001FE0
FE00001FE0
FE00001FE0
FE00001FE0
FE00001FE0
FE00001FE0
FF00001FE0
FF80003FC0
FFE001FFC0
7FFFFFFFC0
7FFFFFFF80
3FFFFFFF80
1FFFFFFF00
0FFFFFFC00
01FFFFF000
ENDCHAR
STARTCHAR 016A
ENCODING 362
SWIDTH 880 0
DWIDTH 44 0
BBX 39 45 3 0
BITMAP
03FFFFFF00
03FFFFFF00
03FFFFFF00
03FFFFFF00
03FFFFFF00
0000000000
0000000000
0000000000
0000000000
0000000000
0000000000
FE000001FE
FE000001FE
FE000001FE
FE000001FE
FE000001FE
FE000001FE
FE000001FE
FE000001FE
FE000001FE
FE000001FE
FE000001FE
FE000001FE
FE000001FE
FE000001FE
FE000001FE
FE000001FE
FE000001FE
FE000001FE
FE000001FE
FE000001FE
FE000001FE
FE000001FE
FE000001FE
FF000001FE
FF000001FE
FF000003FC
FF800003FC
FFFFFFFFFC
7FFFFFFFFC
7FFFFFFFF8
3FFFFFFFF8
1FFFFFFFF0
0FFFFFFFC0
01FFFFFF00
ENDCHAR
STARTCHAR 016B
ENCODING 363
SWIDTH 820 0
DWIDTH 41 0
BBX 35 38 3 0
BITMAP
0FFFFFFC00
0FFFFFFC00
0FFFFFFC00
0FFFFFFC00
0FFFFFFC00
0000000000
0000000000
0000000000
0000000000
0000000000
0000000000
FE00001FE0
FE00001FE0
FE00001FE0
FE00001FE0
FE00001FE0
FE00001FE0
FE00001FE0
FE00001FE0
FE00001FE0
FE00001FE0
FE00001FE0
FE00001FE0
FE00001FE0
FE00001FE0
FE00001FE0
FE00001FE0
FE00001FE0
FE00001FE0
FF00001FE0
FF80003FC0
FFE001FFC0
7FFFFFFFC0
7FFFFFFF80
3FFFFFFF80
1FFFFFFF00
0FFFFFFC00
01FFFFF000
ENDCHAR
STARTCHAR 016C
ENCODING 364
SWIDTH 880 0
DWIDTH 44 0
BBX 39 49 3 0
BITMAP
00FC007C00
00FC007C00
00FC007C00
00FC007C00
00FC00FC00
007E01FC00
007FFFF800
007FFFF800
003FFFF000
001FFFE000
0001FE0000
0000000000
0000000000
0000000000
0000000000
FE000001FE
FE000001FE
FE000001FE
FE000001FE
FE000001FE
FE000001FE
FE000001FE
FE000001FE
FE000001FE
FE000001FE
FE000001FE
FE000001FE
FE000001FE
FE000001FE
FE000001FE
FE000001FE
FE000001FE
FE000001FE
FE000001FE
FE000001FE
FE000001FE
FE000001FE
FE000001FE
FF000001FE
FF000001FE
FF000003FC
FF800003FC
FFFFFFFFFC
7FFFFFFFFC
7FFFFFFFF8
3FFFFFFFF8
1FFFFFFFF0
0FFFFFFFC0
01FFFFFF00
ENDCHAR
STARTCHAR 016D
ENCODING 365
SWIDTH 820 0
DWIDTH 41 0
BBX 35 42 3 0
BITMAP
03F001F000
03F001F000
03F001F000
03F001F000
01F003F000
01F803F000
01FFFFF000
01FFFFE000
00FFFFE000
007FFF8000
0007F80000
0000000000
0000000000
0000000000
0000000000
FE00001FE0
FE00001FE0
FE00001FE0
FE00001FE0
FE00001FE0
FE00001FE0
FE00001FE0
FE00001FE0
FE00001FE0
FE00001FE0
FE00001FE0
FE00001FE0
FE00001FE0
FE00001FE0
FE00001FE0
FE00001FE0
FE00001FE0
FE00001FE0
FF00001FE0
FF80003FC0
FFE001FFC0
7FFFFFFFC0
7FFFFFFF80
3FFFFFFF80
1FFFFFFF00
0FFFFFFC00
01FFFFF000
ENDCHAR
STARTCHAR 016E
ENCODING 366
SWIDTH 880 0
DWIDTH 44 0
BBX 39 49 3 0
BITMAP
0007FF8000
000FFFE000
001FFFE000
001E01F000
001C00F000
001C00F000
001C00F000
001C00F000
001C00F000
001C00F000
001E01F000
001FFFE000
000FFFE000
0007FF8000
0000000000
FE000001FE
FE000001FE
FE000001FE
FE000001FE
FE000001FE
FE000001FE
FE000001FE
FE000001FE
FE000001FE
FE000001FE
FE000001FE
FE000001FE
FE000001FE
FE000001FE
FE000001FE
FE000001FE
FE000001FE
FE000001FE
FE000001FE
FE000001FE
FE000001FE
FE000001FE
FE000001FE
FF000001FE
FF000001FE
FF000003FC
FF800003FC
FFFFFFFFFC
7FFFFFFFFC
7FFFFFFFF8
3FFFFFFFF8
1FFFFFFFF0
0FFFFFFFC0
01FFFFFF00
ENDCHAR
STARTCHAR 016F
ENCODING 367
SWIDTH 820 0
DWIDTH 41 0
BBX 35 42 3 0
BITMAP
001FFE0000
003FFF8000
007FFF8000
007807C000
007003C000
007003C000
007003C000
007003C000
007003C000
007003C000
007807C000
007FFF8000
003FFF8000
001FFE0000
0000000000
FE00001FE0
FE00001FE0
FE00001FE0
FE00001FE0
FE00001FE0
FE00001FE0
FE00001FE0
FE00001FE0
FE00001FE0
FE00001FE0
FE00001FE0
FE00001FE0
FE00001FE0
FE00001FE0
FE00001FE0
FE00001FE0
FE00001FE0
FE00001FE0
FF00001FE0
FF80003FC0
FFE001FFC0
7FFFFFFFC0
7FFFFFFF80
3FFFFFFF80
1FFFFFFF00
0FFFFFFC00
01FFFFF000
ENDCHAR
STARTCHAR 0170
ENCODING 368
SWIDTH 880 0
DWIDTH 44 0
BBX 39 49 3 0
BITMAP
0003FC0FE0
0007F81FE0
0007F03FC0
000FE03F80
000FE07F00
001FC07F00
003F80FE00
003F80FC00
007F01F800
007E03F800
00FC03F000
0000000000
0000000000
0000000000
0000000000
FE000001FE
FE000001FE
FE000001FE
FE000001FE
FE000001FE
FE000001FE
FE000001FE
FE000001FE
FE000001FE
FE000001FE
FE000001FE
FE000001FE
FE000001FE
FE000001FE
FE000001FE
FE000001FE
FE000001FE
FE000001FE
FE000001FE
FE000001FE
FE000001FE
FE000001FE
FE000001FE
FF000001FE
FF000001FE
FF000003FC
FF800003FC
FFFFFFFFFC
7FFFFFFFFC
7FFFFFFFF8
3FFFFFFFF8
1FFFFFFFF0
0FFFFFFFC0
01FFFFFF00
ENDCHAR
STARTCHAR 0171
ENCODING 369
SWIDTH 820 0
DWIDTH 41 0
BBX 35 42 3 0
BITMAP
000FF03F80
001FE07F80
001FC0FF00
003F80FE00
003F81FC00
007F01FC00
00FE03F800
00FE03F000
01FC07F000
01F80FE000
03F00FC000
0000000000
0000000000
0000000000
0000000000
FE00001FE0
FE00001FE0
FE00001FE0
FE00001FE0
FE00001FE0
FE00001FE0
FE00001FE0
FE00001FE0
FE00001FE0
FE00001FE0
FE00001FE0
FE00001FE0
FE00001FE0
FE00001FE0
FE00001FE0
FE00001FE0
FE00001FE0
FE00001FE0
FF00001FE0
FF80003FC0
FFE001FFC0
7FFFFFFFC0
7FFFFFFF80
3FFFFFFF80
1FFFFFFF00
0FFFFFFC00
01FFFFF000
ENDCHAR
STARTCHAR 0172
ENCODING 370
SWIDTH 880 0
DWIDTH 44 0
BBX 39 45 3 -11
BITMAP
FE000001FE
FE000001FE
FE000001FE
FE000001FE
FE000001FE
FE000001FE
FE000001FE
FE000001FE
FE000001FE
FE000001FE
FE000001FE
FE000001FE
FE000001FE
FE000001FE
FE000001FE
FE000001FE
FE000001FE
FE000001FE
FE000001FE
FE000001FE
FE000001FE
FE000001FE
FE000001FE
FF000001FE
FF000001FE
FF000003FC
FF800003FC
FFFFFFFFFC
7FFFFFFFFC
7FFFFFFFF8
3FFFFFFFF8
1FFFFFFFF0
0FFFFFFFC0
01FFFFFF00
00007F0000
0001F80000
0003F00000
0003F00000
0007F00000
0007F00000
0007FFF000
0007FFF000
0007FFF000
0003FFF000
0001FFF000
ENDCHAR
STARTCHAR 0173
ENCODING 371
SWIDTH 820 0
DWIDTH 41 0
BBX 35 38 3 -11
BITMAP
FE00001FE0
FE00001FE0
FE00001FE0
FE00001FE0
FE00001FE0
FE00001FE0
FE00001FE0
FE00001FE0
FE00001FE0
FE00001FE0
FE00001FE0
FE00001FE0
FE00001FE0
FE00001FE0
FE00001FE0
FE00001FE0
FE00001FE0
FE00001FE0
FF00001FC0
FF80003FC0
FFE001FFC0
7FFFFFFFC0
7FFFFFFF80
3FFFFFFF80
1FFFFFFF00
0FFFFFFE00
01FFFFF000
0001F80000
0007C00000
000F800000
001F800000
001F800000
001FC00000
001FFF8000
001FFF8000
001FFF8000
000FFF8000
0007FF8000
ENDCHAR
STARTCHAR 0174
ENCODING 372
SWIDTH 1340 0
DWIDTH 67 0
BBX 65 50 1 -1
BITMAP
00000003E000000000
00000007F800000000
0000000FF800000000
0000001FFC00000000
0000003FFE00000000
0000007FFF00000000
0000007F7F00000000
000000FE3F80000000
000001FC1FC0000000
000003FC1FE0000000
000003F80FF0000000
000007F007F0000000
00000FE003F8000000
000000000000000000
00000003E000000000
FF000007F000007F80
FF80000FF800007F80
FF80000FF80000FF80
7F80001FFC0000FF00
7FC0001FFC0000FF00
3FC0001FFE0001FE00
3FE0003FFE0001FE00
1FE0003FFF0003FC00
1FE0007FFF0003FC00
1FF0007FFF0007F800
0FF000FF7F8007F800
0FF800FF7F8007F800
07F801FE3FC00FF000
07F801FE3FC00FF000
07FC03FC1FE01FE000
03FC03FC1FE01FE000
03FE03F80FE01FC000
01FE07F80FF03FC000
01FE07F007F03FC000
00FF0FF007F87F8000
00FF0FE007F87F8000
00FF9FE003FCFF0000
007F9FC003FCFF0000
007FBFC001FEFE0000
003FFFC001FFFE0000
003FFF8000FFFC0000
003FFF8000FFFC0000
001FFF00007FFC0000
001FFF00007FF80000
000FFE00007FF80000
000FFE00003FF00000
0007FC00003FF00000
0007FC00001FE00000
0003F800000FE00000
0001F0000007800000
ENDCHAR
STARTCHAR 0175
ENCODING 373
SWIDTH 1100 0
DWIDTH 55 0
BBX 53 43 1 -1
BITMAP
000000F8000000
000001FC000000
000003FE000000
000007FF000000
00000FFF800000
00001FFFC00000
00001FDFC00000
00003F8FE00000
00007F07F00000
0000FF07F80000
0000FE03FC0000
0001FC01FC0000
0003F800FE0000
00000000000000
00000078000000
FE0001FC0003F8
FF0001FE0003F8
7F0003FE0007F0
7F8003FF0007F0
7F8007FF000FF0
3F8007FF000FE0
3FC00FFF801FE0
1FC00FFF801FC0
1FE01FDFC03FC0
0FE01FDFC03F80
0FF01FCFE03F80
0FF03F8FE07F00
07F03F8FF07F00
07F87F07F0FF00
03F87F07F0FE00
03FCFE03F9FE00
01FCFE03F9FC00
01FFFC01FFFC00
01FFFC01FFF800
00FFF800FFF800
00FFF800FFF000
007FF000FFF000
007FF0007FF000
003FE0007FE000
003FE0003FE000
003FC0003FC000
001FC0001FC000
000F80000F0000
ENDCHAR
STARTCHAR 0176
ENCODING 374
SWIDTH 960 0
DWIDTH 48 0
BBX 46 49 1 0
BITMAP
00000FC00000
00001FE00000
00003FF00000
00007FF80000
00007FF80000
0000FFFC0000
0001FCFE0000
0003FCFF0000
0003F87F0000
0007F03F8000
000FE01FC000
001FE01FE000
001FC00FF000
000000000000
000000000000
FFC0000007FC
7FE000001FF8
3FF000003FF0
1FF800007FE0
0FFE0000FFC0
07FF0001FF80
03FF8003FF00
00FFC007FE00
007FE01FF800
003FF03FF000
001FF87FE000
000FFCFFC000
0007FFFF8000
0003FFFF0000
0001FFFE0000
0000FFFC0000
00003FF80000
00001FE00000
00001FE00000
00001FE00000
00001FE00000
00001FE00000
00001FE00000
00001FE00000
00001FE00000
00001FE00000
00001FE00000
00001FE00000
00001FE00000
00001FE00000
00001FE00000
00001FE00000
00001FE00000
00001FE00000
ENDCHAR
STARTCHAR 0177
ENCODING 375
SWIDTH 820 0
DWIDTH 41 0
BBX 35 50 3 -8
BITMAP
0001F00000
0003FC0000
0007FC0000
000FFE0000
001FFF0000
001FFF8000
003FBFC000
007F1FC000
00FE0FE000
01FE07F000
01FC07F800
03F803F800
07F001FC00
0000000000
0000000000
FE00000FE0
FE00000FE0
FE00000FE0
FE00000FE0
FE00000FE0
FE00000FE0
FE00000FE0
FE00000FE0
FE00000FE0
FE00000FE0
FE00000FE0
FE00000FE0
FE00000FE0
FE00000FE0
FE00000FE0
FE00000FE0
FF00000FE0
FF80000FE0
FFFFFFFFE0
7FFFFFFFE0
7FFFFFFFE0
3FFFFFFFE0
0FFFFFFFE0
03FFFFFFE0
0000000FE0
0000000FE0
0000000FE0
0000000FE0
0000001FE0
0001FFFFE0
0001FFFFE0
0001FFFFC0
0001FFFFC0
0001FFFF00
0001FFFC00
ENDCHAR
STARTCHAR 0178
ENCODING 376
SWIDTH 960 0
DWIDTH 48 0
BBX 46 43 1 0
BITMAP
0003F03F8000
0007F03F8000
0007F03F8000
0007F03F8000
0007F03F8000
0007F03F8000
0007F03F8000
000000000000
000000000000
FFC0000007FC
7FE000001FF8
3FF000003FF0
1FF800007FE0
0FFE0000FFC0
07FF0001FF80
03FF8003FF00
00FFC007FE00
007FE01FF800
003FF03FF000
001FF87FE000
000FFCFFC000
0007FFFF8000
0003FFFF0000
0001FFFE0000
0000FFFC0000
00003FF80000
00001FE00000
00001FE00000
00001FE00000
00001FE00000
00001FE00000
00001FE00000
00001FE00000
00001FE00000
00001FE00000
00001FE00000
00001FE00000
00001FE00000
00001FE00000
00001FE00000
00001FE00000
00001FE00000
00001FE00000
ENDCHAR
STARTCHAR 0179
ENCODING 377
SWIDTH 840 0
DWIDTH 42 0
BBX 38 48 2 0
BITMAP
00000FF000
00000FE000
00001FE000
00001FC000
00003F8000
00007F0000
00007E0000
0000FE0000
0001FC0000
0001F80000
0000000000
0000000000
0000000000
0000000000
7FFFFFFFF0
7FFFFFFFF8
7FFFFFFFF8
7FFFFFFFF8
7FFFFFFFF8
7FFFFFFFF8
7FFFFFFFF0
0000007FE0
000001FFC0
000003FF80
000007FF00
00000FFC00
00001FF800
00003FF000
0000FFE000
0001FFC000
0003FF8000
0007FF0000
000FFC0000
001FF80000
007FF00000
00FFE00000
01FFC00000
03FF800000
07FF000000
0FFC000000
3FF8000000
7FFFFFFFFC
FFFFFFFFFC
FFFFFFFFFC
FFFFFFFFFC
FFFFFFFFFC
FFFFFFFFFC
7FFFFFFFFC
ENDCHAR
STARTCHAR 017A
ENCODING 378
SWIDTH 700 0
DWIDTH 35 0
BBX 31 42 2 0
BITMAP
00007F80
0000FF00
0000FE00
0001FE00
0001FC00
0003F800
0007F000
0007F000
000FE000
000FC000
001F8000
00000000
00000000
00000000
00000000
FFFFFFF8
FFFFFFFC
FFFFFFFC
FFFFFFFC
FFFFFFFC
FFFFFFF8
00001FF0
00003FE0
00007FC0
0000FF00
0003FE00
0007FC00
000FF800
001FF000
003FE000
00FF8000
01FF0000
03FE0000
07FC0000
0FF80000
3FF00000
7FFFFFFE
FFFFFFFE
FFFFFFFE
FFFFFFFE
FFFFFFFE
7FFFFFFE
ENDCHAR
STARTCHAR 017B
ENCODING 379
SWIDTH 840 0
DWIDTH 42 0
BBX 38 43 2 0
BITMAP
0000FC0000
0001FC0000
0001FC0000
0001FC0000
0001FC0000
0001FC0000
0001FC0000
0000000000
0000000000
7FFFFFFFF0
7FFFFFFFF8
7FFFFFFFF8
7FFFFFFFF8
7FFFFFFFF8
7FFFFFFFF8
7FFFFFFFF0
0000007FE0
000001FFC0
000003FF80
000007FF00
00000FFC00
00001FF800
00003FF000
0000FFE000
0001FFC000
0003FF8000
0007FF0000
000FFC0000
001FF80000
007FF00000
00FFE00000
01FFC00000
03FF800000
07FF000000
0FFC000000
3FF8000000
7FFFFFFFFC
FFFFFFFFFC
FFFFFFFFFC
FFFFFFFFFC
FFFFFFFFFC
FFFFFFFFFC
7FFFFFFFFC
ENDCHAR
STARTCHAR 017C
ENCODING 380
SWIDTH 700 0
DWIDTH 35 0
BBX 31 36 2 0
BITMAP
000FC000
001FE000
001FE000
001FE000
001FE000
001FE000
000FC000
00000000
00000000
FFFFFFF8
FFFFFFFC
FFFFFFFC
FFFFFFFC
FFFFFFFC
FFFFFFF8
00001FF0
00003FE0
00007FC0
0000FF00
0003FE00
0007FC00
000FF800
001FF000
003FE000
00FF8000
01FF0000
03FE0000
07FC0000
0FF80000
3FF00000
7FFFFFFE
FFFFFFFE
FFFFFFFE
FFFFFFFE
FFFFFFFE
7FFFFFFE
ENDCHAR
STARTCHAR 017D
ENCODING 381
SWIDTH 840 0
DWIDTH 42 0
BBX 38 49 2 0
BITMAP
01FC00FF00
01FE00FE00
00FE01FC00
007F03F800
003F87F000
003FC7F000
001FCFE000
000FFFC000
0007FF8000
0007FF8000
0003FF0000
0001FE0000
00007C0000
0000000000
0000000000
7FFFFFFFF0
7FFFFFFFF8
7FFFFFFFF8
7FFFFFFFF8
7FFFFFFFF8
7FFFFFFFF8
7FFFFFFFF0
0000007FE0
000001FFC0
000003FF80
000007FF00
00000FFC00
00001FF800
00003FF000
0000FFE000
0001FFC000
0003FF8000
0007FF0000
000FFC0000
001FF80000
007FF00000
00FFE00000
01FFC00000
03FF800000
07FF000000
0FFC000000
3FF8000000
7FFFFFFFFC
FFFFFFFFFC
FFFFFFFFFC
FFFFFFFFFC
FFFFFFFFFC
FFFFFFFFFC
7FFFFFFFFC
ENDCHAR
STARTCHAR 017E
ENCODING 382
SWIDTH 700 0
DWIDTH 35 0
BBX 31 42 2 0
BITMAP
1FC007F0
0FE00FE0
07F01FC0
07F81FC0
03F83F80
01FC7F00
00FEFE00
00FFFE00
007FFC00
003FF800
001FF000
000FF000
0007C000
00000000
00000000
FFFFFFF8
FFFFFFFC
FFFFFFFC
FFFFFFFC
FFFFFFFC
FFFFFFF8
00001FF0
00003FE0
00007FC0
0000FF00
0003FE00
0007FC00
000FF800
001FF000
003FE000
00FF8000
01FF0000
03FE0000
07FC0000
0FF80000
3FF00000
7FFFFFFE
FFFFFFFE
FFFFFFFE
FFFFFFFE
FFFFFFFE
7FFFFFFE
ENDCHAR
STARTCHAR 0192
ENCODING 402
SWIDTH 560 0
DWIDTH 28 0
BBX 25 39 1 -5
BITMAP
00001F80
0000FF80
0001FF80
0003FF80
0007FF80
000FF800
000FE000
000FC000
000FC000
001F8000
001F8000
001F8000
001F8000
0FFFFF00
0FFFFF00
0FFFFF00
0FFFFF00
0FFFFF00
003F0000
003F0000
007E0000
007E0000
007E0000
007E0000
007E0000
00FE0000
00FC0000
00FC0000
00FC0000
00FC0000
01FC0000
01F80000
03F80000
0FF80000
FFF00000
FFE00000
FFE00000
FF800000
FC000000
ENDCHAR
STARTCHAR 0218
ENCODING 536
SWIDTH 800 0
DWIDTH 40 0
BBX 37 45 2 -11
BITMAP
07FFF00000
1FFFF00000
3FFFF00000
7FFFF00000
7FFFF00000
FFFFF00000
FFC0000000
FF00000000
FE00000000
FE00000000
FE00000000
FE00000000
FE00000000
FF00000000
FFFFFFFE00
7FFFFFFFC0
7FFFFFFFE0
3FFFFFFFF0
1FFFFFFFF0
07FFFFFFF0
00000007F8
00000007F8
00000003F8
00000003F8
00000003F8
00000003F8
00000007F8
0000001FF0
FFFFFFFFF0
FFFFFFFFF0
FFFFFFFFF0
FFFFFFFFE0
FFFFFFFFC0
FFFFFFFE00
0000000000
0001FC0000
0001FC0000
0001FC0000
0001F80000
0001F80000
0001F80000
0001F00000
0001F00000
0003F00000
0003F00000
ENDCHAR
STARTCHAR 0219
ENCODING 537
SWIDTH 740 0
DWIDTH 37 0
BBX 33 38 2 -11
BITMAP
0FFFC00000
3FFFC00000
7FFFC00000
7FFFC00000
7FFFC00000
FFFFC00000
FF00000000
FF00000000
FF00000000
FF00000000
FF00000000
7FFFFFF800
7FFFFFFE00
7FFFFFFF00
3FFFFFFF00
0FFFFFFF80
0000007F80
0000007F80
0000007F80
0000007F80
0000007F80
FFFFFFFF80
FFFFFFFF80
FFFFFFFF00
FFFFFFFF00
FFFFFFFE00
FFFFFFF800
0000000000
0003F00000
0007F00000
0007F00000
0007E00000
0007E00000
0007E00000
0007E00000
0007C00000
0007C00000
0007C00000
ENDCHAR
STARTCHAR 021A
ENCODING 538
SWIDTH 760 0
DWIDTH 38 0
BBX 36 45 1 -11
BITMAP
FFFFFFFFF0
FFFFFFFFF0
FFFFFFFFF0
FFFFFFFFF0
FFFFFFFFF0
FFFFFFFFF0
FFFFFFFFF0
0003FC0000
0003FC0000
0003FC0000
0003FC0000
0003FC0000
0003FC0000
0003FC0000
0003FC0000
0003FC0000
0003FC0000
0003FC0000
0003FC0000
0003FC0000
0003FC0000
0003FC0000
0003FC0000
0003FC0000
0003FC0000
0003FC0000
0003FC0000
0003FC0000
0003FC0000
0003FC0000
0003FC0000
0003FC0000
0003FC0000
0003FC0000
0000000000
0001F80000
0001F80000
0003F80000
0003F80000
0003F00000
0003F00000
0003F00000
0003E00000
0003E00000
0003E00000
ENDCHAR
STARTCHAR 021B
ENCODING 539
SWIDTH 420 0
DWIDTH 21 0
BBX 20 46 1 -11
BITMAP
1FE000
1FE000
1FE000
1FE000
1FE000
1FE000
1FE000
1FE000
FFFFF0
FFFFF0
FFFFF0
FFFFF0
FFFFF0
FFFFF0
1FE000
1FE000
1FE000
1FE000
1FE000
1FE000
1FE000
1FE000
1FE000
1FE000
1FE000
1FE000
1FE000
1FE000
1FE000
1FE000
1FE000
1FE000
1FE000
1FE000
1FE000
000000
0FC000
0FC000
0FC000
1FC000
1F8000
1F8000
1F8000
1F8000
1F0000
1F0000
ENDCHAR
STARTCHAR 02C6
ENCODING 710
SWIDTH 640 0
DWIDTH 32 0
BBX 25 13 3 29
BITMAP
003E0000
007F8000
00FFC000
01FFC000
03FFE000
03FFF000
07F7F800
0FE3F800
1FE1FC00
1FC0FE00
3F80FF00
7F007F80
FF003F80
ENDCHAR
STARTCHAR 02C7
ENCODING 711
SWIDTH 640 0
DWIDTH 32 0
BBX 25 13 3 29
BITMAP
FF003F80
7F007F80
3F807F00
1FC0FE00
1FE1FC00
0FE3F800
07F3F800
03FFF000
03FFE000
01FFC000
00FFC000
007F8000
003E0000
ENDCHAR
STARTCHAR 02D8
ENCODING 728
SWIDTH 540 0
DWIDTH 27 0
BBX 21 11 3 31
BITMAP
F800F8
F800F8
F800F8
F800F8
FC00F8
FC01F8
FFFFF8
7FFFF8
7FFFF0
1FFFE0
05FE00
ENDCHAR
STARTCHAR 02D9
ENCODING 729
SWIDTH 260 0
DWIDTH 13 0
BBX 7 7 3 29
BITMAP
7E
FE
FE
FE
FE
FE
FE
ENDCHAR
STARTCHAR 02DA
ENCODING 730
SWIDTH 460 0
DWIDTH 23 0
BBX 17 14 3 28
BITMAP
3FFE00
7FFF00
FFFF80
F80780
F00780
F00780
F00780
F00780
F00780
F00780
F00780
FFFF80
7FFF00
3FFE00
ENDCHAR
STARTCHAR 02DB
ENCODING 731
SWIDTH 400 0
DWIDTH 20 0
BBX 14 11 3 -11
BITMAP
0FE0
3E00
7C00
FC00
FC00
FE00
FFFC
FFFC
FFFC
7FFC
3FFC
ENDCHAR
STARTCHAR 02DC
ENCODING 732
SWIDTH 640 0
DWIDTH 32 0
BBX 26 5 3 33
BITMAP
FFFFFFC0
FFFFFFC0
FFFFFFC0
FFFFFFC0
FFFFFFC0
ENDCHAR
STARTCHAR 02DD
ENCODING 733
SWIDTH 680 0
DWIDTH 34 0
BBX 27 11 3 31
BITMAP
03FC0FE0
07F81FE0
07F01FC0
0FF03F80
0FE07F80
1FC07F00
1F80FE00
3F80FC00
7F01FC00
7E03F800
FC03F000
ENDCHAR
STARTCHAR 0394
ENCODING 916
SWIDTH 1040 0
DWIDTH 52 0
BBX 50 35 1 0
BITMAP
000003F0000000
000007F8000000
00000FFC000000
00001FFE000000
00001FFE000000
00003FFF000000
00007FFF800000
00007FFF800000
0000FFFFC00000
0001FF7FC00000
0001FF3FE00000
0003FE1FF00000
0007FC1FF00000
0007FC0FF80000
000FF807FC0000
000FF007FC0000
001FF003FE0000
003FE003FE0000
003FE001FF0000
007FC000FF8000
00FF8000FF8000
00FF80007FC000
01FF00003FE000
01FE00003FE000
03FE00001FF000
07FC00001FF000
07FC00000FF800
0FF8000007FC00
1FF0000007FC00
1FFFFFFFFFFE00
3FFFFFFFFFFF00
3FFFFFFFFFFF00
7FFFFFFFFFFF80
FFFFFFFFFFFF80
FFFFFFFFFFFFC0
ENDCHAR
STARTCHAR 039B
ENCODING 923
SWIDTH 1020 0
DWIDTH 51 0
BBX 50 35 1 0
BITMAP
000003E0000000
00000FF8000000
00000FFC000000
00001FFC000000
00003FFE000000
00003FFF000000
00007FFF000000
0000FFFF800000
0000FFFFC00000
0001FF7FC00000
0001FE3FE00000
0003FE3FE00000
0007FC1FF00000
0007FC0FF80000
000FF80FF80000
001FF007FC0000
001FF007FC0000
003FE003FE0000
003FE001FF0000
007FC001FF0000
00FF8000FF8000
00FF8000FFC000
01FF00007FC000
03FE00003FE000
03FE00003FE000
07FC00001FF000
07FC00001FF800
0FF800000FF800
1FF0000007FC00
1FF0000007FC00
3FE0000003FE00
3FE0000003FF00
7FC0000001FF00
FF80000000FF80
FF80000000FFC0
ENDCHAR
STARTCHAR 03A9
ENCODING 937
SWIDTH 900 0
DWIDTH 45 0
BBX 39 34 3 0
BITMAP
03FFFFFF00
1FFFFFFFE0
3FFFFFFFF0
7FFFFFFFF8
7FFFFFFFFC
FFFFFFFFFC
FFFFFFFFFE
FF000003FE
FF000001FE
FE000001FE
FE000001FE
FE000001FE
FE000001FE
FE000001FE
FE000001FE
FE000001FE
FE000001FE
FE000001FE
FF000001FC
FF000001FC
7F000001F8
3F000003F8
1F800007F0
1FC00007E0
0FE0000FC0
07E0001F80
03F0003F80
FFF8003FFE
FFF8003FFE
FFF8003FFE
FFF8003FFE
FFF8003FFE
FFF8003FFE
FFF8003FFE
ENDCHAR
STARTCHAR 03BC
ENCODING 956
SWIDTH 840 0
DWIDTH 42 0
BBX 36 35 3 -8
BITMAP
FE00000FF0
FE00000FF0
FE00000FF0
FE00000FF0
FE00000FF0
FE00000FF0
FE00000FF0
FE00000FF0
FE00000FF0
FE00000FF0
FE00000FF0
FE00000FF0
FE00000FF0
FE00000FF0
FE00000FF0
FE00000FF0
FE00000FF0
FE00000FE0
FE00000FE0
FE00001FE0
FE0000FFE0
FFFFFFFFE0
FFFFFFFFC0
FFFFFFFFC0
FFFFFFFF80
FFFFFFFE00
FFFFFFF000
FE00000000
FE00000000
FE00000000
FE00000000
FE00000000
FE00000000
FE00000000
FE00000000
ENDCHAR
STARTCHAR 03C0
ENCODING 960
SWIDTH 820 0
DWIDTH 41 0
BBX 35 27 3 0
BITMAP
FFFFFFFFE0
FFFFFFFFE0
FFFFFFFFE0
FFFFFFFFE0
FFFFFFFFE0
FFFFFFFFE0
FE00000FE0
FE00000FE0
FE00000FE0
FE00000FE0
FE00000FE0
FE00000FE0
FE00000FE0
FE00000FE0
FE00000FE0
FE00000FE0
FE00000FE0
FE00000FE0
FE00000FE0
FE00000FE0
FE00000FE0
FE00000FE0
FE00000FE0
FE00000FE0
FE00000FE0
FE00000FE0
FE00000FE0
ENDCHAR
STARTCHAR 1E80
ENCODING 7808
SWIDTH 1340 0
DWIDTH 67 0
BBX 65 50 1 -1
BITMAP
000001FE0000000000
000000FF0000000000
0000007F0000000000
0000003F8000000000
0000003F8000000000
0000001FC000000000
0000000FE000000000
0000000FE000000000
00000007F000000000
00000003F000000000
00000001F800000000
000000000000000000
000000000000000000
000000000000000000
00000003E000000000
FF000007F000007F80
FF80000FF800007F80
FF80000FF80000FF80
7F80001FFC0000FF00
7FC0001FFC0000FF00
3FC0001FFE0001FE00
3FE0003FFE0001FE00
1FE0003FFF0003FC00
1FE0007FFF0003FC00
1FF0007FFF0007F800
0FF000FF7F8007F800
0FF800FF7F8007F800
07F801FE3FC00FF000
07F801FE3FC00FF000
07FC03FC1FE01FE000
03FC03FC1FE01FE000
03FE03F80FE01FC000
01FE07F80FF03FC000
01FE07F007F03FC000
00FF0FF007F87F8000
00FF0FE007F87F8000
00FF9FE003FCFF0000
007F9FC003FCFF0000
007FBFC001FEFE0000
003FFFC001FFFE0000
003FFF8000FFFC0000
003FFF8000FFFC0000
001FFF00007FFC0000
001FFF00007FF80000
000FFE00007FF80000
000FFE00003FF00000
0007FC00003FF00000
0007FC00001FE00000
0003F800000FE00000
0001F0000007800000
ENDCHAR
STARTCHAR 1E81
ENCODING 7809
SWIDTH 1100 0
DWIDTH 55 0
BBX 53 43 1 -1
BITMAP
00007F80000000
00003FC0000000
00001FC0000000
00001FE0000000
00000FE0000000
000007F0000000
000003F8000000
000003F8000000
000001FC000000
000000FC000000
0000007E000000
00000000000000
00000000000000
00000000000000
00000078000000
FE0001FC0003F8
FF0001FE0003F8
7F0003FE0007F0
7F8003FF0007F0
7F8007FF000FF0
3F8007FF000FE0
3FC00FFF801FE0
1FC00FFF801FC0
1FE01FDFC03FC0
0FE01FDFC03F80
0FF01FCFE03F80
0FF03F8FE07F00
07F03F8FF07F00
07F87F07F0FF00
03F87F07F0FE00
03FCFE03F9FE00
01FCFE03F9FC00
01FFFC01FFFC00
01FFFC01FFF800
00FFF800FFF800
00FFF800FFF000
007FF000FFF000
007FF0007FF000
003FE0007FE000
003FE0003FE000
003FC0003FC000
001FC0001FC000
000F80000F0000
ENDCHAR
STARTCHAR 1E82
ENCODING 7810
SWIDTH 1340 0
DWIDTH 67 0
BBX 65 50 1 -1
BITMAP
000000003FC0000000
000000007F80000000
000000007F00000000
00000000FF00000000
00000000FE00000000
00000001FC00000000
00000001F800000000
00000003F800000000
00000007F000000000
00000007E000000000
0000000FE000000000
000000000000000000
000000000000000000
000000000000000000
00000003E000000000
FF000007F000007F80
FF80000FF800007F80
FF80000FF80000FF80
7F80001FFC0000FF00
7FC0001FFC0000FF00
3FC0001FFE0001FE00
3FE0003FFE0001FE00
1FE0003FFF0003FC00
1FE0007FFF0003FC00
1FF0007FFF0007F800
0FF000FF7F8007F800
0FF800FF7F8007F800
07F801FE3FC00FF000
07F801FE3FC00FF000
07FC03FC1FE01FE000
03FC03FC1FE01FE000
03FE03F80FE01FC000
01FE07F80FF03FC000
01FE07F007F03FC000
00FF0FF007F87F8000
00FF0FE007F87F8000
00FF9FE003FCFF0000
007F9FC003FCFF0000
007FBFC001FEFE0000
003FFFC001FFFE0000
003FFF8000FFFC0000
003FFF8000FFFC0000
001FFF00007FFC0000
001FFF00007FF80000
000FFE00007FF80000
000FFE00003FF00000
0007FC00003FF00000
0007FC00001FE00000
0003F800000FE00000
0001F0000007800000
ENDCHAR
STARTCHAR 1E83
ENCODING 7811
SWIDTH 1100 0
DWIDTH 55 0
BBX 53 43 1 -1
BITMAP
0000000FF00000
0000001FE00000
0000001FC00000
0000003FC00000
0000003F800000
0000007F000000
0000007E000000
000000FE000000
000001FC000000
000001F8000000
000003F8000000
00000000000000
00000000000000
00000000000000
00000078000000
FE0001FC0003F8
FF0001FE0003F8
7F0003FE0007F0
7F8003FF0007F0
7F8007FF000FF0
3F8007FF000FE0
3FC00FFF801FE0
1FC00FFF801FC0
1FE01FDFC03FC0
0FE01FDFC03F80
0FF01FCFE03F80
0FF03F8FE07F00
07F03F8FF07F00
07F87F07F0FF00
03F87F07F0FE00
03FCFE03F9FE00
01FCFE03F9FC00
01FFFC01FFFC00
01FFFC01FFF800
00FFF800FFF800
00FFF800FFF000
007FF000FFF000
007FF0007FF000
003FE0007FE000
003FE0003FE000
003FC0003FC000
001FC0001FC000
000F80000F0000
ENDCHAR
STARTCHAR 1E84
ENCODING 7812
SWIDTH 1340 0
DWIDTH 67 0
BBX 65 44 1 -1
BITMAP
000001FC0FC0000000
000003FC1FE0000000
000003FC1FE0000000
000003FC1FE0000000
000003FC1FE0000000
000001FC1FE0000000
000001F80FC0000000
000000000000000000
00000003E000000000
FF000007F000007F80
FF80000FF800007F80
FF80000FF80000FF80
7F80001FFC0000FF00
7FC0001FFC0000FF00
3FC0001FFE0001FE00
3FE0003FFE0001FE00
1FE0003FFF0003FC00
1FE0007FFF0003FC00
1FF0007FFF0007F800
0FF000FF7F8007F800
0FF800FF7F8007F800
07F801FE3FC00FF000
07F801FE3FC00FF000
07FC03FC1FE01FE000
03FC03FC1FE01FE000
03FE03F80FE01FC000
01FE07F80FF03FC000
01FE07F007F03FC000
00FF0FF007F87F8000
00FF0FE007F87F8000
00FF9FE003FCFF0000
007F9FC003FCFF0000
007FBFC001FEFE0000
003FFFC001FFFE0000
003FFF8000FFFC0000
003FFF8000FFFC0000
001FFF00007FFC0000
001FFF00007FF80000
000FFE00007FF80000
000FFE00003FF00000
0007FC00003FF00000
0007FC00001FE00000
0003F800000FE00000
0001F0000007800000
ENDCHAR
STARTCHAR 1E85
ENCODING 7813
SWIDTH 1100 0
DWIDTH 55 0
BBX 53 37 1 -1
BITMAP
00007F03F00000
0000FF07F80000
0000FF07F80000
0000FF07F80000
0000FF07F80000
0000FF07F80000
00007E03F00000
00000000000000
00000078000000
FE0001FC0003F8
FF0001FE0003F8
7F0003FE0007F0
7F8003FF0007F0
7F8007FF000FF0
3F8007FF000FE0
3FC00FFF801FE0
1FC00FFF801FC0
1FE01FDFC03FC0
0FE01FDFC03F80
0FF01FCFE03F80
0FF03F8FE07F00
07F03F8FF07F00
07F87F07F0FF00
03F87F07F0FE00
03FCFE03F9FE00
01FCFE03F9FC00
01FFFC01FFFC00
01FFFC01FFF800
00FFF800FFF800
00FFF800FFF000
007FF000FFF000
007FF0007FF000
003FE0007FE000
003FE0003FE000
003FC0003FC000
001FC0001FC000
000F80000F0000
ENDCHAR
STARTCHAR 1EF2
ENCODING 7922
SWIDTH 960 0
DWIDTH 48 0
BBX 46 48 1 0
BITMAP
0003FC000000
0001FC000000
0001FE000000
0000FF000000
00007F000000
00003F800000
00001F800000
00001FC00000
00000FE00000
000007E00000
000000000000
000000000000
000000000000
000000000000
FFC0000007FC
7FE000001FF8
3FF000003FF0
1FF800007FE0
0FFE0000FFC0
07FF0001FF80
03FF8003FF00
00FFC007FE00
007FE01FF800
003FF03FF000
001FF87FE000
000FFCFFC000
0007FFFF8000
0003FFFF0000
0001FFFE0000
0000FFFC0000
00003FF80000
00001FE00000
00001FE00000
00001FE00000
00001FE00000
00001FE00000
00001FE00000
00001FE00000
00001FE00000
00001FE00000
00001FE00000
00001FE00000
00001FE00000
00001FE00000
00001FE00000
00001FE00000
00001FE00000
00001FE00000
ENDCHAR
STARTCHAR 1EF3
ENCODING 7923
SWIDTH 820 0
DWIDTH 41 0
BBX 35 50 3 -8
BITMAP
00FF000000
007F800000
003F800000
001FC00000
001FE00000
000FE00000
0007F00000
0003F00000
0003F80000
0001F80000
0000FC0000
0000000000
0000000000
0000000000
0000000000
FE00000FE0
FE00000FE0
FE00000FE0
FE00000FE0
FE00000FE0
FE00000FE0
FE00000FE0
FE00000FE0
FE00000FE0
FE00000FE0
FE00000FE0
FE00000FE0
FE00000FE0
FE00000FE0
FE00000FE0
FE00000FE0
FF00000FE0
FF80000FE0
FFFFFFFFE0
7FFFFFFFE0
7FFFFFFFE0
3FFFFFFFE0
0FFFFFFFE0
03FFFFFFE0
0000000FE0
0000000FE0
0000000FE0
0000000FE0
0000001FE0
0001FFFFE0
0001FFFFE0
0001FFFFC0
0001FFFFC0
0001FFFF00
0001FFFC00
ENDCHAR
STARTCHAR 2013
ENCODING 8211
SWIDTH 700 0
DWIDTH 35 0
BBX 31 6 2 13
BITMAP
FFFFFFFE
FFFFFFFE
FFFFFFFE
FFFFFFFE
FFFFFFFE
FFFFFFFE
ENDCHAR
STARTCHAR 2014
ENCODING 8212
SWIDTH 960 0
DWIDTH 48 0
BBX 44 6 2 13
BITMAP
FFFFFFFFFFF0
FFFFFFFFFFF0
FFFFFFFFFFF0
FFFFFFFFFFF0
FFFFFFFFFFF0
FFFFFFFFFFF0
ENDCHAR
STARTCHAR 2018
ENCODING 8216
SWIDTH 220 0
DWIDTH 11 0
BBX 8 12 2 24
BITMAP
FE
FE
7E
7E
7E
7F
3F
3F
3F
3F
3F
1F
ENDCHAR
STARTCHAR 2019
ENCODING 8217
SWIDTH 220 0
DWIDTH 11 0
BBX 8 12 2 24
BITMAP
7F
7F
7F
7E
7E
7E
7E
FC
FC
FC
FC
F8
ENDCHAR
STARTCHAR 201A
ENCODING 8218
SWIDTH 220 0
DWIDTH 11 0
BBX 8 12 2 -4
BITMAP
7F
7F
7F
7E
7E
7E
7E
FC
FC
FC
FC
F8
ENDCHAR
STARTCHAR 201C
ENCODING 8220
SWIDTH 460 0
DWIDTH 23 0
BBX 19 12 2 24
BITMAP
FE0FC0
FE0FE0
7E0FE0
7E0FE0
7E0FE0
7F07E0
3F07E0
3F07E0
3F07E0
3F03E0
3F03E0
1F03E0
ENDCHAR
STARTCHAR 201D
ENCODING 8221
SWIDTH 460 0
DWIDTH 23 0
BBX 19 12 2 24
BITMAP
7F07E0
7F0FE0
7F0FE0
7E0FE0
7E0FE0
7E0FC0
7E0FC0
FC0FC0
FC0FC0
FC0F80
FC0F80
F80F80
ENDCHAR
STARTCHAR 201E
ENCODING 8222
SWIDTH 460 0
DWIDTH 23 0
BBX 19 12 2 -4
BITMAP
7F07E0
7F0FE0
7F0FE0
7E0FE0
7E0FC0
7E0FC0
7E0FC0
FC0FC0
FC0FC0
FC0F80
FC0F80
F81F80
ENDCHAR
STARTCHAR 2020
ENCODING 8224
SWIDTH 420 0
DWIDTH 21 0
BBX 19 34 1 0
BITMAP
00F000
00F000
00F000
00F000
00F000
00F000
00F000
00F000
FFFFE0
FFFFE0
FFFFE0
FFFFE0
00F000
00F000
00F000
00F000
00F000
00F000
00F000
00F000
00F000
00F000
00F000
00F000
00F000
00F000
00F000
00F000
00F000
00F000
00F000
00F000
00F000
00F000
ENDCHAR
STARTCHAR 2021
ENCODING 8225
SWIDTH 420 0
DWIDTH 21 0
BBX 19 34 1 0
BITMAP
00F000
00F000
00F000
00F000
00F000
00F000
00F000
00F000
FFFFE0
FFFFE0
FFFFE0
FFFFE0
00F000
00F000
00F000
00F000
00F000
00F000
00F000
00F000
00F000
00F000
FFFFE0
FFFFE0
FFFFE0
FFFFE0
00F000
00F000
00F000
00F000
00F000
00F000
00F000
00F000
ENDCHAR
STARTCHAR 2022
ENCODING 8226
SWIDTH 380 0
DWIDTH 19 0
BBX 13 14 3 10
BITMAP
1FE0
7FF0
FFF8
FFF8
FFF8
FFF8
FFF8
FFF8
FFF8
FFF8
FFF8
FFF8
7FF0
3FE0
ENDCHAR
STARTCHAR 2026
ENCODING 8230
SWIDTH 1360 0
DWIDTH 68 0
BBX 62 9 3 0
BITMAP
3C000007800000F0
FE00001FC00003F8
FF00001FE00003FC
FF00001FE00003FC
FF00001FE00003FC
FF00001FE00003FC
FF00001FE00003FC
FE00001FC00003F8
7E00000FC00001F8
ENDCHAR
STARTCHAR 2030
ENCODING 8240
SWIDTH 1440 0
DWIDTH 72 0
BBX 66 36 3 -1
BITMAP
3FFF80000000000000
7FFFC001F800000000
FFFFE003F000000000
FFFFE007E000000000
F803F007C000000000
F001F00FC000000000
F001F01F8000000000
F001F01F0000000000
F001F03F0000000000
F001F07E0000000000
F001F0FC0000000000
F001F0FC0000000000
F803F1F80000000000
FFFFE3F00000000000
FFFFE3E00000000000
7FFFC7E00000000000
3FFF8FC00000000000
00000F800000000000
00001F800000000000
00003F0FFFC07FFF00
00007E3FFFF0FFFF80
00007E7FFFF1FFFFC0
0000FC7FFFF9FFFFC0
0001F87C00FBF007C0
0001F07C00FBE003C0
0003F07C00FBE003C0
0007E07C00FBE003C0
000FC07C00FBE003C0
000FC07C00FBE003C0
001F807C00FBE003C0
003F007C00FBE003C0
003E007C00FBF007C0
007E007FFFF9FFFFC0
00FC007FFFF1FFFFC0
00F8003FFFF0FFFF80
0000000FFFC07FFF00
ENDCHAR
STARTCHAR 2039
ENCODING 8249
SWIDTH 280 0
DWIDTH 14 0
BBX 12 23 1 5
BITMAP
0010
0030
00F0
01F0
03F0
07F0
1FF0
3FE0
7F80
FF00
FE00
F800
FE00
FF00
7F80
3FE0
1FF0
0FF0
03F0
01F0
00F0
0030
0010
ENDCHAR
STARTCHAR 203A
ENCODING 8250
SWIDTH 280 0
DWIDTH 14 0
BBX 12 23 1 5
BITMAP
8000
C000
E000
F800
FC00
FE00
FF80
7FC0
3FE0
0FE0
07F0
03F0
07F0
0FE0
3FE0
7FC0
FF80
FE00
FC00
F800
E000
C000
8000
ENDCHAR
STARTCHAR 2044
ENCODING 8260
SWIDTH 320 0
DWIDTH 16 0
BBX 29 34 -7 0
BITMAP
000000F8
000001F8
000003F0
000003E0
000007E0
00000FC0
00001F80
00001F80
00003F00
00007E00
00007C00
0000FC00
0001F800
0003F000
0003F000
0007E000
000FC000
000F8000
001F8000
003F0000
003E0000
007E0000
00FC0000
01F80000
01F80000
03F00000
07E00000
07C00000
0FC00000
1F800000
3F000000
3F000000
7E000000
FC000000
ENDCHAR
STARTCHAR 2070
ENCODING 8304
SWIDTH 480 0
DWIDTH 24 0
BBX 20 17 2 18
BITMAP
1FFF80
7FFFE0
7FFFE0
FFFFF0
F801F0
F801F0
F801F0
F801F0
F801F0
F801F0
F801F0
F801F0
F801F0
FFFFF0
7FFFE0
7FFFE0
1FFF80
ENDCHAR
STARTCHAR 2074
ENCODING 8308
SWIDTH 520 0
DWIDTH 26 0
BBX 21 17 2 18
BITMAP
F80078
F80078
F80078
F80078
F80078
F80078
F80078
F80078
F80078
FFFFF8
FFFFF8
FFFFF8
FFFFF8
000078
000078
000078
000078
ENDCHAR
STARTCHAR 2075
ENCODING 8309
SWIDTH 500 0
DWIDTH 25 0
BBX 21 17 2 18
BITMAP
FFF800
FFF800
FFF800
FFF800
F00000
F00000
FFFF80
FFFFF0
FFFFF8
FFFFF8
000078
000078
000078
FFFFF8
FFFFF8
FFFFF8
FFFFE0
ENDCHAR
STARTCHAR 2076
ENCODING 8310
SWIDTH 500 0
DWIDTH 25 0
BBX 21 17 2 18
BITMAP
1FF000
7FF000
7FF000
FFF000
F80000
F80000
F80000
FFFFF0
FFFFF8
FFFFF8
F80078
F80078
F80078
FFFFF8
7FFFF8
7FFFF8
1FFFE0
ENDCHAR
STARTCHAR 2077
ENCODING 8311
SWIDTH 480 0
DWIDTH 24 0
BBX 22 17 1 18
BITMAP
FFFFF8
FFFFFC
FFFFFC
FFFFF8
0001F8
0003F0
0007E0
000FC0
001F80
001F80
003F00
007E00
00FC00
01F800
03F000
07E000
07E000
ENDCHAR
STARTCHAR 2078
ENCODING 8312
SWIDTH 480 0
DWIDTH 24 0
BBX 20 17 2 18
BITMAP
3FFFC0
7FFFE0
FFFFF0
FFFFF0
F800F0
F800F0
F800F0
7FFFF0
3FFFE0
FFFFF0
F801F0
F000F0
F000F0
FFFFF0
FFFFF0
7FFFF0
3FFFC0
ENDCHAR
STARTCHAR 2079
ENCODING 8313
SWIDTH 500 0
DWIDTH 25 0
BBX 21 17 2 18
BITMAP
3FFFC0
7FFFF0
FFFFF8
FFFFF8
F800F8
F800F8
F800F8
FFFFF8
FFFFF8
7FFFF8
0000F8
0000F8
0000F8
007FF8
007FF8
007FF0
007FC0
ENDCHAR
STARTCHAR 2080
ENCODING 8320
SWIDTH 480 0
DWIDTH 24 0
BBX 20 17 2 -1
BITMAP
1FFF80
7FFFE0
7FFFF0
FFFFF0
F801F0
F801F0
F801F0
F801F0
F801F0
F801F0
F801F0
F801F0
F801F0
FFFFF0
7FFFE0
7FFFE0
1FFF80
ENDCHAR
STARTCHAR 2081
ENCODING 8321
SWIDTH 180 0
DWIDTH 9 0
BBX 5 18 2 -1
BITMAP
F8
F8
F8
F8
F8
F8
F8
F8
F8
F8
F8
F8
F8
F8
F8
F8
F8
F8
ENDCHAR
STARTCHAR 2082
ENCODING 8322
SWIDTH 500 0
DWIDTH 25 0
BBX 21 17 2 -1
BITMAP
007FC0
007FF0
007FF0
007FF8
0000F8
0000F8
07FFF8
7FFFF0
FFFFF0
FFFFE0
F00000
F00000
F00000
FFFFF8
FFFFF8
FFFFF8
FFFFF8
ENDCHAR
STARTCHAR 2083
ENCODING 8323
SWIDTH 480 0
DWIDTH 24 0
BBX 21 17 2 -1
BITMAP
007FC0
007FE0
007FF0
007FF0
0000F0
0000F0
0001F0
FFFFF0
FFFFE0
FFFFF0
0000F0
0000F8
0000F8
FFFFF0
FFFFF0
FFFFF0
FFFFC0
ENDCHAR
STARTCHAR 2084
ENCODING 8324
SWIDTH 520 0
DWIDTH 26 0
BBX 21 18 2 -1
BITMAP
F80078
F80078
F80078
F80078
F80078
F80078
F80078
F80078
F80078
FFFFF8
FFFFF8
FFFFF8
FFFFF8
000078
000078
000078
000078
000078
ENDCHAR
STARTCHAR 2085
ENCODING 8325
SWIDTH 500 0
DWIDTH 25 0
BBX 21 17 2 -1
BITMAP
FFF800
FFF800
FFF800
FFF800
F00000
F00000
FFFF80
FFFFF0
FFFFF8
FFFFF8
000078
000078
000078
FFFFF8
FFFFF8
FFFFF8
FFFFE0
ENDCHAR
STARTCHAR 2086
ENCODING 8326
SWIDTH 500 0
DWIDTH 25 0
BBX 21 17 2 -1
BITMAP
1FF000
7FF000
7FF000
FFF000
F80000
F80000
F80000
FFFFF0
FFFFF8
FFFFF8
F80078
F80078
F80078
FFFFF8
7FFFF8
7FFFF8
1FFFE0
ENDCHAR
STARTCHAR 2087
ENCODING 8327
SWIDTH 480 0
DWIDTH 24 0
BBX 22 18 1 -1
BITMAP
FFFFF8
FFFFFC
FFFFFC
FFFFF8
0001F8
0003F0
0007E0
0007C0
000FC0
001F80
003F00
007E00
007C00
00FC00
01F800
03F000
07E000
07E000
ENDCHAR
STARTCHAR 2088
ENCODING 8328
SWIDTH 480 0
DWIDTH 24 0
BBX 20 17 2 -1
BITMAP
3FFFC0
7FFFE0
FFFFF0
FFFFF0
F800F0
F800F0
F801F0
7FFFF0
7FFFE0
FFFFF0
F800F0
F000F0
F000F0
FFFFF0
FFFFF0
7FFFF0
3FFFC0
ENDCHAR
STARTCHAR 2089
ENCODING 8329
SWIDTH 500 0
DWIDTH 25 0
BBX 21 17 2 -1
BITMAP
3FFFC0
7FFFF0
FFFFF8
FFFFF8
F800F8
F800F8
F800F8
FFFFF8
FFFFF8
7FFFF8
0000F8
0000F8
0000F8
007FF8
007FF8
007FF0
007FC0
ENDCHAR
STARTCHAR 20AC
ENCODING 8364
SWIDTH 840 0
DWIDTH 42 0
BBX 39 34 1 0
BITMAP
000FFFFFFE
007FFFFFFE
01FFFFFFFC
03FFFFFFFC
03FFFFFFF8
07FFFFFFF8
07FF000000
07F8000000
0FF0000000
0FF0000000
0FF0000000
0FF0000000
FFFFFFFFC0
FFFFFFFFC0
FFFFFFFF80
FFFFFFFF80
0FF0000000
0FF0000000
0FF0000000
FFFFFFFE00
FFFFFFFE00
FFFFFFFE00
FFFFFFFC00
0FF0000000
0FF0000000
0FF0000000
0FF8000000
07FE000000
07FFFFFFFE
07FFFFFFFE
03FFFFFFFE
01FFFFFFFE
00FFFFFFFE
000FFFFFFE
ENDCHAR
STARTCHAR 2117
ENCODING 8471
SWIDTH 860 0
DWIDTH 43 0
BBX 38 34 3 0
BITMAP
01FFFFFC00
0FFFFFFF80
3FFFFFFFE0
3FFFFFFFF0
7C000001F0
F800000078
F000000078
F000000038
E03FFFC03C
E03FFFE03C
E03FFFF03C
E03800F03C
E03800703C
E03800703C
E03800703C
E03800703C
E03800703C
E03FFFF03C
E03FFFF03C
E03FFFC03C
E03800003C
E03800003C
E03800003C
E03800003C
E03800003C
E00000003C
F000000038
F000000078
78000000F8
7C000001F0
3FFFFFFFF0
1FFFFFFFE0
0FFFFFFF80
01FFFFFC00
ENDCHAR
STARTCHAR 2122
ENCODING 8482
SWIDTH 1240 0
DWIDTH 62 0
BBX 57 23 2 12
BITMAP
000000F000000700
FFFFF0F800000F80
FFFFF1F800001F80
FFFFF1FC00001F80
FFFFF1FE00003F80
00F001FF00007F80
00F001FF0000FF80
00F001FF8000FF80
00F001FFC001FF80
00F001F7E003F780
00F001F3E007E780
00F001F3F007C780
00F001F1F80FC780
00F001F0FC1F8780
00F001F07C3F0780
00F001F07E3E0780
00F001F03F7E0780
00F001F01FFC0780
00F001F01FF80780
00F001F00FF00780
00F001F007F00780
00F001F003E00780
00F0000001C00000
ENDCHAR
STARTCHAR 2153
ENCODING 8531
SWIDTH 860 0
DWIDTH 43 0
BBX 38 36 3 -1
BITMAP
3E00000000
3E0001F800
3E0001F000
3E0003F000
3E0007E000
3E000FC000
3E000FC000
3E001F8000
3E003F0000
3E003E0000
3E007E0000
3E00FC0000
3E00F80000
3E01F80000
3E03F00000
3E07E00000
3E07E00000
3E0FC00000
001F800000
001F003FE0
003F003FF8
007E003FF8
00FC003FFC
00FC00007C
01F800007C
03F00000F8
03E07FFFF8
07E07FFFF8
0FC07FFFF8
0F8000007C
1F8000007C
3F0000007C
7E007FFFFC
7E007FFFFC
FC007FFFF8
00007FFFF0
ENDCHAR
STARTCHAR 2154
ENCODING 8532
SWIDTH 1060 0
DWIDTH 53 0
BBX 48 36 3 -1
BITMAP
007FC0000000
007FE0003F00
007FF0007E00
007FF0007C00
0000F000FC00
0000F001F800
0000F003F000
3FFFF003F000
FFFFF007E000
FFFFE00FC000
FFFF000F8000
F000001F8000
F000003F0000
FFFFF03E0000
FFFFF07E0000
FFFFF0FC0000
FFFFF1F80000
000001F80000
000003F00FF0
000007E00FFC
000007C00FFE
00000FC00FFE
00001F80001E
00003F00001E
00003F00001E
00007E00003E
0000FC1FFFFE
0000F81FFFFC
0001F81FFFFE
0003F000001E
0003E000001F
0007E000001F
000FC01FFFFE
001F801FFFFE
001F801FFFFE
0000001FFFF8
ENDCHAR
STARTCHAR 215B
ENCODING 8539
SWIDTH 900 0
DWIDTH 45 0
BBX 39 36 3 -1
BITMAP
3E00000000
3E0001F800
3E0001F000
3E0003F000
3E0007E000
3E000FC000
3E000FC000
3E001F8000
3E003F0000
3E003E0000
3E007E0000
3E00FC0000
3E00F80000
3E01F80000
3E03F00000
3E07E00000
3E07E00000
3E0FC00000
001F800000
001F07FFF8
003F0FFFFC
007E1FFFFE
00FC1FFFFE
00FC1E003E
01F81E001E
03F01F003E
03E01FFFFC
07E00FFFFC
0FC01FFFFE
0F801E003E
1F801E001E
3F001E001E
7E001FFFFE
7E001FFFFE
FC001FFFFC
000007FFF8
ENDCHAR
STARTCHAR 215C
ENCODING 8540
SWIDTH 1080 0
DWIDTH 54 0
BBX 48 36 3 -1
BITMAP
007FC0000000
007FE0007E00
007FF000FC00
007FF001F800
0000F001F000
0000F003F000
0001F007E000
FFFFF007C000
FFFFE00FC000
FFFFF01F8000
0001F03F0000
0000F03F0000
0000F07E0000
0000F0FC0000
FFFFF0F80000
FFFFF1F80000
FFFFE3F00000
FFFFC7E00000
000007E1FFF8
00000FC7FFFE
00001F8FFFFF
00001F0FFFFF
00003F0F801F
00007E0F001F
00007C0F001F
0000FC0F801F
0001F80FFFFE
0003F007FFFE
0003F00FFFFF
0007E00F001F
000FC00F000F
000F800F000F
001F800FFFFF
003F000FFFFF
007E000FFFFE
00000003FFFC
ENDCHAR
STARTCHAR 215D
ENCODING 8541
SWIDTH 1080 0
DWIDTH 54 0
BBX 48 36 3 -1
BITMAP
FFF000000000
FFF000007E00
FFF00000FC00
FFF00001F800
F0000001F800
F0000003F000
FFFF8007E000
FFFFF007C000
FFFFF00FC000
FFFFF81F8000
0000F81F0000
0000F83F0000
0000F87E0000
FFFFF8FC0000
FFFFF8FC0000
FFFFF1F80000
FFFFE3F00000
000003E00000
000007E00000
00000FC3FFFC
00001F87FFFE
00001F8FFFFF
00003F0FFFFF
00007E0F000F
00007E0F000F
0000FC0F801F
0001F807FFFE
0001F007FFFE
0003F00FFFFF
0007E00F000F
000FC00F000F
000FC00F000F
001F800FFFFF
003F000FFFFF
003E000FFFFF
00000003FFFC
ENDCHAR
STARTCHAR 215E
ENCODING 8542
SWIDTH 960 0
DWIDTH 48 0
BBX 43 36 3 -1
BITMAP
FFFFF0000000
FFFFF81F0000
FFFFF83F0000
FFFFF07E0000
0003F07C0000
0007E0FC0000
000FC1F80000
001F83F00000
001F03F00000
003F07E00000
007E0FC00000
00FC0F800000
01F81F800000
03F03F000000
07E07E000000
07E07E000000
0FC0FC000000
0001F8000000
0001F0000000
0003F0FFFF00
0007E1FFFF80
0007C3FFFFC0
000FC3FFFFC0
001F83E003C0
003F03E003C0
003F03E007C0
007E01FFFFC0
00FC01FFFF80
00F803FFFFC0
01F803E003C0
03F003C003E0
07E003C003E0
07E003FFFFC0
0FC003FFFFC0
1F8001FFFFC0
000000FFFF00
ENDCHAR
STARTCHAR 2202
ENCODING 8706
SWIDTH 680 0
DWIDTH 34 0
BBX 30 36 2 -1
BITMAP
001FF000
001FFE00
001FFF00
001FFFC0
001FFFE0
00001FF0
000007F0
000003F8
000001F8
000000FC
000000FC
000000FC
00FF007C
07FFE07C
1FFFF87C
3FFFFC7C
7FFFFE7C
7F807F7C
FF001FFC
FE0007FC
FC0003FC
FC0003FC
FC0001FC
FC0001F8
FC0001F8
FC0001F8
FC0003F0
FC0007F0
FE0007E0
7F000FE0
7F803FC0
3FFFFF80
1FFFFF00
0FFFFE00
03FFF800
00FFC000
ENDCHAR
STARTCHAR 220F
ENCODING 8719
SWIDTH 620 0
DWIDTH 31 0
BBX 25 47 3 -11
BITMAP
FFFFFF80
FFFFFF80
FFFFFF80
FFFFFF80
FFFFFF80
FFFFFF80
FC001F80
FC001F80
FC001F80
FC001F80
FC001F80
FC001F80
FC001F80
FC001F80
FC001F80
FC001F80
FC001F80
FC001F80
FC001F80
FC001F80
FC001F80
FC001F80
FC001F80
FC001F80
FC001F80
FC001F80
FC001F80
FC001F80
FC001F80
FC001F80
FC001F80
FC001F80
FC001F80
FC001F80
FC001F80
FC001F80
FC001F80
FC001F80
FC001F80
FC001F80
FC001F80
FC001F80
FC001F80
FC001F80
FC001F80
FC001F80
FC001F80
ENDCHAR
STARTCHAR 2211
ENCODING 8721
SWIDTH 640 0
DWIDTH 32 0
BBX 28 47 2 -11
BITMAP
FFFFFFF0
FFFFFFF0
FFFFFFF0
FFFFFFF0
FFFFFFF0
7FFFFFF0
3F800000
3FC00000
1FC00000
0FE00000
07F00000
07F00000
03F80000
01FC0000
01FE0000
00FE0000
007F0000
007F8000
003F8000
001FC000
000FE000
000FE000
0007F000
0003F800
0007F000
000FF000
000FE000
001FC000
003F8000
003F8000
007F0000
00FE0000
01FE0000
01FC0000
03F80000
07F80000
07F00000
0FE00000
1FC00000
3FC00000
3F800000
7FFFFFF0
FFFFFFF0
FFFFFFF0
FFFFFFF0
FFFFFFF0
FFFFFFF0
ENDCHAR
STARTCHAR 2212
ENCODING 8722
SWIDTH 600 0
DWIDTH 30 0
BBX 24 5 3 15
BITMAP
FFFFFF
FFFFFF
FFFFFF
FFFFFF
FFFFFF
ENDCHAR
STARTCHAR 221A
ENCODING 8730
SWIDTH 580 0
DWIDTH 29 0
BBX 26 34 2 0
BITMAP
00000FC0
00000FC0
00000F80
00000F80
00001F80
00001F00
00001F00
00003F00
00003F00
00003E00
00007E00
00007E00
00007C00
00007C00
0000FC00
FF00F800
FF00F800
FF01F800
FF81F000
FF81F000
0F83F000
0FC3F000
0FC3E000
07C3E000
07E7E000
07E7C000
03E7C000
03FFC000
01FF8000
01FF8000
01FF8000
00FF0000
00FF0000
00FF0000
ENDCHAR
STARTCHAR 221E
ENCODING 8734
SWIDTH 780 0
DWIDTH 39 0
BBX 35 21 2 6
BITMAP
07F807FC00
1FFE0FFE00
3FFF1FFF00
3FFF3FFF80
7E0FBE0FC0
7C07FC07C0
F803F803C0
F001F003C0
F001F003E0
F001E001E0
F000E001E0
F001E001E0
F001F003E0
F001F003C0
F803F803C0
7C07FC07C0
7E1FBF1F80
3FFF3FFF80
1FFE1FFF00
0FFC07FE00
03F001F800
ENDCHAR
STARTCHAR 222B
ENCODING 8747
SWIDTH 400 0
DWIDTH 20 0
BBX 18 54 1 -11
BITMAP
000FC0
003FC0
007FC0
00FFC0
01FC00
01F000
01F000
03E000
03E000
03E000
03E000
03E000
03E000
03E000
03E000
03E000
03E000
03E000
03E000
03E000
03E000
03E000
03E000
03E000
03E000
03E000
03E000
03E000
03E000
03E000
03E000
03E000
03E000
03E000
03E000
03E000
03E000
03E000
03E000
03E000
03E000
03E000
03E000
03E000
03E000
03E000
03E000
03E000
07E000
0FC000
FFC000
FF8000
FF0000
F80000
ENDCHAR
STARTCHAR 2248
ENCODING 8776
SWIDTH 600 0
DWIDTH 30 0
BBX 24 18 3 9
BITMAP
0F0000
3FE003
FFFC1F
FFFFFF
FFFFFF
F87FFF
C00FFC
0001E0
000000
000000
0F0000
3FE003
FFFC1F
FFFFFF
FFFFFF
F87FFF
C00FFC
0001E0
ENDCHAR
STARTCHAR 2260
ENCODING 8800
SWIDTH 600 0
DWIDTH 30 0
BBX 29 34 0 0
BITMAP
000001F8
000001F8
000003F0
000007E0
00000FE0
00000FC0
00001F80
00003F00
1FFFFFE0
1FFFFFE0
1FFFFFE0
1FFFFFE0
1FFFFFE0
0003F000
0003F000
0007E000
000FC000
001F8000
001F8000
003F0000
1FFFFFE0
1FFFFFE0
1FFFFFE0
1FFFFFE0
1FFFFFE0
03F00000
07E00000
0FC00000
0FC00000
1F800000
3F000000
3F000000
7E000000
FC000000
ENDCHAR
STARTCHAR 2264
ENCODING 8804
SWIDTH 600 0
DWIDTH 30 0
BBX 24 36 3 -5
BITMAP
000001
000007
00001F
00007F
0001FF
0003FF
000FFC
003FF0
00FFC0
03FF00
0FFE00
1FF800
7FE000
FF8000
FE0000
FE0000
FF8000
7FE000
1FF800
0FFE00
03FF00
00FFC0
003FF0
000FFC
0003FF
0001FF
00007F
00001F
000007
000001
000000
FFFFFF
FFFFFF
FFFFFF
FFFFFF
FFFFFF
ENDCHAR
STARTCHAR 2265
ENCODING 8805
SWIDTH 600 0
DWIDTH 30 0
BBX 24 36 3 -5
BITMAP
800000
E00000
F80000
FC0000
FF0000
FFC000
3FF000
1FFC00
07FE00
01FF80
007FE0
001FF8
0007FC
0001FE
0000FF
0000FF
0003FE
0007FC
001FF8
007FE0
01FF80
07FE00
1FFC00
3FF000
FFC000
FF0000
FC0000
F80000
E00000
800000
000000
FFFFFF
FFFFFF
FFFFFF
FFFFFF
FFFFFF
ENDCHAR
STARTCHAR 25CA
ENCODING 9674
SWIDTH 560 0
DWIDTH 28 0
BBX 22 36 3 -1
BITMAP
007800
00FC00
00FC00
01FE00
01FE00
03FF00
03FF00
07DF80
07CF80
0F8FC0
0F87C0
1F07E0
1F03E0
3E03F0
3E01F0
7C01F8
7C00F8
F800FC
FC00FC
7C00F8
7E01F8
3E01F0
3E03F0
1F03E0
1F07E0
0F87C0
0F8FC0
07CF80
07DF80
03FF00
03FF00
01FE00
01FE00
00FC00
00FC00
007800
ENDCHAR
STARTCHAR FB01
ENCODING 64257
SWIDTH 700 0
DWIDTH 35 0
BBX 29 36 3 0
BITMAP
0FFF83F8
3FFF83F8
7FFF83F8
7FFF83F8
FFFF83F8
FF8003F8
FF0003F8
FE000000
FE000000
FFFF8000
FFFF83F8
FFFF83F8
FFFF83F8
FFFF83F8
FFFF83F8
FE0003F8
FE0003F8
FE0003F8
FE0003F8
FE0003F8
FE0003F8
FE0003F8
FE0003F8
FE0003F8
FE0003F8
FE0003F8
FE0003F8
FE0003F8
FE0003F8
FE0003F8
FE0003F8
FE0003F8
FE0003F8
FE0003F8
FE0003F8
FE0003F8
ENDCHAR
STARTCHAR FB02
ENCODING 64258
SWIDTH 700 0
DWIDTH 35 0
BBX 29 36 3 0
BITMAP
0FFF83F8
3FFF83F8
7FFF83F8
7FFF83F8
FFFF83F8
FF8003F8
FF0003F8
FE0003F8
FE0003F8
FFFF83F8
FFFF83F8
FFFF83F8
FFFF83F8
FFFF83F8
FFFF83F8
FE0003F8
FE0003F8
FE0003F8
FE0003F8
FE0003F8
FE0003F8
FE0003F8
FE0003F8
FE0003F8
FE0003F8
FE0003F8
FE0003F8
FE0003F8
FE0003F8
FE0003F8
FE0003F8
FE0003F8
FE0003F8
FE0003F8
FE0003F8
FE0003F8
ENDCHAR
ENDFONT
